<svg width="220" height="161" viewBox="0 0 220 161" fill="none" xmlns="http://www.w3.org/2000/svg">
<path fill-rule="evenodd" clip-rule="evenodd" d="M0.140015 0V109.059V113.839H57.796C60.2265 140.279 82.6189 161 109.837 161C136.975 161 159.432 140.214 161.942 113.839H219.533V109.059C219.533 48.9134 170.301 0 109.837 0C94.5784 0 80.0354 3.11484 66.8184 8.73901V0H0.140015ZM57.2588 13.3663V9.55963H9.69964V64.5432C19.5282 42.7791 36.3311 24.7783 57.2588 13.3663ZM9.7793 104.28C11.4122 70.5496 30.0094 41.167 57.2588 24.402V104.28H9.7793ZM66.8184 79.6673V19.2126C79.8584 13.0254 94.4471 9.55963 109.837 9.55963C163.45 9.55963 207.345 51.622 209.894 104.28L162.176 104.28L161.857 104.28C159.467 77.8313 137.002 57.1188 109.837 57.1188C92.0158 57.1188 76.252 66.0669 66.8184 79.6673ZM67.407 104.28H152.266C149.868 83.1736 131.785 66.6784 109.837 66.6784C87.8884 66.6784 69.805 83.1736 67.407 104.28ZM67.376 113.839C69.7659 134.95 87.9292 151.44 109.837 151.44C131.744 151.44 149.907 134.95 152.297 113.839H67.376Z" fill="#1F1F23"/>
</svg>
