<?xml version="1.0" encoding="UTF-8"?>
<svg width="502px" height="45px" viewBox="0 0 502 45" version="1.1" xmlns="http://www.w3.org/2000/svg" xmlns:xlink="http://www.w3.org/1999/xlink">
    <!-- Generator: Sketch 45 (43475) - http://www.bohemiancoding.com/sketch -->
    <title>heyfont-partner</title>
    <desc>Created with Sketch.</desc>
    <defs>
        <linearGradient x1="5.99838568%" y1="50%" x2="97.9591837%" y2="50%" id="linearGradient-1">
            <stop stop-color="#FFC426" offset="0%"></stop>
            <stop stop-color="#EA4369" offset="100%"></stop>
        </linearGradient>
    </defs>
    <g id="Previews-page" stroke="none" stroke-width="1" fill="none" fill-rule="evenodd">
        <g id="Landing-page-Heyfont" transform="translate(-130.000000, -173.000000)" fill="url(#linearGradient-1)">
            <g id="body" transform="translate(0.000000, -2.000000)">
                <path d="M147.261824,193.074378 L159.905961,193.074378 L159.905961,194.085116 C159.905961,196.384062 159.635113,198.41873 159.093407,200.189183 C158.564914,201.827512 157.673095,203.360119 156.417923,204.787051 C153.577272,207.984435 149.963754,209.583103 145.57726,209.583103 C141.296465,209.583103 137.630098,208.037284 134.57805,204.945598 C131.526001,201.8407 130,198.114879 130,193.768022 C130,189.328679 131.552426,185.563221 134.657323,182.471536 C137.762221,179.366638 141.540891,177.814212 145.993447,177.814212 C148.384878,177.814212 150.617729,178.303061 152.692065,179.280774 C154.673914,180.258486 156.622704,181.843942 158.538492,184.037189 L155.248638,187.188314 C152.738295,183.845595 149.679686,182.17426 146.07272,182.17426 C142.835699,182.17426 140.120606,183.290685 137.927359,185.523569 C135.734112,187.716816 134.637505,190.464939 134.637505,193.768022 C134.637505,197.176803 135.859627,199.984382 138.303908,202.190841 C140.589642,204.238752 143.066917,205.262692 145.735807,205.262692 C148.008328,205.262692 150.049603,204.496389 151.859692,202.963758 C153.669781,201.417916 154.68051,199.568217 154.891907,197.414607 L147.261824,197.414607 L147.261824,193.074378 Z M164.860561,189.705251 L169.3197,189.705251 L169.3197,191.429451 C170.138864,190.57065 170.865532,189.98271 171.499724,189.665614 C172.147128,189.335306 172.913432,189.170154 173.798658,189.170154 C174.974555,189.170154 176.203283,189.553306 177.48488,190.319621 L175.443585,194.402211 C174.597996,193.794444 173.772237,193.490565 172.966285,193.490565 C170.535216,193.490565 169.3197,195.327051 169.3197,199.000079 L169.3197,209.00837 L164.860561,209.00837 L164.860561,189.705251 Z M197.620371,200.407185 L183.78713,200.407185 C183.906041,201.992665 184.421314,203.254424 185.332965,204.192499 C186.244616,205.117362 187.413889,205.579787 188.840821,205.579787 C189.950657,205.579787 190.8689,205.315544 191.595578,204.787051 C192.309044,204.258558 193.12159,203.28086 194.033241,201.853928 L197.798737,203.954678 C197.217394,204.945603 196.60303,205.794483 195.955626,206.501342 C195.308222,207.208202 194.614585,207.789536 193.874694,208.245361 C193.134804,208.701187 192.335469,209.034793 191.476668,209.24619 C190.617866,209.457588 189.686411,209.563285 188.682274,209.563285 C185.801986,209.563285 183.489863,208.638435 181.745835,206.788709 C180.001807,204.92577 179.129807,202.455102 179.129807,199.376629 C179.129807,196.32458 179.975383,193.853911 181.666561,191.964548 C183.370952,190.101609 185.630227,189.170154 188.444453,189.170154 C191.285104,189.170154 193.531167,190.075185 195.182708,191.885274 C196.821037,193.682151 197.640189,196.172638 197.640189,199.35681 L197.620371,200.407185 Z M193.042321,196.7606 C192.421342,194.382381 190.921765,193.193289 188.543545,193.193289 C188.00184,193.193289 187.493173,193.275864 187.017529,193.441019 C186.541885,193.606173 186.109187,193.843991 185.719424,194.154481 C185.32966,194.464971 184.996053,194.838213 184.718595,195.27422 C184.441136,195.710227 184.229741,196.205682 184.084406,196.7606 L193.042321,196.7606 Z M216.725306,189.705251 L221.204264,189.705251 L221.204264,209.00837 L216.725306,209.00837 L216.725306,206.986893 C214.888792,208.704496 212.913578,209.563285 210.799605,209.563285 C208.130714,209.563285 205.924288,208.598799 204.180261,206.669799 C202.449445,204.701161 201.584051,202.243705 201.584051,199.297355 C201.584051,196.403854 202.449445,193.99264 204.180261,192.06364 C205.911076,190.13464 208.077866,189.170154 210.680695,189.170154 C212.926791,189.170154 214.941641,190.095003 216.725306,191.94473 L216.725306,189.705251 Z M206.142282,199.297355 C206.142282,201.147081 206.637737,202.653264 207.628662,203.815949 C208.646011,204.991847 209.927588,205.579787 211.473431,205.579787 C213.124972,205.579787 214.459397,205.011665 215.476747,203.875405 C216.494096,202.699507 217.002764,201.206536 217.002764,199.396447 C217.002764,197.586358 216.494096,196.093387 215.476747,194.917489 C214.459397,193.768016 213.138184,193.193289 211.513068,193.193289 C209.980437,193.193289 208.69886,193.774622 207.668298,194.937308 C206.650949,196.113205 206.142282,197.56654 206.142282,199.297355 Z M231.430557,193.867114 L231.430557,209.00837 L226.971417,209.00837 L226.971417,193.867114 L225.068851,193.867114 L225.068851,189.705251 L226.971417,189.705251 L226.971417,182.630083 L231.430557,182.630083 L231.430557,189.705251 L234.898776,189.705251 L234.898776,193.867114 L231.430557,193.867114 Z M254.915357,219.51212 L250.456218,219.51212 L250.456218,189.705251 L254.915357,189.705251 L254.915357,191.806001 C256.672597,190.048761 258.667629,189.170154 260.900513,189.170154 C263.556192,189.170154 265.7428,190.147852 267.460403,192.103277 C269.20443,194.045489 270.076431,196.49634 270.076431,199.455902 C270.076431,202.349403 269.211036,204.760617 267.480221,206.689617 C265.762618,208.605405 263.595828,209.563285 260.979787,209.563285 C258.720478,209.563285 256.699022,208.658254 254.915357,206.848164 L254.915357,219.51212 Z M265.5182,199.47572 C265.5182,197.625994 265.016139,196.119811 264.012002,194.957126 C262.994652,193.781228 261.713075,193.193289 260.167233,193.193289 C258.528904,193.193289 257.201084,193.76141 256.183735,194.897671 C255.166385,196.033931 254.657718,197.526902 254.657718,199.376629 C254.657718,201.186718 255.166385,202.679689 256.183735,203.855586 C257.187872,205.005059 258.509085,205.579787 260.147414,205.579787 C261.693257,205.579787 262.968228,204.998453 263.972365,203.835768 C265.002927,202.673083 265.5182,201.219748 265.5182,199.47572 Z M289.022819,189.705251 L293.501777,189.705251 L293.501777,209.00837 L289.022819,209.00837 L289.022819,206.986893 C287.186305,208.704496 285.211091,209.563285 283.097118,209.563285 C280.428227,209.563285 278.221801,208.598799 276.477773,206.669799 C274.746958,204.701161 273.881563,202.243705 273.881563,199.297355 C273.881563,196.403854 274.746958,193.99264 276.477773,192.06364 C278.208589,190.13464 280.375378,189.170154 282.978208,189.170154 C285.224304,189.170154 287.239154,190.095003 289.022819,191.94473 L289.022819,189.705251 Z M278.439795,199.297355 C278.439795,201.147081 278.93525,202.653264 279.926174,203.815949 C280.943524,204.991847 282.225101,205.579787 283.770944,205.579787 C285.422485,205.579787 286.75691,205.011665 287.77426,203.875405 C288.791609,202.699507 289.300276,201.206536 289.300276,199.396447 C289.300276,197.586358 288.791609,196.093387 287.77426,194.917489 C286.75691,193.768016 285.435697,193.193289 283.81058,193.193289 C282.27795,193.193289 280.996373,193.774622 279.965811,194.937308 C278.948462,196.113205 278.439795,197.56654 278.439795,199.297355 Z M299.130201,189.705251 L303.589341,189.705251 L303.589341,191.429451 C304.408505,190.57065 305.135173,189.98271 305.769364,189.665614 C306.416769,189.335306 307.183072,189.170154 308.068298,189.170154 C309.244196,189.170154 310.472924,189.553306 311.75452,190.319621 L309.713225,194.402211 C308.867636,193.794444 308.041878,193.490565 307.235926,193.490565 C304.804857,193.490565 303.589341,195.327051 303.589341,199.000079 L303.589341,209.00837 L299.130201,209.00837 L299.130201,189.705251 Z M318.908962,193.867114 L318.908962,209.00837 L314.449822,209.00837 L314.449822,193.867114 L312.547256,193.867114 L312.547256,189.705251 L314.449822,189.705251 L314.449822,182.630083 L318.908962,182.630083 L318.908962,189.705251 L322.377181,189.705251 L322.377181,193.867114 L318.908962,193.867114 Z M325.409396,189.705251 L329.888354,189.705251 L329.888354,191.488906 C331.447409,189.943064 333.204622,189.170154 335.160047,189.170154 C337.406144,189.170154 339.156751,189.877003 340.411923,191.290722 C341.495334,192.493045 342.037031,194.455046 342.037031,197.176786 L342.037031,209.00837 L337.558073,209.00837 L337.558073,198.227161 C337.558073,196.324586 337.293831,195.009979 336.765338,194.2833 C336.250057,193.54341 335.311995,193.17347 333.951125,193.17347 C332.471344,193.17347 331.42098,193.662319 330.8,194.640032 C330.192233,195.604532 329.888354,197.289079 329.888354,199.693723 L329.888354,209.00837 L325.409396,209.00837 L325.409396,189.705251 Z M365.244374,200.407185 L351.411133,200.407185 C351.530044,201.992665 352.045317,203.254424 352.956968,204.192499 C353.868619,205.117362 355.037893,205.579787 356.464824,205.579787 C357.57466,205.579787 358.492903,205.315544 359.219582,204.787051 C359.933047,204.258558 360.745594,203.28086 361.657244,201.853928 L365.42274,203.954678 C364.841397,204.945603 364.227033,205.794483 363.579629,206.501342 C362.932225,207.208202 362.238588,207.789536 361.498697,208.245361 C360.758807,208.701187 359.959473,209.034793 359.100671,209.24619 C358.24187,209.457588 357.310414,209.563285 356.306277,209.563285 C353.425989,209.563285 351.113866,208.638435 349.369838,206.788709 C347.62581,204.92577 346.75381,202.455102 346.75381,199.376629 C346.75381,196.32458 347.599386,193.853911 349.290565,191.964548 C350.994955,190.101609 353.25423,189.170154 356.068456,189.170154 C358.909108,189.170154 361.15517,190.075185 362.806711,191.885274 C364.44504,193.682151 365.264193,196.172638 365.264193,199.35681 L365.244374,200.407185 Z M360.666325,196.7606 C360.045345,194.382381 358.545768,193.193289 356.167548,193.193289 C355.625843,193.193289 355.117176,193.275864 354.641532,193.441019 C354.165888,193.606173 353.733191,193.843991 353.343427,194.154481 C352.953663,194.464971 352.620057,194.838213 352.342598,195.27422 C352.065139,195.710227 351.853745,196.205682 351.708409,196.7606 L360.666325,196.7606 Z M370.1197,189.705251 L374.578839,189.705251 L374.578839,191.429451 C375.398004,190.57065 376.124671,189.98271 376.758863,189.665614 C377.406267,189.335306 378.172571,189.170154 379.057797,189.170154 C380.233695,189.170154 381.462423,189.553306 382.744019,190.319621 L380.702724,194.402211 C379.857135,193.794444 379.031377,193.490565 378.225424,193.490565 C375.794356,193.490565 374.578839,195.327051 374.578839,199.000079 L374.578839,209.00837 L370.1197,209.00837 L370.1197,189.705251 Z M402.443506,193.867114 L402.443506,209.00837 L397.964548,209.00837 L397.964548,193.867114 L396.379076,193.867114 L396.379076,189.705251 L397.964548,189.705251 L397.964548,182.253533 C397.964548,179.822464 398.387336,178.104887 399.232925,177.10075 C400.39561,175.700243 402.086763,175 404.306435,175 C405.099175,175 406.096691,175.231212 407.299013,175.693644 L407.299013,180.251875 L406.84319,180.014054 C405.87869,179.525198 405.085962,179.280774 404.464982,179.280774 C403.672242,179.280774 403.137151,179.564835 402.859692,180.132965 C402.582233,180.687883 402.443506,181.758066 402.443506,183.343545 L402.443506,189.705251 L407.299013,189.705251 L407.299013,193.867114 L402.443506,193.867114 Z M408.963758,199.218081 C408.963758,196.43028 409.961274,194.058702 411.956336,192.103277 C413.951398,190.147852 416.382431,189.170154 419.249507,189.170154 C422.129795,189.170154 424.574039,190.154458 426.582313,192.123095 C428.564163,194.091732 429.555073,196.509553 429.555073,199.376629 C429.555073,202.270129 428.557557,204.694555 426.562495,206.64998 C424.554221,208.592193 422.090158,209.563285 419.170233,209.563285 C416.276732,209.563285 413.852306,208.572375 411.896881,206.590525 C409.941456,204.6351 408.963758,202.177643 408.963758,199.218081 Z M413.52199,199.297355 C413.52199,201.226355 414.037263,202.752357 415.067825,203.875405 C416.124811,205.011665 417.518691,205.579787 419.249507,205.579787 C420.993534,205.579787 422.387414,205.018271 423.431188,203.895223 C424.474962,202.772175 424.996842,201.272598 424.996842,199.396447 C424.996842,197.520296 424.474962,196.020719 423.431188,194.897671 C422.374202,193.76141 420.980322,193.193289 419.249507,193.193289 C417.545116,193.193289 416.164448,193.76141 415.107462,194.897671 C414.050475,196.033931 413.52199,197.500478 413.52199,199.297355 Z M434.271852,189.705251 L438.730991,189.705251 L438.730991,191.429451 C439.550155,190.57065 440.276823,189.98271 440.911015,189.665614 C441.558419,189.335306 442.324723,189.170154 443.209949,189.170154 C444.385846,189.170154 445.614574,189.553306 446.896171,190.319621 L444.854876,194.402211 C444.009286,193.794444 443.183528,193.490565 442.377576,193.490565 C439.946507,193.490565 438.730991,195.327051 438.730991,199.000079 L438.730991,209.00837 L434.271852,209.00837 L434.271852,189.705251 Z M476.20758,175.535097 L480.686538,175.535097 L480.686538,209.00837 L476.20758,209.00837 L476.20758,206.986893 C474.45034,208.704496 472.461914,209.563285 470.242242,209.563285 C467.599776,209.563285 465.406562,208.598799 463.662535,206.669799 C461.931719,204.701161 461.066325,202.243705 461.066325,199.297355 C461.066325,196.417067 461.931719,194.012459 463.662535,192.083458 C465.380138,190.141246 467.540321,189.170154 470.14315,189.170154 C472.402459,189.170154 474.423915,190.095003 476.20758,191.94473 L476.20758,175.535097 Z M465.624556,199.297355 C465.624556,201.147081 466.120011,202.653264 467.110936,203.815949 C468.128285,204.991847 469.409862,205.579787 470.955705,205.579787 C472.607246,205.579787 473.941671,205.011665 474.959021,203.875405 C475.97637,202.699507 476.485038,201.206536 476.485038,199.396447 C476.485038,197.586358 475.97637,196.093387 474.959021,194.917489 C473.941671,193.768016 472.620458,193.193289 470.995341,193.193289 C469.462711,193.193289 468.181134,193.774622 467.150572,194.937308 C466.133223,196.113205 465.624556,197.56654 465.624556,199.297355 Z M503.893881,200.407185 L490.06064,200.407185 C490.179551,201.992665 490.694824,203.254424 491.606475,204.192499 C492.518125,205.117362 493.687399,205.579787 495.114331,205.579787 C496.224167,205.579787 497.14241,205.315544 497.869088,204.787051 C498.582554,204.258558 499.3951,203.28086 500.306751,201.853928 L504.072246,203.954678 C503.490904,204.945603 502.87654,205.794483 502.229135,206.501342 C501.581731,207.208202 500.888094,207.789536 500.148204,208.245361 C499.408313,208.701187 498.608979,209.034793 497.750178,209.24619 C496.891376,209.457588 495.959921,209.563285 494.955784,209.563285 C492.075496,209.563285 489.763372,208.638435 488.019345,206.788709 C486.275317,204.92577 485.403316,202.455102 485.403316,199.376629 C485.403316,196.32458 486.248893,193.853911 487.940071,191.964548 C489.644462,190.101609 491.903736,189.170154 494.717963,189.170154 C497.558614,189.170154 499.804677,190.075185 501.456218,191.885274 C503.094547,193.682151 503.913699,196.172638 503.913699,199.35681 L503.893881,200.407185 Z M499.315831,196.7606 C498.694851,194.382381 497.195274,193.193289 494.817055,193.193289 C494.275349,193.193289 493.766682,193.275864 493.291038,193.441019 C492.815394,193.606173 492.382697,193.843991 491.992933,194.154481 C491.60317,194.464971 491.269563,194.838213 490.992104,195.27422 C490.714645,195.710227 490.503251,196.205682 490.357916,196.7606 L499.315831,196.7606 Z M519.986419,192.995105 L516.300197,194.957126 C515.718855,193.768016 514.998794,193.17347 514.139992,193.17347 C513.73041,193.17347 513.380288,193.308895 513.089617,193.579747 C512.798946,193.8506 512.653612,194.197419 512.653612,194.620213 C512.653612,195.360104 513.512401,196.093377 515.230004,196.820055 C517.595011,197.837405 519.187073,198.775466 520.006238,199.634268 C520.825402,200.493069 521.234978,201.649131 521.234978,203.102487 C521.234978,204.965426 520.547947,206.524457 519.173865,207.779629 C517.83942,208.968739 516.227539,209.563285 514.338176,209.563285 C511.101155,209.563285 508.80885,207.984435 507.461192,204.826688 L511.266325,203.06285 C511.794818,203.987714 512.197788,204.575653 512.475247,204.826688 C513.016952,205.328756 513.664347,205.579787 514.41745,205.579787 C515.923655,205.579787 516.676747,204.892756 516.676747,203.518674 C516.676747,202.725934 516.095413,201.986054 514.932728,201.299013 C514.483509,201.074403 514.034296,200.856403 513.585077,200.645006 C513.135858,200.433609 512.680039,200.215608 512.217608,199.990999 C510.922799,199.356807 510.011162,198.722625 509.482669,198.088433 C508.80884,197.282481 508.471931,196.245328 508.471931,194.976944 C508.471931,193.298978 509.046658,191.911704 510.196131,190.815081 C511.372029,189.718457 512.798939,189.170154 514.476905,189.170154 C516.947611,189.170154 518.784097,190.445125 519.986419,192.995105 Z M529.697434,189.705251 L529.697434,209.00837 L525.238295,209.00837 L525.238295,189.705251 L529.697434,189.705251 Z M524.564469,181.6788 C524.564469,180.899272 524.84853,180.225454 525.41666,179.657323 C525.98479,179.089193 526.665215,178.805132 527.457955,178.805132 C528.263907,178.805132 528.950938,179.089193 529.519068,179.657323 C530.087199,180.212241 530.371259,180.892666 530.371259,181.698618 C530.371259,182.50457 530.087199,183.191601 529.519068,183.759732 C528.96415,184.327862 528.283726,184.611923 527.477773,184.611923 C526.671821,184.611923 525.98479,184.327862 525.41666,183.759732 C524.84853,183.191601 524.564469,182.497964 524.564469,181.6788 Z M554.014607,208.552546 C554.014607,209.464197 553.98488,210.266834 553.925424,210.960482 C553.865969,211.654129 553.783393,212.26519 553.677694,212.793683 C553.360598,214.24704 552.739628,215.495586 551.814765,216.53936 C550.070737,218.547635 547.672735,219.551757 544.620687,219.551757 C542.044282,219.551757 539.923735,218.85812 538.258981,217.470825 C536.541378,216.043893 535.550468,214.06868 535.286222,211.545124 L539.76518,211.545124 C539.93694,212.496412 540.221001,213.229686 540.617371,213.744966 C541.542234,214.947289 542.889871,215.548441 544.660324,215.548441 C547.923769,215.548441 549.555468,213.546802 549.555468,209.543466 L549.555468,206.848164 C547.785015,208.658254 545.743741,209.563285 543.431583,209.563285 C540.802329,209.563285 538.648752,208.612011 536.970786,206.709435 C535.279607,204.780435 534.434031,202.369221 534.434031,199.47572 C534.434031,196.661494 535.220153,194.270098 536.79242,192.301461 C538.483598,190.213912 540.716449,189.170154 543.491038,189.170154 C545.922107,189.170154 547.943563,190.075185 549.555468,191.885274 L549.555468,189.705251 L554.014607,189.705251 L554.014607,208.552546 Z M549.733833,199.396447 C549.733833,197.520296 549.231772,196.020719 548.227635,194.897671 C547.210286,193.748198 545.908891,193.17347 544.323411,193.17347 C542.632233,193.17347 541.297807,193.801046 540.320095,195.056218 C539.434869,196.179266 538.992262,197.632601 538.992262,199.416265 C538.992262,201.173505 539.434869,202.613628 540.320095,203.736676 C541.284595,204.965423 542.61902,205.579787 544.323411,205.579787 C546.027802,205.579787 547.375439,204.958817 548.366364,203.716857 C549.278015,202.593809 549.733833,201.153687 549.733833,199.396447 Z M559.643032,189.705251 L564.12199,189.705251 L564.12199,191.488906 C565.681045,189.943064 567.438258,189.170154 569.393683,189.170154 C571.63978,189.170154 573.390387,189.877003 574.645559,191.290722 C575.72897,192.493045 576.270667,194.455046 576.270667,197.176786 L576.270667,209.00837 L571.791709,209.00837 L571.791709,198.227161 C571.791709,196.324586 571.527467,195.009979 570.998974,194.2833 C570.483693,193.54341 569.545631,193.17347 568.184761,193.17347 C566.70498,193.17347 565.654616,193.662319 565.033636,194.640032 C564.425869,195.604532 564.12199,197.289079 564.12199,199.693723 L564.12199,209.00837 L559.643032,209.00837 L559.643032,189.705251 Z M599.47801,200.407185 L585.644769,200.407185 C585.76368,201.992665 586.278953,203.254424 587.190604,204.192499 C588.102255,205.117362 589.271529,205.579787 590.69846,205.579787 C591.808296,205.579787 592.726539,205.315544 593.453218,204.787051 C594.166683,204.258558 594.97923,203.28086 595.89088,201.853928 L599.656376,203.954678 C599.075033,204.945603 598.460669,205.794483 597.813265,206.501342 C597.165861,207.208202 596.472224,207.789536 595.732333,208.245361 C594.992443,208.701187 594.193109,209.034793 593.334307,209.24619 C592.475506,209.457588 591.54405,209.563285 590.539913,209.563285 C587.659625,209.563285 585.347502,208.638435 583.603474,206.788709 C581.859446,204.92577 580.987446,202.455102 580.987446,199.376629 C580.987446,196.32458 581.833022,193.853911 583.524201,191.964548 C585.228591,190.101609 587.487866,189.170154 590.302092,189.170154 C593.142744,189.170154 595.388806,190.075185 597.040347,191.885274 C598.678676,193.682151 599.497829,196.172638 599.497829,199.35681 L599.47801,200.407185 Z M594.899961,196.7606 C594.278981,194.382381 592.779404,193.193289 590.401184,193.193289 C589.859479,193.193289 589.350812,193.275864 588.875168,193.441019 C588.399524,193.606173 587.966827,193.843991 587.577063,194.154481 C587.187299,194.464971 586.853693,194.838213 586.576234,195.27422 C586.298775,195.710227 586.087381,196.205682 585.942045,196.7606 L594.899961,196.7606 Z M604.353336,189.705251 L608.812475,189.705251 L608.812475,191.429451 C609.63164,190.57065 610.358307,189.98271 610.992499,189.665614 C611.639903,189.335306 612.406207,189.170154 613.291433,189.170154 C614.467331,189.170154 615.696059,189.553306 616.977655,190.319621 L614.93636,194.402211 C614.090771,193.794444 613.265013,193.490565 612.45906,193.490565 C610.027992,193.490565 608.812475,195.327051 608.812475,199.000079 L608.812475,209.00837 L604.353336,209.00837 L604.353336,189.705251 Z M630.751441,192.995105 L627.065219,194.957126 C626.483877,193.768016 625.763815,193.17347 624.905014,193.17347 C624.495432,193.17347 624.14531,193.308895 623.854639,193.579747 C623.563967,193.8506 623.418634,194.197419 623.418634,194.620213 C623.418634,195.360104 624.277423,196.093377 625.995026,196.820055 C628.360033,197.837405 629.952095,198.775466 630.771259,199.634268 C631.590424,200.493069 632,201.649131 632,203.102487 C632,204.965426 631.312969,206.524457 629.938887,207.779629 C628.604441,208.968739 626.992561,209.563285 625.103198,209.563285 C621.866177,209.563285 619.573872,207.984435 618.226214,204.826688 L622.031346,203.06285 C622.559839,203.987714 622.96281,204.575653 623.240268,204.826688 C623.781974,205.328756 624.429369,205.579787 625.182471,205.579787 C626.688677,205.579787 627.441769,204.892756 627.441769,203.518674 C627.441769,202.725934 626.860435,201.986054 625.69775,201.299013 C625.24853,201.074403 624.799318,200.856403 624.350099,200.645006 C623.900879,200.433609 623.445061,200.215608 622.982629,199.990999 C621.687821,199.356807 620.776184,198.722625 620.24769,198.088433 C619.573862,197.282481 619.236952,196.245328 619.236952,194.976944 C619.236952,193.298978 619.81168,191.911704 620.961153,190.815081 C622.13705,189.718457 623.563961,189.170154 625.241927,189.170154 C627.712632,189.170154 629.549119,190.445125 630.751441,192.995105 Z" id="heyfont-partner"></path>
            </g>
        </g>
    </g>
</svg>