<?xml version="1.0" encoding="utf-8"?>
<!-- Generator: Adobe Illustrator 18.1.0, SVG Export Plug-In . SVG Version: 6.00 Build 0)  -->
<svg version="1.1" id="Capa_1" xmlns="http://www.w3.org/2000/svg" xmlns:xlink="http://www.w3.org/1999/xlink" x="0px" y="0px"
	 viewBox="0 217.2 792 789.7" enable-background="new 0 217.2 792 789.7" xml:space="preserve">
<g>
	<path fill="#FFFFFF" d="M516.8,293.2c20.1,7.9,39.6,17.4,58.1,29c4.3,2.6,9.5,4.2,14.3,4.2c9.6,0,18.5-4.3,23.8-13.6
		c7.9-12.7,3.7-29.6-9-37.5c-21.1-13.2-44.4-24.3-67.6-33.3c-14.3-5.3-30.1,1.5-35.4,15.8S502.5,287.9,516.8,293.2z"/>
	<path fill="#FFFFFF" d="M735,409.2c-7.9-13.2-24.3-17.4-37.5-9.5c-13.2,7.9-17.4,24.3-9.5,37.5c31.7,52.8,48.6,113.5,48.6,175.3
		c0,188-153.2,340.6-340.6,340.6c-188,0-340.6-152.7-340.6-340.6S208.6,272,396,272c15.3,0,27.5-12,27.5-27.4
		c0-15.4-12.2-27.5-27.5-27.5C178,217.1,1.1,393.9,1.1,612c0,217.5,176.8,394.9,394.9,394.9s394.9-176.8,395.5-394.4
		C791.5,540.7,772,470.4,735,409.2z"/>
	<path fill="#FFFFFF" d="M339,480.5c0-10.6-8.4-19-19-19h-68.1c-3.2-0.5-69.2-3.7-118.3,54.4c-15.8,18.4-25.9,62.3-15.3,85.5
		c5.3,11.6,15.9,18.5,28,18.5h85v183.8c0,10.6,8.4,19,19,19h292c10.5,0,19-9,18.4-19.1V619.9h85c12.2,0,22.7-6.8,28.6-18.1
		c10.6-23.2,0.5-67-15.3-85.5c-42.5-49.2-96.9-54-113.4-54.4c-1.3-0.3-2.6-0.4-3.9-0.4H472c-10.6,0-19,8.4-19,19
		c0,31.7-25.8,57-57,57C364.3,537.5,339,511.7,339,480.5z M152.6,581.5c-1-10.1,3.7-32.8,10.6-40.7c22.8-26.9,50.3-36.2,68.1-39.5
		v80.2H152.6z M629.4,541.2c6.4,8,11.7,30.1,10.6,40.7h-79.3v-80.3C578.5,504.8,606.3,514.2,629.4,541.2z M490,499.5h33.2v284.6
		H269.8l-0.1-182.4c0-0.4,0.1-0.8,0.1-1.2c0-0.4,0-0.9-0.1-1.3l0-99.7H303c9,43.3,47.5,76,93.5,76S481,542.8,490,499.5z"/>
	<path fill="#FFFFFF" d="M316.8,644.3h-2.6c-2.6,0-3.7,0.5-3.7,2.1v42.2c0,1,1.5,2.1,3.7,1.5h2.1c2.6,0,3.7-0.5,3.7-2.1v-26.4
		l17.4,26.9c0.5,1.1,2.1,1.6,4.2,1.6h2.6c2.6,0,3.7-0.5,3.7-2.1v-42.1c0-1.6-1.1-2.1-3.7-2.1h-2.1c-2.6,0-3.7,0.5-3.7,2.1v26.4
		L321,645.9C320.5,644.8,318.9,644.3,316.8,644.3z"/>
	<path fill="#FFFFFF" d="M366,691.5c2.1,0,3.7-0.5,5.8-1.6c2.1-1.1,3.7-2.1,4.2-3.7v1.1c0.5,0.6,0.5,1.1,0.5,1.1
		c0,0.6,0.5,0.6,0.5,1.1c0,0.6,0,1.1,0.5,1.1h1.6c1,0,2.6,0,4.2-0.5c1.5-0.5,2.6-1.1,2.6-1.6l-0.5-2.6c-0.5-2.1-0.5-4.3-0.5-6.9
		v-12.1c0-7.4-4.8-11.1-14.3-11.1c-3.7,0-6.4,0.5-9,1.6c-2.6,1.1-3.7,2.1-3.7,3.2c0,0.6,0,1.6,1.1,3.2c0.5,1.6,1.6,2.1,2.1,2.1
		s1.1,0,1.6-0.5c2.1-1.1,4.3-1.6,6.9-1.6c3.7,0,5.3,1.1,5.3,3.7v2.1c-5.8,0-10.5,1-13.7,2.6c-1.6,0.5-2.7,1.5-3.2,2.6
		c-1.1,1.1-1.6,2.1-1.6,3.2c-0.5,1.1-0.5,2.1-0.5,3.2c0,3.1,1,5.2,2.7,7.7C360.2,690.4,362.8,691.5,366,691.5z M375.4,675.3v3.7
		c-0.5,1.6-1.5,2.7-2.6,3.2c-1.1,0.6-2.1,1.1-3.2,1.1c-1,0-2-0.6-2.6-1.1c-0.6-0.5-1.1-1-1.1-2.1
		C365.9,676.9,368.5,675.4,375.4,675.3z"/>
	<path fill="#FFFFFF" d="M393.4,668v20.6c0,1,1,2.1,5.5,1.5h1.6c2.6,0,3.7-0.5,3.7-2.1v-21.1c1.6-2.6,3.2-3.7,5.3-3.7
		c2.6,0,3.7,1.6,3.7,4.2V688c0,1.6,1.1,2.1,3.7,2.1h1.6c2.6,0,3.7-0.5,3.7-2.1v-21.1c1.6-2.6,3.2-3.7,5.3-3.7c2.6,0,3.7,1.6,3.7,4.2
		V688c0,1.6,1.1,2.1,3.7,2.1h1.6c2.6,0,3.7-0.5,3.7-2.1v-22c0-3.7-0.5-6.3-2.1-7.9c-1.6-1.5-4.2-2.6-7.4-2.6c-2.1,0-4.2,0.5-5.8,1.6
		c-1.6,1.1-3.1,2.1-4.2,3.7c-1-3.2-3.6-4.8-8.4-4.8c-2.1,0-4.2,0.5-5.8,1.6c-1.6,1.1-3.1,2.1-4.2,3.7v-1.1c-0.5-0.6-0.5-1.1-0.5-1.1
		l-0.5-1.1c0-0.6,0-1.1-0.5-1.1h-1.6c-1,0-2.7,0-4.2,0.5s-2.6,1.1-2.6,1.6c0,0,0.5,1,0.5,2.1C393.4,662.2,393.4,664.8,393.4,668z"/>
	<path fill="#FFFFFF" d="M464.2,691.2c2.6,0,5.3,0,7.9-1.1c2.6-1.1,4.2-2.1,4.2-3.7c0-1.1,0-2.1-1.1-3.2c-0.5-1.6-1.6-2.1-2.1-2.1
		l-2.6,1.1c-2.1,0.6-3.6,1.1-5.8,1.1c-2.2,0-3.7-0.5-4.8-1.6c-1-1.1-2.1-2.7-2.1-5.3h16.9c0.5,0,1-0.5,2.1-1.6
		c1.1-1,1.6-1.6,1.6-2.1c0-4.7-1.1-8.9-3.7-12.1c-2.7-3.2-6.3-4.8-11.1-4.8c-4.7,0-9,1.6-11.6,4.2c-2.6,3.2-4.2,7.4-4.2,13.2
		s1.6,10,4.2,13.2C454.6,689.6,459.4,690.7,464.2,691.2z M463.5,663.2c1.6,0,3.2,0.5,3.7,1.6c0.6,1.1,1.1,2.7,1.1,4.8v0.5h-10.6
		C458.2,665.3,460.3,663.2,463.5,663.2z"/>
</g>
</svg>
