<?xml version="1.0" encoding="utf-8"?>
<!-- Generator: Adobe Illustrator 18.1.0, SVG Export Plug-In . SVG Version: 6.00 Build 0)  -->
<svg version="1.1" id="Capa_1" xmlns="http://www.w3.org/2000/svg" xmlns:xlink="http://www.w3.org/1999/xlink" x="0px" y="0px"
	 viewBox="0 219.9 792 783.5" enable-background="new 0 219.9 792 783.5" xml:space="preserve">
<g>
	<path fill="#FFFFFF" d="M515.8,295.8c20.1,7.4,39.6,17.4,58.1,28.5c4.3,3.1,9.5,4.2,14.3,4.2c9,0,17.9-4.8,23.3-13.1
		c7.9-12.7,3.7-29.6-9-37.5c-21.2-13.2-43.9-24.3-67.1-33.3c-14.3-5.3-30.1,1.5-35.4,15.8S501.5,290.5,515.8,295.8z"/>
	<path fill="#FFFFFF" d="M444.2,575.5c1,0,3.6-1.1,8.4-3.2c13.2-6.3,27.4-9.5,41.7-9.5c20.6,0,30.6,7.4,30.6,22.2v12.7
		c-36.5,0-63.9,5.3-82.4,16.4c-7.9,4.2-14.2,10-19,16.9c-4.8,6.8-7.9,13.7-9,19.5c-1.6,6.4-2.1,12.7-2.1,20.1
		c0,17.4,4.7,31.2,12.7,41.2c9,10.5,23.7,15.8,43.8,15.8c10.6,0,21.7-2.6,33.3-8.4s19.5-12.7,24.3-21.1c0.5,1.1,1.1,3.2,1.6,6.9
		c0.5,3.2,1.1,5.8,1.6,7.4s1,3.2,2.1,5.8c1,2.7,2.6,4.2,4.2,5.3c2.2,1.1,5.3,1.6,10.6,1.6s13.3-1.1,23.8-3.2s15.8-5.3,15.8-9.5
		l-2.1-15.8c-1.6-11.1-2.1-24.3-2.1-40.7v-73.4c0-43.9-28-65.5-84-65.5c-20.6,0-38.5,3.1-52.8,8.4c-14.2,5.8-21.6,12.1-21.6,19
		c0,4.7,2.6,11.1,7.4,19C435.8,571.3,440.5,575.5,444.2,575.5z M524.9,658c-3.2,6.8-8,12.6-14.3,17.4c-6.9,4.8-13.2,6.9-20.1,6.9
		c-6.9,0-12.1-1.6-15.3-4.8c-3.7-3.2-5.3-7.4-5.3-12.7c0-19,18-29,55-28.4V658z"/>
	<path fill="#FFFFFF" d="M367,471.1h13.7c8.4,0,15.3-6.9,15.3-15.3c0-8.4-6.9-15.3-15.3-15.3H367c-23.2,0-44.4,11.1-57.6,28
		c-13.2-16.9-34.3-28-57.6-28h-13.7c-8.4,0-15.3,6.9-15.3,15.3c0,8.4,6.9,15.3,15.3,15.3h13.7c23.2,0,42.2,19,42.2,42.2v89.2h-34.2
		v19H294v89.8c0,23.2-19,42.2-42.2,42.2h-13.7c-8.4,0-15.3,6.9-15.3,15.3s6.9,15.3,15.3,15.3h13.7c23.2,0,44.4-11.1,57.6-28
		c13.2,16.9,34.3,28,57.6,28h13.7c8.4,0,15.3-6.9,15.3-15.3c0-9-6.9-15.8-15.3-15.8H367c-23.2,0-42.2-19-42.2-42.2v-89.3H358v-19
		h-33.2v-89.2C324.8,490.1,343.8,471.1,367,471.1z"/>
	<path fill="#FFFFFF" d="M732.9,409.8c-7.9-13.2-24.8-17.4-37.5-9.5c-13.2,7.9-17.4,24.8-9.5,37.5c31.1,52.8,48,113,48,174.2
		c0,186.4-151.5,337.9-337.9,337.9S58.1,798.4,58.1,612S209.6,274.1,396,274.1c14.8,0,27.5-11.5,27.5-26.9
		c0-15.4-12.7-27.5-27.5-27.5C179.5,219.7,3.7,395.5,3.7,612s175.8,392.3,392.3,392.3S788.3,828.5,788.9,612
		C788.9,540.7,769.3,470.5,732.9,409.8z"/>
</g>
</svg>
