<?xml version="1.0" encoding="utf-8"?>
<!-- Generator: Adobe Illustrator 18.1.0, SVG Export Plug-In . SVG Version: 6.00 Build 0)  -->
<svg version="1.1" id="Capa_1" xmlns="http://www.w3.org/2000/svg" xmlns:xlink="http://www.w3.org/1999/xlink" x="0px" y="0px"
	 viewBox="0 0 481.3 280.7" enable-background="new 0 0 481.3 280.7" xml:space="preserve">
<g>
	<path d="M466.2,81.7c-8.4-10.3-24-23.3-51.3-28.1c0-1.3-0.1-2.6-0.1-3.8c-1.2-32.1-1.7-45.4-13.2-49C396.2-1,391,0.2,387.4,4
		c-7.6,7.9-6.7,27.5-2.8,47.9c-15.9,0.7-34.4,3.9-55.9,10.4c-3.8,1.2-6,5.2-4.8,9c1.2,3.8,5.2,6,9,4.8c21.7-6.5,39.8-9.4,55-9.9
		c2.9,11.7,6.5,22.9,9.5,31.2c1.8,4.9,4,10.6,6.6,16.5c1.6,32.3-6.6,57.4-23.8,73.1c-18.4,16.7-47.6,22.6-82.2,16.5
		c-30.6-5.4-52.3-31.4-59.6-68.4c6.8-4.5,14.8-9.3,23.4-13.2c-1,3.5-1.5,7.5-1.7,12c-0.8,18.5,4,32.7,13.7,40
		c3.4,2.6,8.6,5.1,15.5,5.1c3.4,0,7.2-0.6,11.4-2c8.4-2.9,14.8-9.2,18.7-18.4c4.8-11.5,5.1-25.8,3.5-37.1c2.5-2.3,4.9-4.9,7.1-7.7
		c1.9,13.9,3.1,33.3-0.8,45.6c-1.2,3.8,0.9,7.9,4.7,9.1c3.8,1.2,7.9-0.9,9.1-4.7c4.4-13.6,3.7-31.8,2.3-44.6c0-0.3-0.1-0.8-0.1-1.3
		c0.4-0.6,0.7-1.2,0.9-1.9c0.1-0.2,6-20.3,18.9-17.6c9.2,2,7.5,30.2,6.4,47.1c-0.4,5.7-0.7,11.1-0.8,15.9c-0.1,4,3.1,7.3,7.1,7.4
		c0,0,0.1,0,0.1,0c3.9,0,7.2-3.2,7.2-7.1c0.1-4.5,0.4-9.7,0.8-15.3c1.6-25.6,3.6-57.5-17.8-62.2c-11.9-2.6-20.8,3.1-26.9,10.7
		c-0.8-2.7-1.8-4.9-2.8-6.1c-1.9-2-4.5-2.9-7.2-2.3c-2.6,0.6-4.7,2.6-5.5,5.3c-1.5,4.9-4,9.4-7,13.3c-4.9-8.9-17.6-14-27.8-10.9
		c-3.6,1.1-7,3.4-9.5,6.9c-1-0.2-2.1-0.3-3.2,0c-14.9,3.3-29.6,10.8-41.6,18.2c-0.6-7.1-0.7-14.5-0.2-22.2c0.5-8.1,1.6-15.4,3.3-22
		c31.3,1,65.7-11.5,78.7-29.5c5.9-8.2,7-17.1,3.1-25.2c-4.7-9.8-19.1-14.2-35.9-10.9c-15.4,3-29.9,11.7-40.9,24.5
		c-6.4,7.4-11.5,16-15.3,25.6c-8.5-1.2-18.2-2.8-28.3-4.5C141,45,59.1,31.1,17.2,77.6C4,92.3-2.4,113.5,0.8,131.7
		c2.4,13.5,10,24.3,21.4,30.4c1.6,1,7.5,4.1,17.6,4.8c5.8,14,18.6,25.6,38.2,25.6c1.8,0,14.8-0.2,24.9-9.9c3-2.9,5.4-6.3,7.3-10.3
		c7.1,6.7,17.2,9.4,28.4,7.4c1.1-0.2,2.3-0.5,3.4-0.8c1.5,6.1,3,12.1,4.1,18c-25.2,14.6-37.3,34.7-40.1,50.7
		c-2.1,12.1,0.9,22.8,8.1,28.6c2.4,2,6.8,4.5,13,4.5c3.2,0,6.8-0.6,11-2.3c16.4-6.7,25.7-21.7,26.8-43.6c0.7-13.8-2.1-26.1-2.8-28.8
		c0-0.3-0.1-0.7-0.1-1c3.2-1.4,6.5-2.8,10.1-4c3.8-1.3,5.8-5.4,4.4-9.2c-1.3-3.8-5.4-5.8-9.2-4.4c-2.7,1-5.4,2-7.9,3
		c-1.3-6.3-2.9-12.6-4.5-18.9c5.3-4.9,9.6-11.7,12.4-20c4.4-12.8,5.5-30.7-2.5-39.7c-3.7-4.2-9-5.9-14.5-4.6
		c-5.7,1.3-10.3,4.4-13.2,9.1c-6.8,11-3.7,28.4,1.2,48.9c-0.8,0.3-1.6,0.5-2.4,0.6c-7.4,1.3-13.5-0.5-17.3-5.2
		c-6.4-8.1-5.5-23.7,2.3-41.6c1.6-3.7-0.1-7.9-3.7-9.5c-3.7-1.6-7.9,0.1-9.5,3.7c-5.8,13.2-8.3,25.6-7.6,36.1
		c-0.1,0.5-0.2,1-0.2,1.6c0,9.7-2.3,16.9-7,21.5c-6.1,6-14.6,5.9-14.7,6c-0.1,0-0.2,0-0.3,0c0,0,0,0,0,0c-10.9,0-18.1-5.2-22.4-11.9
		c4.3-0.7,8.9-1.8,14-3.4c20.6-6.6,27.6-24.3,23.7-37.7c-3.6-12.6-15.6-19-29-15.6l-0.7,0.2c-17.9,5-28.9,22.1-27.4,42.2
		c-4.2-0.8-6.4-2-6.5-2.1c-0.2-0.1-0.4-0.2-0.5-0.3c-9.6-5.1-13-13.8-14.1-20.3c-2.4-13.8,2.8-30.6,12.9-41.9
		c36.6-40.6,113.9-27.5,170.3-17.9c9.4,1.6,18.3,3.1,26.4,4.3c-1.7,7.1-2.7,14.6-3.2,22.6c-0.6,11.2-0.3,22,1.1,32.2
		c-8.1,5.9-13.3,10.5-13.8,11c-3,2.7-3.2,7.2-0.6,10.2c1.4,1.6,3.4,2.4,5.4,2.4c1.7,0,3.4-0.6,4.8-1.8c0.1-0.1,2.7-2.4,7.2-5.9
		c9.6,39.5,34.9,67.2,69.9,73.4c9.8,1.7,19.2,2.6,28.1,2.6c27,0,49.9-7.7,66.3-22.6c15.3-13.9,24.6-33.6,27.6-57.9
		c8.2,12.7,18.1,22.7,29.1,23.9c12.2,1.3,22.9-4.7,29.2-16.3C484.5,131.2,484,103.5,466.2,81.7z M399.3,51.9
		c-3.8-18.9-4.1-32.5-2.1-36.9c2,4.3,2.6,19.4,3.2,35.3c0,0.5,0,1.1,0.1,1.6C400.1,52,399.7,51.9,399.3,51.9z M294.7,107.9
		c0.7-0.2,1.4-0.3,2.1-0.3c3.5,0,7.6,2,8.8,4.5c0.4,0.8,0.8,2,1.2,3.3c-4.2,2.7-8.2,4.1-11.2,3.9c-1.2-0.1-2.8-0.2-3.4-4.2
		C291.5,108.9,293.8,108.2,294.7,107.9z M294.7,133.8c4.6,0.3,9.5-0.8,14.5-3.1c0.3,7.4-0.4,15.5-3.2,22.2c-2.3,5.4-5.6,8.8-10,10.3
		c-5.6,1.9-10.2,1.6-13.6-0.9c-5.6-4.2-8.6-14.6-8-27.7c0.4-8.5,2.3-12.9,4.1-14.8C280.6,128,286.5,133.2,294.7,133.8z M288.1,23.8
		c2.9-0.6,5.6-0.8,8-0.8c6.7,0,11.1,1.9,12,3.8c1,2,1.8,5.3-1.8,10.4c-8.7,12.1-35.3,23.2-62,23.5C254.4,38.4,271.9,27,288.1,23.8z
		 M132.7,265c-2.9,1.2-6.9,2.1-9.5,0c-2.9-2.4-4.1-8.2-2.9-14.8c2-11.7,10.7-26.3,28.5-37.9C150.9,222.5,155.6,255.7,132.7,265z
		 M149.5,123.7c0.6-1,1.5-2,4-2.6c0.2-0.1,0.4-0.1,0.4-0.1c1.3,0.8,3.7,7.4,1.7,18.3c-0.8,4.6-2.5,9.7-5,14.2
		C147.9,140.6,146.3,128.9,149.5,123.7z M67.5,123.7l0.5-0.1c1.3-0.3,2.5-0.5,3.6-0.5c5.5,0,7.3,4.1,7.9,6.1
		c1.6,5.7-0.8,15.6-14.2,19.9c-5.5,1.7-10.3,2.7-14.5,3.2C49.5,140.6,54.1,127.4,67.5,123.7z M463.1,140.4c-2.4,4.5-7,9.7-14.9,8.8
		c-6.9-0.7-18.3-13.1-29.9-38.8c-0.1-1-0.1-2-0.2-3c-1.2-14.9-1.9-27.8-2.4-39c20.9,4.4,32.9,14.4,39.4,22.4
		C465.2,103.3,471.4,124.9,463.1,140.4z"/>
	<path d="M193.4,161.4C193.5,161.4,193.5,161.4,193.4,161.4c1.6-0.2,2.7-1.4,2.9-2.9c0.1-1.6,3.3-39.2,2.8-49.4
		c-0.2-3.9-1.6-7.1-4-9.1c-1.9-1.6-4.3-2.3-6.7-2.1c-4.2,0.5-7.7,3.8-9.4,8.8c-3.2,9.8,8.7,45.5,11.1,52.6
		C190.5,160.7,191.9,161.6,193.4,161.4z"/>
	<circle cx="195.9" cy="184.4" r="7.1"/>
	<circle cx="310.1" cy="75.4" r="7.1"/>
</g>
</svg>
