<?xml version="1.0" encoding="utf-8"?>
<!-- Generator: Adobe Illustrator 18.1.0, SVG Export Plug-In . SVG Version: 6.00 Build 0)  -->
<svg version="1.1" id="Capa_1" xmlns="http://www.w3.org/2000/svg" xmlns:xlink="http://www.w3.org/1999/xlink" x="0px" y="0px"
	 viewBox="0 0 682.8 682.3" enable-background="new 0 0 682.8 682.3" xml:space="preserve">
<path fill="#FFFFFF" d="M682.7,312.9c-6.2-50.1-21.3-96.6-45-138.1c-19-33.2-43.4-63.3-72.6-89.4c-49.8-44.5-96-62.1-98-62.8
	C423.6,6.7,379.3-0.9,335.4,0c-36,0.8-71.9,7.2-106.5,19.2C169.3,39.9,129.1,71.6,118.6,82c-48,48-30.5,87.9-27.5,93.8
	c11.6,23.9,30.6,40.5,55.3,48.7c-17.2,38.3-25.5,77.8-24.8,118c1.2,63.5,24.8,113.7,44.3,144.6c0.2,0.3,0.4,0.5,0.6,0.8
	c8.8,12,30.3,40.6,40.5,47.6c7.5,5.1,15.9,7.6,24.1,7.6c10.1,0,19.9-3.8,27.1-11.3c12.1-12.6,12.4-30.9,0.7-46.7
	c-9-12.2-27.6-22.8-47.3-34c-18.7-10.6-41.9-23.8-47-34.3c-0.4-0.8-0.8-1.5-1.3-2.1c-2.7-8-5.1-16.6-7.1-25.6c0.6-1.9,0.9-4,0.7-6.1
	c0-0.1-1-10.9,0.7-24.6c1.5-12.2,5.6-29.1,16.1-40.6c8.9-9.7,21.1-14.3,37.4-14.1c7.3,0.1,10.7,2.7,12.8,4.9
	c12.6,13.5,10.3,52.2,8.7,77.8c-0.5,7.7-0.9,14.9-1,21.1c0,0.6,0,1.1,0,1.7c0.3,11,6.2,20.4,15.9,25.2c10.8,5.3,24.4,3.9,34.7-3.6
	c3.2-2.3,7.1-5.2,11.4-8.6c11.1,9.8,25.9,15.1,43.3,15.3c0.5,0,1,0,1.6,0c32.5,0,53-13.1,65.6-27c0.2,0.4,0.4,0.8,0.5,1.1
	c8.6,16.6,23.6,26.2,43.4,27.7c1.4,0.1,2.9,0.2,4.4,0.2c14.3,0,32.1-5.4,47.9-25.8c-1,16-2.9,31.3-5.9,45.5
	C340.7,468,329.7,550,329.3,553.8c0,0.2,0,0.4-0.1,0.7c-1.2,18,5.9,33,19.8,42.1c14.4,9.4,32.5,10.5,45.1,9.8
	c15.1-0.9,30.4-4.8,41.8-10.7c38.5-19.9,66.5-57.1,81.4-108c6.2-0.1,12.2,0,17.9,0.2c0.1,0,0.3,0,0.4,0c0,0,0,0,0,0
	c0.5,0,47.2,1,51,24.5c0.9,5.8-4.9,23-24.8,46.5c-20.9,24.6-49.6,47.2-80.9,63.6c-38.7,20.3-79.3,30.7-120.8,30.8
	c-0.4,0-0.8,0-1.2,0c-76.8,0-154-25.9-212.2-71.2c-33.8-26.4-60.9-58.9-80.6-96.6c-22-42.3-34.5-91.2-37.3-145.3
	c-0.4-8-7.3-14.2-15.2-13.7c-8,0.4-14.1,7.2-13.7,15.2c5.8,111,50.4,202,129,263.3c63.1,49.2,146.9,77.3,230,77.3c0.4,0,0.9,0,1.3,0
	c99.8-0.4,181-54.3,223.7-104.7c10.8-12.7,35.3-44.9,31.3-69.9c-2.4-14.6-12.1-34.1-45.2-43.8c-16.5-4.8-32.1-5.1-34.3-5.1
	c-4-0.1-7.8-0.2-11.6-0.2c6.2-33.6,7.5-71.4,4-111.9c0-0.2,0.1-0.4,0.1-0.4c0.5-2.8,0.1-5.4-0.9-7.9c-1.6-15.9-4-32.1-7.1-48.7
	c-1.5-7.9-9-13.1-16.9-11.6c-7.9,1.5-13.1,9-11.6,16.9c3.2,17.1,5.6,33.7,7.1,50c-3.2,14.5-17.3,67.8-48.7,65.4
	c-9.6-0.7-16-4.6-19.9-12.2c-8.8-17-3.9-51.2,11-76.2c4.1-6.9,1.9-15.8-5-19.9s-15.8-1.9-19.9,5c-8,13.4-14.4,30.1-17.5,47.2
	c-0.7,1.5-1.3,3.1-1.5,4.9c0,0.1-1.8,13.4-10.4,26c-10.7,15.8-27.5,23.6-49.9,23.4c-8.3-0.1-15.1-1.8-20.7-5.3
	c21.5-18.8,45.4-43.3,58.1-68.2c10.6-20.8,6.2-44.1-10.8-56.5c-14.2-10.4-39.6-13.9-64.9,10.8c-25.6,25-35.8,74.7-22.3,108.6
	c0.1,0.2,0.1,0.4,0.2,0.5c-4.9,3.8-9,6.9-11.9,8.9c-1.9,1.4-3.7,1.3-4.5,1.1c0-0.2,0-0.4,0-0.6c0.1-5.5,0.5-12.4,0.9-19.7
	c2.1-34.2,4.6-76.7-16.4-99.3c-8.5-9.1-20.1-14-33.6-14.2c-23.7-0.3-43,7-57.4,21.7c3.7-21.2,10.6-43.4,21.7-66.5
	c20.3,1.1,42.2-2.4,63.1-10.5c19.4-7.4,36.4-18.2,47.9-30.3c14.2-15,19.6-31.7,15.2-47.1c-4.1-14.4-11.6-24.2-22.3-29.3
	c-11.9-5.7-26.4-4.7-44.3,2.9c-15.6,6.6-32.9,21-46.3,38.5c-11.2,14.5-21,29.2-29.4,44.1c-19.5-5.2-33.8-17-42.6-35.1
	c-0.2-0.4-0.2-0.4-0.4-0.7c-1.1-2.3-11.2-26.2,22.3-59.8c8.5-8.5,45.1-37.2,99.2-55.9c31.8-11,64.7-17,97.7-17.7
	c40.3-0.9,81.1,6.2,121.1,20.8c0.4,0.2,43,16.3,88.8,57.2c26.9,24,49.3,51.7,66.7,82.2c21.8,38.1,35.7,81,41.4,127.2
	c1,7.9,8.2,13.6,16.2,12.6C678.1,328.1,683.7,320.9,682.7,312.9z M197.3,476.3c15.4,8.8,32.9,18.7,38.3,26c2.1,2.9,4.1,6.8,1.7,9.4
	c-2.1,2.2-7.8,4.1-13.9-0.1c-4.4-3.1-19.6-22-31.8-38.5C193.5,474.1,195.4,475.2,197.3,476.3z M422.7,569.9
	c-19.3,10-46.9,9.5-57.8,2.4c-3.4-2.2-7.2-6-6.8-15.4c0.5-2.6,4.1-18.8,24.6-34.9c26.6-21,66.1-29.9,103.8-32.9
	C473.4,527.2,451.6,554.9,422.7,569.9z M319.4,310.1c7-6.8,14.2-10.4,20.3-10.4c2.7,0,5.1,0.7,7.2,2.2c6.2,4.6,5.5,13.3,2.1,20
	c-10.1,19.8-29.7,40.2-47.8,56.4C296.2,354.1,305.7,323.5,319.4,310.1z M212,171.8c8.1-10.6,21.5-23.9,34.7-29.5
	c7.7-3.3,12.7-4.2,16-4.2c2.2,0,3.6,0.4,4.5,0.8c3.5,1.7,5.7,7,6.9,11.1c3.1,10.8-14.4,30.5-45.5,42.4c-12,4.6-24.6,7.4-36.7,8.4
	C197.8,191.2,204.5,181.5,212,171.8z"/>
</svg>
