<?xml version="1.0" encoding="utf-8"?>
<!-- Generator: Adobe Illustrator 18.1.0, SVG Export Plug-In . SVG Version: 6.00 Build 0)  -->
<svg version="1.1" id="Capa_1" xmlns="http://www.w3.org/2000/svg" xmlns:xlink="http://www.w3.org/1999/xlink" x="0px" y="0px"
	 viewBox="0 0 1013.7 483.7" enable-background="new 0 0 1013.7 483.7" xml:space="preserve">
<path fill="#E73332" d="M994.4,165.4c-16.6-23.1-43-41.5-76.8-53.5c0-1.2,0-2.4,0-3.6c0.1-23.2-1.1-44-3.4-60.2
	c-3.1-22-7.8-33.2-16-38.3c-0.1-0.1-0.2-0.1-0.2-0.2c-5.8-3.5-16.2-5.5-26.4,0.3c-17.2,9.9-26.4,37.9-28.3,87.4
	c-20.2-1.1-40.6,0-60.2,3.2c-50.6,8.5-88.3,4.5-107.5-11c6.1-1,12.4-3.3,18-7.7c13.7-10.8,15.6-28.4,14.8-41.3
	c-1-15.1-8.2-23.2-14-27.2c-12.9-8.9-27.8-5.4-32-4.1c-13.6,4.1-24.2,15.5-27.7,29.6c-6.1,25-0.5,49.2,15.4,66.4
	c25,26.9,71.3,35,137.8,23.8c17.9-3,36.6-3.9,55.1-2.8c0,0.2,0,0.5,0,0.7c0.5,34.5,4.5,90,23.2,134.5c-2,5.3-4.2,10-6.4,14.2
	c-4.9,9-12.6,19.7-21.8,19.7c-11,0-14.2-4.1-14.7-4.8c-0.1-0.3-0.3-0.5-0.4-0.8c-5.9-11.1-5.7-30.5-5.5-49.3
	c0.3-26.5,0.5-51.5-14.5-66.7c-7.4-7.5-17.4-11.3-29.6-11.3c-16.3,0-30.8,4.6-42.8,13.4c-0.4-4.8-3.1-9.3-7.7-11.7
	c-7.1-3.8-15.9-1.1-19.6,6c-2.7,5.1-4.7,11.9-6.2,20.2c-3.7,5.7-8.3,10.9-13.7,15.7c-5.4-25.4-20.1-43.1-40.8-48.8
	c-19.9-5.4-41.6-1.2-57.9,11.3c-11.2,8.5-18.7,20.2-21.7,33.1c-23.2,4.4-43.8,12.3-61.4,23.6c27-46.2,43.9-90.1,50.4-130.8
	c4.1-25.6-2.3-48.7-16.6-60.3c-9-7.2-20-9.1-30.3-5.1c-11.9,4.6-27.3,18.6-33.4,59.1l0,0.3c-9.4,62.2-11.8,110-10.2,146.6
	c-8.2,12.7-16.4,24.3-24.1,34.6c1.3-13.6,1.9-26.8,2-39.2c0.1-1.1,0.1-1.8,0.1-2.1c0-0.9,0-1.7-0.1-2.5c-0.2-20.2-2.1-38.6-5.9-53.9
	c-1.9-7.8-9.7-12.6-17.5-10.7c-7.8,1.9-12.6,9.7-10.7,17.5c3.4,14,5.1,31.4,5,50.8c-0.3,3.9-1.2,12-3.6,21.4
	c-2.8,11.1-8.2,26.3-18.4,35.5c-6.9,6.3-15.2,9.1-25.4,8.6c-10.1-0.5-16.8-4.9-20.9-13.7c-3.8-8.1-5-19-3.9-30.4
	c0.3-1.7,0.4-2.9,0.5-3.3c0-0.3,0-0.6,0-0.8c2.1-14,7.5-28.4,15.6-39.4c4.8-6.4,3.4-15.5-3-20.3c-6.4-4.8-15.5-3.4-20.3,3
	c-10.3,13.9-17.7,31.9-20.7,50.7c-0.3,1.8-0.5,3.6-0.7,5.4c-0.7,3.9-3.1,14.4-9.8,24.5c-10.5,15.9-27.2,24-49.6,24
	c-8.3,0-15.2-1.7-20.7-5c21.2-19,44.8-43.9,57.2-69c10.3-20.9,5.6-44.1-11.5-56.4c-14.3-10.2-39.8-13.4-64.8,11.6
	c-25.3,25.3-34.8,75.1-20.9,108.8c0.1,0.2,0.1,0.3,0.2,0.5c-4.9,3.9-9,7-11.8,9.1c-1.9,1.4-3.7,1.4-4.5,1.2c0,0,0,0,0,0
	c0-0.2,0-0.4,0-0.6c0-5.5,0.3-12.4,0.7-19.7c1.6-34.2,3.6-76.7-17.7-99.1c-8.6-9-20.3-13.8-33.8-13.8c-21.5,0-39.6,6-53.9,17.8
	c4.1-20,10.4-39.4,18.9-58.3c20.1,0.8,41.7-3.1,62.4-11.3c19.3-7.7,36.2-18.7,47.5-30.9c14-15.2,19.2-32,14.6-47.3
	c-4.3-14.3-11.9-24.1-22.7-29c-12-5.5-26.5-4.4-44.3,3.5c-15.5,6.8-32.6,21.4-45.8,39.1C88.5,60.4,79,75.3,70.8,90.6
	C51.1,85.7,36.6,74,27.5,55.9C23.9,48.7,15.2,45.8,8,49.4S-2,61.7,1.5,68.9c12,24,31.5,40.5,56.6,48.3c-10.8,25.6-18,52.2-21.6,79.7
	c-7.3,56.5,2.7,102.1,12.5,130.3c2.1,6,7.7,9.8,13.7,9.8c1.6,0,3.2-0.3,4.7-0.8c7.6-2.6,11.6-10.9,9-18.4c-4.8-14-9.7-32.8-12-55.4
	c0.1-0.6,0.1-1.2,0.1-1.9c0-0.3-0.4-34.5,18.9-54.3c9.6-9.9,22.4-14.7,39.3-14.7c7.3,0,10.7,2.6,12.8,4.8
	c12.8,13.4,10.9,52.1,9.7,77.7c-0.4,7.7-0.7,14.9-0.7,21.1c0,0.6,0,1.1,0,1.7c0.4,11,6.5,20.3,16.2,25c4.2,2,8.9,3,13.6,3
	c7.3,0,14.8-2.4,21-7c3.2-2.4,7-5.3,11.3-8.7c11.3,9.7,26.1,14.8,43.5,14.8c33.3,0,54-13.4,66.7-27.7c9,17.2,24.7,27.1,44.6,28.1
	c1.3,0.1,2.6,0.1,3.8,0.1c13.8,0,26-3.8,36.6-11.4c0,0.2-0.1,0.4-0.1,0.7c-1.2,1.3-2.1,2.3-2.8,3c-6,4-28.5,19.6-51.2,39.7
	c-37.6,33.4-55.5,61.2-54.6,84.9c0.4,11,5.2,26.4,25.6,37.7c5.7,3.2,11.7,4.7,17.8,4.7c8.7,0,17.5-3.2,25.9-9.6
	c13.1-10,25.5-28,37-53.4c10.2-22.5,19.2-50.1,26.1-79.9c1.1-4.6,2.1-9.2,3-13.8c3.5-4,7.9-9.1,12.8-15.2c-0.1,0.5-0.2,0.9-0.3,1.4
	c-5.7,26-8.8,55.1-8.6,79.7c0.3,33.7,6.8,57.5,19.3,70.6c9.3,9.7,21.6,13.6,35.5,11.2c13.1-2.3,23.6-9.7,30.3-21.4
	c21-36.8-0.2-106.4-14.6-144.7c-3.6-9.4-7-21.9-9.4-38.2c3.5-4,7.3-7.8,11.4-11.3c12-10.2,26.4-18.1,42.9-23.5
	c-2,6.5-3.6,14.1-4.5,23c-3,29.1,9.1,56.8,30.2,69c11.4,6.6,35.4,14.1,67.7-9.4c26.8-19.5,40.1-49.3,43.5-76.8c3-1.9,6-3.9,8.9-6
	c-0.2,6.1-0.2,12.5-0.3,19.3c-0.3,3.6-0.4,5.8-0.4,6.1c0,1.1,0.1,2.2,0.3,3.3c0,7.7,0,15.8,0.1,24.3c0,7.3,0.1,14.4,0.1,21.2
	c0,8,6.5,14.5,14.5,14.5s14.5-6.5,14.5-14.5c0-6.8,0-14-0.1-21.3c-0.1-9.7-0.1-20.7-0.1-31.9c0.6-6.8,2.5-19.4,7.4-31.7
	c8.9-22.1,23.2-32.8,43.7-32.8c6.3,0,8.2,1.9,9,2.7c6.6,6.6,6.3,28.5,6.2,46c-0.2,22.2-0.5,45.2,8.6,62.8c2.3,5,12.3,21.5,40.9,21.5
	c18,0,33.2-10.6,45.4-31.6c2.4,3.3,5,6.5,7.7,9.4c13.9,15.4,34.6,23,55.4,20.4c21.2-2.6,39.1-14.9,49.2-33.7
	C1026.6,231.3,1012.1,190,994.4,165.4z M661.4,60.9c-0.3-5.9,0.6-11.2,1.5-15c1-4.2,4.1-7.6,8-8.8c2.5-0.8,5.9-0.7,7.1,0.2
	c0.8,0.5,1.4,2.6,1.6,5.2c0.3,4.8,0.2,13.4-3.8,16.6C672.4,61.8,665.9,61.7,661.4,60.9z M122.5,63.4c8-10.7,21.2-24.2,34.3-29.9
	c7.8-3.4,12.9-4.4,16.2-4.4c2,0,3.4,0.4,4.2,0.8c3.6,1.6,5.8,6.9,7,11c3.3,10.8-14,30.6-45,42.9c-11.9,4.7-24.4,7.7-36.4,8.8
	C108.8,82.7,115.4,72.9,122.5,63.4z M213.6,265c-5.4-24.2,3.8-54.9,17.3-68.5c6.9-6.9,14.3-10.7,20.3-10.7c2.6,0,5,0.7,7,2.1
	c6.3,4.5,5.7,13.3,2.4,20C250.8,227.9,231.5,248.6,213.6,265z M344.9,451c-7,5.3-10.1,3.6-12,2.5c-9.2-5.1-10.5-9.8-10.7-13.4
	c-0.3-6.4,3.6-25.4,44.6-61.9c8.4-7.5,16.9-14.3,24.4-20.1C378.3,403.5,360.9,438.8,344.9,451z M492.4,438.8
	c-2.4,4.2-5.4,6.4-10,7.2c-5,0.9-7.4-0.4-9.6-2.7c-3.3-3.4-11-15.2-11.3-50.8c-0.2-22.2,2.8-49.6,7.9-73.3c0.8-3.7,1.8-7.3,2.9-10.8
	c1.1,3.7,2.3,7.1,3.5,10.3C496.4,373.2,502.9,420.3,492.4,438.8z M490.7,184.7c1.3-26,4.3-56.4,9.7-91.9l0-0.3
	c3.9-25.6,11.7-35,15.2-36.4c0.1,0,0.2-0.1,0.3-0.1c0.2,0,0.6,0.1,1.3,0.7c4.1,3.3,9.2,14.9,6.2,33.2
	C518.2,122.4,505.8,154.9,490.7,184.7z M624.1,294.6c-10,7.3-24.4,14.5-36.1,7.7c-11-6.3-17.6-23.5-15.8-40.9
	c0.6-5.7,1.5-10.7,2.7-14.9c5.4,5.1,12.5,9.1,20.9,11.6c15.7,4.7,35.8,3.8,56-2.1C646.7,270.7,637.6,284.8,624.1,294.6z
	 M651.7,225.4c-17.5,6.8-35.3,8.7-47.7,5c-9.9-3-12.6-8.3-13.2-13.3c0.4-1.8,0.4-3.8,0-5.7c1.1-10.2,7.6-16.7,11.6-19.8
	c9.1-6.9,21.6-9.4,32.7-6.4c14.4,3.9,19.1,21.3,20.4,28.6c0.6,3,0.9,6.2,1.1,9.5C654.9,224.1,653.3,224.8,651.7,225.4z M887.9,137.3
	c-1.3,25.4-3.9,49.3-7.6,70.5c-4.8-22.9-7.6-49.2-8.1-78c5.4,1,10.7,2.1,15.9,3.4C888,134.6,887.9,136,887.9,137.3z M872.3,100.5
	c1.3-39.5,7.1-55.5,10.8-61.7c2.7,10.6,5.5,32.7,5.6,64.8C883.3,102.4,877.8,101.3,872.3,100.5z M970.1,275.3
	c-5.6,10.4-15.5,17.2-27.1,18.6c-11.6,1.4-22.7-2.6-30.4-11.1c-5.5-6.1-10.6-13.7-15.1-22.6c0.8-2.6,1.7-5.3,2.5-8.1
	c8.5-29.4,14.4-68.6,16.6-109.4c23.8,9.9,42.7,23.6,54.3,39.7C989.5,208.3,989.3,239.6,970.1,275.3z"/>
</svg>
