<svg width="78" height="78" viewBox="0 0 78 78" fill="none" xmlns="http://www.w3.org/2000/svg">
<path d="M58.5 26H61.75C65.1978 26 68.5044 27.3696 70.9424 29.8076C73.3804 32.2456 74.75 35.5522 74.75 39C74.75 42.4478 73.3804 45.7544 70.9424 48.1924C68.5044 50.6304 65.1978 52 61.75 52H58.5" stroke="#7A8FFF" stroke-width="6" stroke-linecap="round" stroke-linejoin="round"/>
<path d="M6.5 26H58.5V55.25C58.5 58.6978 57.1304 62.0044 54.6924 64.4424C52.2544 66.8804 48.9478 68.25 45.5 68.25H19.5C16.0522 68.25 12.7456 66.8804 10.3076 64.4424C7.86964 62.0044 6.5 58.6978 6.5 55.25V26Z" stroke="#7A8FFF" stroke-width="6" stroke-linecap="round" stroke-linejoin="round"/>
<path d="M19.5 3.25V13" stroke="#7A8FFF" stroke-width="6" stroke-linecap="round" stroke-linejoin="round"/>
<path d="M32.5 3.25V13" stroke="#7A8FFF" stroke-width="6" stroke-linecap="round" stroke-linejoin="round"/>
<path d="M45.5 3.25V13" stroke="#7A8FFF" stroke-width="6" stroke-linecap="round" stroke-linejoin="round"/>
</svg>
