<svg width="1578" height="1081" viewBox="0 0 1578 1081" fill="none" xmlns="http://www.w3.org/2000/svg">
<mask id="mask0" mask-type="alpha" maskUnits="userSpaceOnUse" x="0" y="0" width="1578" height="1081">
<rect width="1578" height="1081" fill="white"/>
</mask>
<g mask="url(#mask0)">
<path opacity="0.13" d="M119.408 145.621C123.708 221.721 166.408 297.821 235.808 329.521C311.408 364.121 399.808 342.121 482.208 352.821C597.708 367.821 700.908 453.922 736.408 564.922C755.408 624.322 756.608 689.722 786.008 744.722C819.408 807.122 889.308 848.022 960.008 846.622C1044.91 844.922 1123.31 787.722 1207.91 794.922C1287.41 801.622 1350.31 862.721 1403.11 922.521C1455.91 982.321 1511.01 1047.72 1587.91 1068.62C1649.11 1085.22 1715.91 1069.92 1770.61 1037.72C1825.31 1005.52 1869.11 957.722 1907.11 906.922C1966.51 827.622 2014.71 736.422 2024.41 637.822C2042.51 454.522 2207.71 151.322 2116.31 -8.6785C2064.31 -99.6785 1897.31 -407.679 1636.01 -464.779C826.008 -641.579 683.008 -179.778 587.308 -154.078C501.908 -131.178 412.808 -130.479 325.808 -116.879C287.008 -110.779 235.308 -104.879 201.608 -83.2785C176.608 -67.2785 160.608 -24.4785 148.808 1.52151C128.408 46.5215 116.608 96.0215 119.408 145.621Z" stroke="#5B6BB2" stroke-width="0.25" stroke-miterlimit="10"/>
<path opacity="0.1423" d="M601.908 -152.879C517.608 -130.179 429.808 -129.279 343.908 -115.879C323.008 -112.579 298.308 -109.379 274.708 -103.679C255.108 -98.9785 236.308 -92.4785 221.208 -82.7785C196.508 -67.0785 180.708 -24.7785 169.008 0.821472C148.908 45.2215 137.208 94.0214 139.908 142.921C144.008 218.021 186.108 293.121 254.508 324.521C329.008 358.721 416.208 337.121 497.608 347.821C611.608 362.721 713.508 447.722 748.608 557.122C767.408 615.722 768.608 680.222 797.608 734.422C830.608 795.922 899.608 836.322 969.308 834.922C1053.11 833.222 1130.41 776.921 1213.91 784.021C1292.31 790.621 1354.41 850.922 1406.61 909.822C1458.71 968.722 1513.11 1033.22 1589.01 1053.72C1649.41 1070.02 1715.31 1054.92 1769.21 1023.02C1823.11 991.221 1866.31 944.022 1903.81 893.922C1962.41 815.622 2009.81 725.722 2019.41 628.322C2024.61 575.322 2042.21 512.221 2062.31 445.521C2110.81 284.321 2173.61 102.021 2109.71 -9.57852C2058.41 -99.3785 1893.71 -402.979 1636.01 -459.279C837.508 -633.579 696.308 -178.279 601.908 -152.879Z" stroke="#5B6BB2" stroke-width="0.2887" stroke-miterlimit="10"/>
<path opacity="0.1545" d="M616.508 -151.578C533.408 -129.078 446.808 -128.078 361.908 -114.778C341.308 -111.578 316.908 -108.378 293.608 -102.778C274.308 -98.0784 255.708 -91.7784 240.808 -82.1784C216.408 -66.6784 200.808 -25.0784 189.208 0.221558C169.208 44.0216 157.608 92.0216 160.308 140.322C164.308 214.422 205.708 288.522 273.108 319.622C346.508 353.422 432.608 332.222 512.908 342.922C625.308 357.722 725.908 441.522 760.808 549.422C779.408 607.222 780.608 670.822 809.308 724.222C841.908 784.822 909.908 824.722 978.808 823.322C1061.51 821.722 1137.81 766.222 1220.21 773.122C1297.61 779.622 1358.91 839.022 1410.31 897.122C1461.81 955.222 1515.41 1018.72 1590.31 1038.92C1649.91 1055.02 1714.81 1039.92 1768.01 1008.52C1821.11 977.121 1863.71 930.521 1900.71 881.021C1958.41 803.821 2005.21 715.021 2014.61 619.021C2019.71 566.721 2037.11 504.522 2056.81 438.622C2104.51 279.622 2166.51 99.7215 2103.41 -10.3784C2052.81 -98.8784 1890.31 -398.178 1636.31 -453.678C848.808 -625.478 709.508 -176.678 616.508 -151.578Z" stroke="#5B6BB2" stroke-width="0.3275" stroke-miterlimit="10"/>
<path opacity="0.1668" d="M631.008 -150.379C549.008 -128.079 463.708 -126.979 379.908 -113.879C359.508 -110.679 335.508 -107.579 312.508 -102.079C293.408 -97.4786 275.108 -91.1786 260.408 -81.8786C236.308 -66.5786 220.908 -25.5786 209.408 -0.678589C189.608 42.4214 178.208 89.8214 180.708 137.421C184.508 210.521 225.308 283.621 291.708 314.321C364.108 347.721 449.008 327.021 528.208 337.521C639.108 352.121 738.408 434.921 772.908 541.221C791.308 598.121 792.508 660.821 820.908 713.521C853.008 773.321 920.208 812.521 988.108 811.221C1069.71 809.621 1144.91 754.921 1226.21 761.821C1302.51 768.321 1363.01 826.821 1413.81 884.021C1464.61 941.221 1517.51 1003.82 1591.41 1023.62C1650.11 1039.42 1714.21 1024.52 1766.51 993.521C1818.91 962.521 1860.81 916.521 1897.21 867.721C1954.11 791.521 2000.11 703.921 2009.31 609.221C2014.31 557.621 2031.41 496.221 2050.91 431.321C2097.91 274.421 2158.91 96.9214 2096.61 -11.5786C2046.71 -98.7786 1886.51 -393.779 1636.11 -448.379C860.208 -617.479 722.808 -175.079 631.008 -150.379Z" stroke="#5B6BB2" stroke-width="0.3662" stroke-miterlimit="10"/>
<path opacity="0.179" d="M645.608 -149.078C564.808 -127.078 480.708 -125.778 398.008 -112.778C377.908 -109.678 354.208 -106.578 331.508 -101.078C312.708 -96.5785 294.608 -90.3785 280.108 -81.1785C256.308 -66.0785 241.008 -25.7785 229.808 -1.17847C210.308 41.3215 198.908 88.0215 201.308 134.922C205.008 207.022 245.108 279.122 310.508 309.522C381.808 342.522 465.508 322.222 543.708 332.722C653.108 347.222 751.008 428.822 785.308 533.722C803.408 589.822 804.808 651.621 832.808 703.521C864.508 762.421 930.808 801.122 997.808 799.822C1078.21 798.322 1152.51 744.422 1232.71 751.222C1308.01 757.622 1367.71 815.322 1417.81 871.622C1467.91 928.022 1520.21 989.621 1593.01 1009.02C1650.91 1024.52 1714.01 1009.82 1765.61 979.122C1817.21 948.522 1858.61 903.221 1894.41 855.021C1950.41 779.921 1995.81 693.521 2004.81 600.021C2009.71 549.121 2026.61 488.622 2045.71 424.522C2091.81 269.922 2151.91 94.8215 2090.41 -12.1785C2041.21 -98.1785 1883.31 -388.778 1636.41 -442.578C871.608 -609.378 736.008 -173.478 645.608 -149.078Z" stroke="#5B6BB2" stroke-width="0.4049" stroke-miterlimit="10"/>
<path opacity="0.1913" d="M660.108 -147.779C580.408 -125.979 497.608 -124.479 416.008 -111.779C396.208 -108.679 372.708 -105.679 350.408 -100.279C331.808 -95.7786 314.008 -89.7786 299.708 -80.6786C276.208 -65.8786 261.108 -26.0786 250.008 -1.8786C230.708 40.0214 219.408 86.0214 221.708 132.221C225.208 203.221 264.708 274.421 329.208 304.521C399.508 337.121 482.008 317.221 559.108 327.621C666.908 342.021 763.608 422.421 797.508 525.821C815.408 581.121 816.808 642.021 844.408 693.221C875.708 751.321 941.108 789.421 1007.11 788.221C1086.41 786.721 1159.71 733.721 1238.71 740.421C1313.01 746.721 1371.81 803.521 1421.31 859.021C1470.81 914.521 1522.31 975.221 1594.11 994.321C1651.21 1009.52 1713.41 995.021 1764.21 964.721C1815.01 934.521 1855.81 889.821 1891.11 842.221C1946.31 768.121 1990.91 682.921 1999.81 590.721C2004.61 540.521 2021.21 480.821 2040.01 417.721C2085.51 265.121 2144.81 92.5214 2084.01 -12.9786C2035.51 -97.6786 1879.91 -383.979 1636.61 -436.979C883.008 -601.379 749.308 -171.979 660.108 -147.779Z" stroke="#5B6BB2" stroke-width="0.4437" stroke-miterlimit="10"/>
<path opacity="0.2035" d="M674.708 -146.578C596.208 -124.978 514.708 -123.378 434.108 -110.878C414.608 -107.778 391.408 -104.878 369.408 -99.5784C351.108 -95.1784 333.508 -89.1784 319.308 -80.2784C296.108 -65.6784 281.208 -26.4784 270.208 -2.67841C251.108 38.5216 239.908 83.9216 242.208 129.522C245.508 199.522 284.408 269.722 347.908 299.422C417.108 331.622 498.408 312.122 574.508 322.522C680.808 336.822 776.308 416.022 809.708 517.922C827.508 572.322 828.808 632.322 856.108 682.822C887.008 740.022 951.408 777.622 1016.51 776.422C1094.71 775.022 1166.91 722.722 1244.81 729.322C1318.01 735.522 1376.11 791.522 1424.81 846.122C1473.61 900.822 1524.41 960.522 1595.21 979.222C1651.41 994.222 1712.71 979.822 1762.81 949.922C1812.91 920.122 1853.01 876.022 1887.81 829.122C1942.11 756.022 1986.11 672.022 1994.81 581.122C1999.61 531.722 2015.81 472.822 2034.41 410.522C2079.21 260.122 2137.61 89.9216 2077.51 -14.0784C2029.71 -97.4784 1876.41 -379.478 1636.71 -431.678C894.408 -593.278 762.508 -170.378 674.708 -146.578Z" stroke="#5B6BB2" stroke-width="0.4824" stroke-miterlimit="10"/>
<path opacity="0.2158" d="M689.308 -145.279C611.908 -123.879 531.608 -122.179 452.108 -109.779C432.808 -106.779 410.008 -103.879 388.308 -98.6786C370.208 -94.3786 352.908 -88.4786 338.908 -79.6786C316.008 -65.2786 301.308 -26.7786 290.408 -3.27863C271.508 37.3214 260.408 82.0213 262.608 126.921C265.808 195.921 303.908 265.121 366.508 294.521C434.708 326.321 514.808 307.221 589.708 317.521C694.508 331.621 788.708 409.721 821.808 510.121C839.408 563.721 840.708 622.821 867.708 672.521C898.208 728.821 961.708 765.921 1025.91 764.721C1103.01 763.321 1174.21 711.921 1251.01 718.421C1323.21 724.521 1380.41 779.621 1428.51 833.521C1476.71 887.321 1526.81 946.121 1596.41 964.521C1651.81 979.221 1712.21 965.021 1761.51 935.421C1810.81 906.021 1850.31 862.521 1884.51 816.321C1938.01 744.321 1981.21 661.521 1989.81 571.921C1994.51 523.221 2010.51 465.121 2028.71 403.721C2072.71 255.521 2130.01 87.8214 2071.01 -14.6786C2023.71 -96.6786 1872.91 -374.479 1636.81 -425.879C905.708 -585.279 775.808 -168.779 689.308 -145.279Z" stroke="#5B6BB2" stroke-width="0.5211" stroke-miterlimit="10"/>
<path opacity="0.228" d="M703.808 -143.979C627.608 -122.879 548.608 -120.979 470.208 -108.779C451.208 -105.779 428.708 -102.979 407.208 -97.8786C389.408 -93.6786 372.308 -87.8786 358.508 -79.1786C335.908 -65.0786 321.408 -27.0785 310.608 -3.97855C291.908 36.0215 280.908 80.0214 283.008 124.221C286.008 192.221 323.508 260.521 385.108 289.421C452.208 320.821 531.108 302.221 605.008 312.421C708.208 326.421 801.208 403.321 833.908 502.321C851.308 555.121 852.708 613.321 879.208 662.221C909.308 717.721 971.908 754.121 1035.11 753.021C1111.11 751.621 1181.21 701.121 1256.91 707.521C1328.11 713.521 1384.51 767.821 1431.91 820.821C1479.41 873.721 1528.81 931.621 1597.41 949.621C1652.01 964.021 1711.41 950.021 1759.91 920.821C1808.41 891.821 1847.31 848.921 1881.01 803.321C1933.61 732.321 1976.21 650.721 1984.61 562.421C1989.21 514.421 2004.91 457.221 2022.81 396.721C2066.11 250.621 2122.51 85.4214 2064.21 -15.5786C2017.61 -96.3786 1869.11 -369.779 1636.61 -420.379C917.108 -577.179 789.008 -167.179 703.808 -143.979Z" stroke="#5B6BB2" stroke-width="0.5599" stroke-miterlimit="10"/>
<path opacity="0.2403" d="M718.408 -142.779C643.308 -121.879 565.608 -119.779 488.308 -107.779C469.608 -104.879 447.408 -101.979 426.208 -97.0786C408.608 -92.8786 391.808 -87.1786 378.208 -78.6786C355.908 -64.7786 341.608 -27.3786 330.908 -4.67856C312.408 34.7214 301.508 78.0214 303.508 121.521C306.408 188.521 343.208 255.821 403.808 284.421C469.808 315.421 547.608 297.221 620.408 307.421C722.108 321.321 813.808 397.121 846.208 494.521C863.408 546.421 864.808 603.821 891.008 651.921C920.708 706.521 982.408 742.421 1044.71 741.321C1119.61 740.021 1188.71 690.221 1263.31 696.621C1333.41 702.621 1389.01 756.021 1435.71 808.121C1482.51 860.221 1531.21 917.121 1598.81 934.721C1652.51 948.821 1711.11 935.021 1758.81 906.221C1806.61 877.621 1844.81 835.421 1878.01 790.421C1929.81 720.521 1971.61 640.021 1979.81 553.021C1984.31 505.721 1999.71 449.321 2017.31 389.721C2059.81 245.821 2115.31 83.0215 2057.91 -16.4785C2012.01 -95.9785 1865.71 -365.079 1636.91 -414.879C928.508 -569.179 802.308 -165.679 718.508 -142.779" stroke="#5B6BB2" stroke-width="0.5986" stroke-miterlimit="10"/>
<path opacity="0.2525" d="M732.908 -141.478C659.008 -120.778 582.508 -118.579 506.208 -106.779C487.708 -103.879 465.908 -101.078 445.008 -96.1785C427.708 -92.0785 411.108 -86.4785 397.708 -78.0785C375.708 -64.3785 361.508 -27.6785 351.008 -5.2785C332.708 33.4215 321.908 76.1215 323.808 119.021C326.508 185.021 362.708 251.321 422.408 279.621C487.408 310.221 563.908 292.421 635.708 302.521C735.908 316.321 826.308 390.921 858.308 486.821C875.408 537.921 876.708 594.322 902.608 641.722C931.908 695.422 992.608 730.822 1054.01 729.722C1127.81 728.422 1195.91 679.522 1269.31 685.822C1338.41 691.722 1393.21 744.221 1439.21 795.521C1485.41 846.721 1533.31 902.721 1599.91 920.021C1652.81 933.921 1710.41 920.122 1757.41 891.822C1804.41 863.622 1842.01 822.022 1874.61 777.722C1925.51 708.822 1966.71 629.621 1974.71 543.821C1979.11 497.221 1994.31 441.721 2011.61 383.021C2053.41 241.221 2107.91 80.9215 2051.31 -17.0785C2006.11 -95.2785 1862.11 -360.079 1636.91 -409.079C939.908 -561.079 815.508 -164.078 733.108 -141.578" stroke="#5B6BB2" stroke-width="0.6373" stroke-miterlimit="10"/>
<path opacity="0.2648" d="M747.508 -140.178C674.708 -119.678 599.508 -117.378 524.308 -105.678C506.108 -102.878 484.608 -100.078 464.008 -95.2785C446.908 -91.2785 430.608 -85.7785 417.408 -77.4785C395.708 -64.0785 381.708 -27.8785 371.308 -5.87848C353.208 32.2215 342.608 74.2215 344.408 116.422C346.908 181.322 382.508 246.722 441.208 274.622C505.108 304.822 580.508 287.422 651.208 297.522C749.908 311.122 839.008 384.622 870.608 479.022C887.508 529.322 888.908 584.822 914.308 631.422C943.208 684.322 1003.01 719.122 1063.41 718.122C1136.01 716.922 1203.11 668.822 1275.41 674.922C1343.41 680.722 1397.41 732.422 1442.81 782.822C1488.31 833.222 1535.61 888.122 1601.11 905.122C1653.21 918.722 1709.81 905.122 1756.11 877.122C1802.31 849.322 1839.41 808.322 1871.41 764.622C1921.51 696.722 1961.91 618.722 1969.81 534.322C1974.11 488.422 1989.01 433.722 2006.01 375.922C2047.01 236.322 2100.71 78.3215 2044.81 -18.0785C2000.31 -94.9785 1858.61 -355.478 1637.01 -403.678C951.308 -552.978 828.808 -162.478 747.608 -140.278" stroke="#5B6BB2" stroke-width="0.6761" stroke-miterlimit="10"/>
<path opacity="0.277" d="M762.108 -138.978C690.408 -118.778 616.608 -116.278 542.408 -104.778C524.508 -101.978 503.308 -99.2785 483.008 -94.5785C466.208 -90.6785 450.108 -85.2785 437.108 -77.1785C415.708 -63.9785 401.908 -28.3785 391.608 -6.77847C373.708 30.7215 363.308 71.9215 364.908 113.522C367.408 177.422 402.208 241.822 459.908 269.422C522.808 299.322 596.908 282.422 666.608 292.222C763.708 305.922 851.608 378.022 882.908 470.922C899.608 520.422 901.008 575.022 926.108 620.922C954.608 672.922 1013.51 707.222 1073.01 706.222C1144.51 705.022 1210.61 657.722 1281.81 663.822C1348.81 669.522 1402.01 720.322 1446.71 769.922C1491.51 819.422 1538.11 873.422 1602.61 890.122C1653.81 903.422 1709.61 890.022 1755.11 862.422C1800.61 835.022 1837.01 794.622 1868.51 751.622C1917.71 684.822 1957.51 607.922 1965.21 524.822C1969.41 479.622 1984.11 425.822 2000.71 368.922C2041.01 231.422 2093.71 75.9215 2038.71 -18.9785C1994.91 -94.5785 1855.51 -350.778 1637.41 -398.178C962.608 -544.978 842.108 -160.878 762.208 -138.978" stroke="#5B6BB2" stroke-width="0.7148" stroke-miterlimit="10"/>
<path opacity="0.2893" d="M776.608 -137.679C706.108 -117.679 633.508 -114.979 560.408 -103.779C542.808 -101.079 521.908 -98.3786 501.908 -93.7786C485.408 -89.8786 469.508 -84.5786 456.608 -76.6786C435.508 -63.6786 421.908 -28.7786 411.708 -7.47861C394.008 29.3214 383.708 69.9214 385.208 110.821C387.608 173.721 421.708 237.121 478.408 264.421C540.208 293.921 613.108 277.421 681.808 287.221C777.408 300.821 864.008 371.721 894.908 463.221C911.408 511.821 912.808 565.621 937.608 610.721C965.708 661.921 1023.61 695.521 1082.21 694.621C1152.61 693.521 1217.61 647.021 1287.71 653.021C1353.71 658.621 1406.01 708.621 1450.01 757.321C1494.21 806.021 1540.01 859.021 1603.51 875.321C1653.91 888.321 1708.71 875.021 1753.51 847.921C1798.11 820.821 1834.01 781.121 1864.91 738.821C1913.31 673.021 1952.31 597.421 1959.91 515.521C1964.01 471.021 1978.41 418.021 1994.81 362.021C2034.31 226.721 2086.11 73.6214 2031.91 -19.7786C1988.71 -94.0786 1851.71 -345.979 1637.21 -392.579C974.008 -536.879 855.308 -159.379 776.808 -137.779" stroke="#5B6BB2" stroke-width="0.7535" stroke-miterlimit="10"/>
<path opacity="0.3015" d="M791.208 -136.379C721.808 -116.579 650.508 -113.778 578.508 -102.678C561.108 -99.9785 540.608 -97.3785 520.908 -92.8785C504.608 -89.0785 489.008 -83.8785 476.308 -76.0785C455.508 -63.3785 442.108 -28.9785 432.008 -8.07849C414.608 28.1215 404.308 68.0215 405.708 108.322C407.908 170.222 441.408 232.622 497.108 259.522C557.908 288.622 629.608 272.522 697.208 282.222C791.208 295.722 876.508 365.522 907.208 455.422C923.508 503.222 924.908 556.022 949.308 600.422C977.008 650.722 1034.01 683.822 1091.71 682.922C1161.01 681.822 1225.01 636.222 1294.01 642.122C1358.91 647.622 1410.51 696.822 1453.81 744.622C1497.31 792.422 1542.51 844.521 1604.81 860.521C1654.41 873.321 1708.21 860.122 1752.21 833.322C1796.11 806.622 1831.31 767.622 1861.71 725.822C1909.21 661.122 1947.61 586.622 1955.01 506.022C1959.01 462.222 1973.11 410.122 1989.21 354.922C2028.01 221.722 2078.91 71.1215 2025.41 -20.7785C1982.91 -93.8785 1848.21 -341.378 1637.31 -387.078C985.408 -528.978 868.508 -157.878 791.308 -136.578" stroke="#5B6BB2" stroke-width="0.7923" stroke-miterlimit="10"/>
<path opacity="0.3138" d="M805.708 -135.179C737.508 -115.579 667.408 -112.679 596.508 -101.779C579.408 -99.1786 559.208 -96.5786 539.808 -92.0786C523.808 -88.3786 508.408 -83.2786 495.908 -75.5786C475.508 -63.0786 462.208 -29.2786 452.208 -8.77859C435.008 26.8214 424.808 66.0214 426.108 105.621C428.208 166.521 460.908 228.021 515.808 254.521C575.408 283.321 646.008 267.621 712.608 277.221C805.108 290.621 889.108 359.221 919.408 447.621C935.508 494.621 937.008 546.521 961.008 590.121C988.308 639.521 1044.41 672.121 1101.11 671.221C1169.31 670.221 1232.21 625.321 1300.11 631.121C1364.01 636.621 1414.71 684.821 1457.41 731.821C1500.31 778.821 1544.71 829.921 1606.01 845.521C1654.71 858.021 1707.71 845.021 1750.91 818.621C1794.01 792.321 1828.61 753.921 1858.51 712.821C1905.21 649.121 1942.81 575.821 1950.01 496.521C1953.91 453.421 1967.81 402.121 1983.51 347.921C2021.51 216.921 2071.51 68.7214 2018.91 -21.6786C1977.11 -93.4786 1844.71 -336.679 1637.41 -381.579C996.808 -520.779 881.808 -156.179 805.908 -135.279" stroke="#5B6BB2" stroke-width="0.831" stroke-miterlimit="10"/>
<path opacity="0.3261" d="M820.308 -133.879C753.208 -114.579 684.408 -111.479 614.608 -100.679C597.808 -98.0786 577.908 -95.5786 558.808 -91.1786C543.008 -87.5786 527.908 -82.4786 515.608 -74.9786C495.508 -62.6786 482.308 -29.5786 472.508 -9.37863C455.508 25.6214 445.408 64.1214 446.708 103.021C448.608 162.921 480.708 223.421 534.608 249.621C593.208 278.021 662.608 262.721 728.108 272.321C819.108 285.621 901.808 353.021 931.708 439.921C947.608 486.021 949.108 537.121 972.808 579.921C999.708 628.521 1054.91 660.521 1110.61 659.621C1177.71 658.621 1239.61 614.621 1306.31 620.321C1369.11 625.721 1419.11 673.121 1461.01 719.221C1503.21 765.321 1546.91 815.521 1607.21 830.721C1655.11 842.921 1707.11 830.121 1749.61 804.121C1791.91 778.221 1825.81 740.321 1855.21 700.021C1900.91 637.221 1938.01 565.321 1945.01 487.321C1948.81 444.921 1962.41 394.521 1977.81 341.121C2015.11 212.321 2064.21 66.5214 2012.31 -22.2786C1971.21 -92.7786 1841.01 -331.679 1637.41 -375.779C1008.21 -512.779 895.108 -154.579 820.508 -133.979" stroke="#5B6BB2" stroke-width="0.8697" stroke-miterlimit="10"/>
<path opacity="0.3383" d="M834.908 -132.578C769.008 -113.478 701.508 -110.178 632.608 -99.6784C616.008 -97.0784 596.508 -94.6784 577.708 -90.3784C562.208 -86.7784 547.308 -81.8784 535.208 -74.4784C515.408 -62.4784 502.408 -29.8784 492.708 -10.0784C475.908 24.2216 465.908 62.1216 467.108 100.322C468.908 159.122 500.308 218.722 553.208 244.522C610.708 272.522 678.908 257.622 743.408 267.122C832.808 280.322 914.308 346.522 943.908 432.022C959.608 477.322 961.108 527.421 984.508 569.521C1011.01 617.221 1065.21 648.722 1120.11 647.922C1186.01 646.922 1247.01 603.822 1312.61 609.422C1374.41 614.722 1423.51 661.222 1464.81 706.622C1506.31 751.922 1549.31 801.121 1608.61 816.021C1655.71 827.921 1706.71 815.222 1748.51 789.622C1790.11 764.122 1823.41 726.822 1852.21 687.122C1897.01 625.422 1933.41 554.622 1940.31 477.922C1944.11 436.222 1957.31 386.622 1972.51 334.222C2009.01 207.522 2057.21 64.2216 2006.21 -23.0784C1965.81 -92.2784 1837.91 -326.878 1637.91 -370.178C1019.51 -504.678 908.308 -153.078 835.108 -132.678" stroke="#5B6BB2" stroke-width="0.9085" stroke-miterlimit="10"/>
<path opacity="0.3506" d="M849.408 -131.378C784.608 -112.478 718.408 -109.078 650.608 -98.6784C634.308 -96.1784 615.108 -93.7784 596.608 -89.5784C581.308 -86.0784 566.708 -81.2784 554.808 -73.9784C535.308 -62.0784 522.508 -30.1784 512.908 -10.7784C496.308 22.9216 486.508 60.1216 487.508 97.7216C489.108 155.522 519.808 214.222 571.808 239.622C628.308 267.222 695.308 252.822 758.708 262.222C846.608 275.322 926.808 340.422 956.008 424.322C971.508 468.822 973.008 518.022 996.008 559.322C1022.01 606.222 1075.41 637.022 1129.31 636.322C1194.11 635.422 1254.01 593.022 1318.51 598.622C1379.31 603.822 1427.61 649.521 1468.21 694.021C1509.11 738.421 1551.41 786.722 1609.61 801.222C1655.81 812.922 1706.01 800.322 1747.01 775.122C1787.81 750.022 1820.51 713.422 1848.81 674.322C1892.81 613.622 1928.51 544.122 1935.21 468.622C1938.91 427.622 1951.91 378.922 1966.71 327.322C2002.51 202.822 2049.71 61.9216 1999.51 -23.8784C1959.71 -91.7785 1834.21 -322.078 1637.81 -364.578C1030.91 -496.578 921.608 -151.478 849.708 -131.478" stroke="#5B6BB2" stroke-width="0.9472" stroke-miterlimit="10"/>
<path opacity="0.3628" d="M864.008 -130.079C800.408 -111.379 735.408 -107.879 668.708 -97.6786C652.708 -95.1786 633.708 -92.8786 615.508 -88.7786C600.508 -85.3786 586.108 -80.5786 574.308 -73.4786C555.108 -61.8786 542.508 -30.5786 533.008 -11.4786C516.608 21.6214 506.908 58.1214 507.808 95.0214C509.308 151.821 539.308 209.521 590.308 234.621C645.708 261.921 711.508 247.821 773.908 257.121C860.308 270.021 939.208 334.021 968.108 416.421C983.408 460.121 985.008 508.421 1007.61 549.021C1033.21 595.021 1085.71 625.321 1138.61 624.621C1202.31 623.721 1261.21 582.221 1324.61 587.621C1384.31 592.721 1431.81 637.721 1471.81 681.221C1511.91 724.921 1553.61 772.121 1610.81 786.321C1656.21 797.721 1705.41 785.321 1745.61 760.521C1785.61 735.821 1817.71 699.821 1845.41 661.421C1888.51 601.721 1923.61 533.421 1930.11 459.221C1933.71 418.921 1946.41 371.021 1960.91 320.321C1995.91 197.921 2042.31 59.5214 1992.81 -24.7786C1953.71 -91.3786 1830.51 -317.379 1637.61 -359.079C1042.11 -488.479 934.608 -149.779 864.008 -130.079" stroke="#5B6BB2" stroke-width="0.9859" stroke-miterlimit="10"/>
<path opacity="0.3751" d="M878.508 -128.879C816.008 -110.479 752.308 -106.779 686.708 -96.7786C671.008 -94.3786 652.308 -92.0786 634.408 -88.0786C619.608 -84.6786 605.508 -80.0786 593.908 -73.0786C575.008 -61.6786 562.608 -30.9786 553.308 -12.2786C537.108 20.1214 527.508 56.0214 528.408 92.2214C529.708 148.021 559.108 204.721 609.208 229.421C663.508 256.321 728.208 242.621 789.508 251.921C874.308 264.721 952.008 327.521 980.508 408.421C995.608 451.221 997.208 498.721 1019.51 538.521C1044.71 583.621 1096.21 613.421 1148.31 612.721C1210.91 611.921 1268.71 571.221 1331.01 576.521C1389.71 581.621 1436.31 625.621 1475.61 668.321C1515.11 711.121 1556.01 757.421 1612.21 771.221C1656.81 782.321 1705.11 770.121 1744.51 745.721C1783.81 721.421 1815.21 686.021 1842.41 648.221C1884.71 589.621 1919.01 522.421 1925.41 449.521C1928.91 409.921 1941.41 362.821 1955.61 313.121C1989.91 192.921 2035.31 56.9214 1986.71 -25.8786C1948.31 -91.2786 1827.41 -312.879 1638.11 -353.779C1053.71 -480.479 948.108 -148.279 878.808 -128.979" stroke="#5B6BB2" stroke-width="1.0246" stroke-miterlimit="10"/>
<path opacity="0.3873" d="M893.108 -127.579C831.808 -109.379 769.308 -105.579 704.808 -95.6786C689.308 -93.2786 671.008 -91.0786 653.408 -87.0786C638.908 -83.7786 624.908 -79.2785 613.608 -72.4785C595.008 -61.2785 582.708 -31.2786 573.608 -12.8786C557.608 18.9214 548.108 54.1214 548.908 89.6214C550.108 144.421 578.808 200.121 627.908 224.521C681.208 251.021 744.608 237.721 804.808 246.921C888.108 259.621 964.508 321.221 992.608 400.621C1007.51 442.621 1009.11 489.121 1031.01 528.221C1055.81 572.521 1106.41 601.721 1157.51 601.021C1219.01 600.221 1275.81 560.322 1336.91 565.622C1394.61 570.622 1440.31 613.821 1479.01 655.621C1517.81 697.621 1558.01 742.921 1613.21 756.421C1656.91 767.221 1704.31 755.221 1743.01 731.121C1781.51 707.221 1812.31 672.421 1839.01 635.321C1880.41 577.721 1914.11 511.821 1920.21 440.221C1923.61 401.321 1935.81 355.121 1949.71 306.221C1983.21 188.121 2027.81 54.6214 1979.91 -26.6786C1942.21 -90.7786 1823.61 -308.079 1637.91 -348.179C1065.11 -472.479 961.408 -146.779 893.408 -127.679" stroke="#5B6BB2" stroke-width="1.0634" stroke-miterlimit="10"/>
<path opacity="0.3996" d="M907.708 -126.279C847.508 -108.279 786.308 -104.279 722.908 -94.6785C707.708 -92.3785 689.708 -90.1785 672.408 -86.2785C658.108 -83.0785 644.408 -78.5785 633.308 -71.9785C615.008 -61.0785 602.908 -31.5785 593.908 -13.5785C578.108 17.6215 568.708 52.1215 569.408 87.0215C570.408 140.821 598.508 195.521 646.608 219.621C698.808 245.721 761.108 232.921 820.208 242.021C902.008 254.621 977.008 315.021 1004.91 393.021C1019.61 434.221 1021.31 479.821 1042.81 518.121C1067.21 561.521 1116.91 590.221 1167.11 589.521C1227.51 588.821 1283.31 549.721 1343.31 554.921C1399.91 559.821 1444.91 602.222 1482.91 643.122C1521.01 684.222 1560.61 728.622 1614.61 741.722C1657.51 752.322 1703.91 740.322 1741.91 716.722C1779.61 693.222 1809.81 659.022 1835.91 622.622C1876.51 566.122 1909.41 501.321 1915.41 431.021C1918.71 392.821 1930.61 347.421 1944.21 299.521C1977.01 183.621 2020.61 52.5215 1973.61 -27.2785C1936.61 -90.0785 1820.31 -303.079 1638.21 -342.379C1076.41 -464.379 974.608 -145.179 907.908 -126.379" stroke="#5B6BB2" stroke-width="1.1021" stroke-miterlimit="10"/>
<path opacity="0.4118" d="M922.208 -125.079C863.208 -107.279 803.308 -103.179 740.908 -93.6786C726.008 -91.3786 708.308 -89.2785 691.308 -85.4785C677.308 -82.3785 663.808 -77.9785 652.908 -71.4785C634.908 -60.7785 623.008 -31.8786 614.108 -14.2786C598.508 16.2214 589.308 50.1214 589.808 84.3214C590.708 137.021 618.108 190.821 665.208 214.521C716.408 240.221 777.408 227.821 835.508 236.921C915.708 249.421 989.508 308.721 1017.01 385.121C1031.51 425.421 1033.21 470.221 1054.41 507.721C1078.41 550.321 1127.21 578.421 1176.41 577.821C1235.61 577.121 1290.41 538.921 1349.31 544.021C1404.91 548.821 1449.01 590.321 1486.31 630.421C1523.71 670.721 1562.61 714.021 1615.61 726.821C1657.71 737.021 1703.21 725.321 1740.41 702.121C1777.31 679.021 1806.91 645.421 1832.51 609.621C1872.21 554.121 1904.51 490.521 1910.31 421.521C1913.51 384.021 1925.21 339.521 1938.41 292.421C1970.51 178.721 2013.21 50.0214 1966.91 -28.2786C1930.61 -89.7786 1816.51 -298.479 1638.11 -336.979C1087.81 -456.379 987.908 -143.579 922.508 -125.179" stroke="#5B6BB2" stroke-width="1.1408" stroke-miterlimit="10"/>
<path opacity="0.4241" d="M936.808 -123.779C878.908 -106.279 820.308 -101.979 758.908 -92.6786C744.208 -90.4786 726.908 -88.2786 710.208 -84.6786C696.408 -81.5786 683.208 -77.3785 672.508 -70.9785C654.808 -60.4785 643.108 -32.2785 634.308 -14.9785C619.008 14.9215 609.808 48.1214 610.208 81.6214C610.908 133.321 637.708 186.121 683.808 209.521C733.908 234.821 793.808 222.821 850.808 231.821C929.508 244.221 1002.01 302.321 1029.21 377.221C1043.51 416.721 1045.21 460.621 1066.01 497.321C1089.61 539.021 1137.41 566.521 1185.71 566.021C1243.81 565.421 1297.61 527.921 1355.41 532.921C1409.91 537.621 1453.31 578.321 1489.91 617.521C1526.71 656.921 1564.91 699.321 1616.81 711.821C1658.11 721.721 1702.61 710.221 1739.01 687.321C1775.21 664.621 1804.11 631.721 1829.21 596.521C1868.11 542.021 1899.61 479.721 1905.31 411.921C1908.41 375.121 1919.81 331.421 1932.81 285.321C1964.11 173.721 2005.91 47.5214 1960.41 -29.2786C1924.71 -89.4786 1813.01 -293.879 1638.21 -331.579C1099.21 -448.279 1001.11 -141.979 937.108 -123.879" stroke="#5B6BB2" stroke-width="1.1796" stroke-miterlimit="10"/>
<path opacity="0.4363" d="M951.308 -122.478C894.608 -105.178 837.208 -100.778 776.908 -91.5785C762.508 -89.3785 745.508 -87.2785 729.108 -83.7785C715.608 -80.7785 702.608 -76.5785 692.108 -70.3785C674.708 -60.0785 663.208 -32.4785 654.508 -15.5785C639.408 13.7215 630.308 46.2215 630.708 79.0215C631.308 129.722 657.308 181.622 702.508 204.522C751.508 229.422 810.208 217.922 866.208 226.822C943.308 239.122 1014.61 296.022 1041.41 369.422C1055.51 408.122 1057.21 451.022 1077.71 487.022C1100.91 527.822 1147.81 554.822 1195.21 554.322C1252.21 553.722 1304.91 517.121 1361.61 522.021C1415.11 526.621 1457.61 566.422 1493.61 604.822C1529.71 643.422 1567.21 684.822 1618.11 696.922C1658.51 706.522 1702.21 695.222 1737.81 672.722C1773.21 650.422 1801.51 618.122 1826.01 583.622C1864.01 530.222 1894.91 469.022 1900.41 402.622C1903.41 366.522 1914.51 323.722 1927.21 278.422C1957.81 169.022 1998.61 45.2215 1954.01 -30.0785C1919.01 -88.9785 1809.61 -289.078 1638.41 -325.878C1110.61 -440.278 1014.41 -140.578 951.708 -122.778" stroke="#5B6BB2" stroke-width="1.2183" stroke-miterlimit="10"/>
<path opacity="0.4486" d="M965.908 -121.278C910.308 -104.178 854.208 -99.5784 795.008 -90.6784C780.908 -88.4784 764.208 -86.4784 748.108 -83.0784C734.808 -80.1784 722.108 -76.0784 711.708 -69.9784C694.608 -59.9784 683.308 -32.8784 674.708 -16.3784C659.808 12.3216 650.808 44.1216 651.108 76.2216C651.508 125.922 676.908 176.822 721.208 199.422C769.208 224.022 826.708 212.822 881.608 221.622C957.208 233.822 1027.21 289.522 1053.61 361.522C1067.51 399.422 1069.31 441.422 1089.41 476.722C1112.21 516.722 1158.21 543.122 1204.61 542.622C1260.51 542.022 1312.21 506.322 1367.71 511.122C1420.21 515.722 1461.91 554.622 1497.11 592.222C1532.51 629.922 1569.31 670.422 1619.21 682.222C1658.81 691.622 1701.51 680.422 1736.41 658.322C1771.01 636.422 1798.71 604.722 1822.71 570.822C1859.81 518.422 1890.01 458.422 1895.41 393.322C1898.31 357.922 1909.21 315.922 1921.51 271.522C1951.31 164.222 1991.31 42.9216 1947.41 -30.7784C1913.11 -88.4784 1806.01 -284.178 1638.31 -320.178C1122.01 -432.178 1027.61 -138.878 966.208 -121.378" stroke="#5B6BB2" stroke-width="1.257" stroke-miterlimit="10"/>
<path opacity="0.4608" d="M980.508 -119.979C926.108 -103.079 871.208 -98.3786 813.108 -89.6786C799.308 -87.5786 782.908 -85.5786 767.108 -82.1786C754.108 -79.3786 741.608 -75.3786 731.408 -69.3786C714.608 -59.5786 703.408 -33.1786 695.008 -16.9786C680.308 11.0214 671.408 42.2214 671.608 73.7214C671.908 122.421 696.608 172.321 739.908 194.621C786.808 218.821 843.108 208.021 897.008 216.821C971.008 228.821 1039.71 283.421 1065.81 353.821C1079.51 390.821 1081.31 432.021 1101.01 466.521C1123.41 505.621 1168.51 531.521 1214.01 531.021C1268.81 530.521 1319.41 495.521 1373.91 500.321C1425.31 504.821 1466.21 542.921 1500.81 579.621C1535.61 616.521 1571.61 655.921 1620.51 667.421C1659.31 676.521 1701.01 665.421 1735.21 643.821C1769.11 622.321 1796.11 591.221 1819.61 558.021C1855.91 506.621 1885.41 447.921 1890.51 384.021C1893.31 349.321 1903.91 308.221 1916.01 264.721C1945.11 159.621 1984.11 40.7214 1941.01 -31.4786C1907.41 -87.8786 1802.61 -279.279 1638.51 -314.479C1133.31 -424.079 1040.91 -137.279 980.808 -120.079" stroke="#5B6BB2" stroke-width="1.2958" stroke-miterlimit="10"/>
<path opacity="0.4731" d="M995.008 -118.679C941.708 -102.079 888.108 -97.1786 831.108 -88.5786C817.508 -86.4786 801.508 -84.5786 786.008 -81.2786C773.208 -78.4786 761.008 -74.5786 751.008 -68.7786C734.508 -59.1786 723.508 -33.3786 715.208 -17.5786C700.708 9.82139 692.008 40.2214 692.008 71.1214C692.108 118.821 716.208 167.721 758.508 189.621C804.308 213.421 859.408 203.121 912.308 211.821C984.808 223.721 1052.31 277.221 1078.01 346.121C1091.51 382.321 1093.31 422.521 1112.71 456.321C1134.71 494.621 1178.81 519.921 1223.41 519.421C1277.11 518.921 1326.71 484.821 1380.01 489.421C1430.41 493.821 1470.51 531.021 1504.41 566.921C1538.51 602.921 1573.91 641.421 1621.71 652.521C1659.61 661.321 1700.51 650.421 1733.91 629.121C1767.01 608.021 1793.41 577.521 1816.31 545.021C1851.71 494.721 1880.51 437.121 1885.51 374.521C1888.31 340.521 1898.61 300.221 1910.31 257.621C1938.61 154.621 1976.81 38.2214 1934.51 -32.4786C1901.61 -87.5786 1799.11 -274.679 1638.61 -309.079C1144.71 -416.079 1054.11 -135.679 995.308 -118.879" stroke="#5B6BB2" stroke-width="1.3345" stroke-miterlimit="10"/>
<path opacity="0.4854" d="M1009.61 -117.479C957.508 -101.079 905.208 -96.0786 849.208 -87.6786C835.908 -85.6786 820.208 -83.7786 805.008 -80.5786C792.508 -77.8786 780.508 -74.0786 770.708 -68.3786C754.508 -59.0786 743.708 -33.7786 735.508 -18.3786C721.208 8.42137 712.608 38.1214 712.508 68.3214C712.508 115.021 735.908 162.921 777.208 184.521C822.008 207.921 875.908 198.021 927.708 206.621C998.708 218.421 1064.81 270.721 1090.31 338.121C1103.61 373.521 1105.41 412.821 1124.51 445.821C1146.11 483.221 1189.31 507.921 1232.91 507.621C1285.41 507.221 1334.11 473.921 1386.31 478.421C1435.61 482.721 1474.91 519.121 1508.21 554.121C1541.61 589.321 1576.31 626.821 1623.11 637.621C1660.21 646.121 1700.11 635.421 1732.71 614.521C1765.01 593.821 1790.91 563.921 1813.21 532.021C1847.81 482.721 1875.91 426.321 1880.71 365.021C1883.41 331.721 1893.41 292.321 1904.81 250.621C1932.41 149.821 1969.61 35.8214 1928.11 -33.3786C1895.91 -87.1786 1795.71 -269.879 1638.81 -303.579C1156.11 -407.979 1067.41 -134.179 1010.01 -117.579" stroke="#5B6BB2" stroke-width="1.3732" stroke-miterlimit="10"/>
<path opacity="0.4976" d="M1024.21 -116.178C973.208 -99.9785 922.208 -94.7785 867.308 -86.5785C854.308 -84.5785 838.908 -82.7785 824.008 -79.6785C811.708 -77.0785 800.008 -73.3785 790.408 -67.8785C774.508 -58.7785 763.908 -34.1785 755.808 -19.0785C741.708 7.02151 733.208 36.1215 733.108 65.6215C732.908 111.221 755.708 158.222 796.008 179.522C839.708 202.522 892.408 193.022 943.208 201.622C1012.71 213.322 1077.51 264.422 1102.61 330.322C1115.71 364.822 1117.61 403.322 1136.21 435.522C1157.41 472.022 1199.71 496.222 1242.41 495.922C1293.81 495.522 1341.41 463.022 1392.51 467.522C1440.81 471.722 1479.31 507.322 1511.81 541.422C1544.61 575.722 1578.51 612.322 1624.21 622.722C1660.51 631.022 1699.51 620.422 1731.31 599.922C1762.81 579.622 1788.11 550.322 1809.91 519.122C1843.61 470.822 1871.01 415.722 1875.71 355.722C1878.31 323.122 1888.01 284.522 1899.11 243.722C1925.91 145.022 1962.21 33.5215 1921.61 -34.1785C1890.01 -86.6785 1792.11 -265.078 1638.91 -297.978C1167.51 -399.978 1080.71 -132.579 1024.61 -116.379" stroke="#5B6BB2" stroke-width="1.412" stroke-miterlimit="10"/>
<path opacity="0.5099" d="M1038.71 -114.878C988.908 -98.8785 939.108 -93.5785 885.208 -85.5785C872.408 -83.6785 857.308 -81.8785 842.708 -78.8785C830.708 -76.3785 819.208 -72.7785 809.808 -67.3785C794.208 -58.4785 783.808 -34.4785 775.808 -19.7785C761.908 5.7215 753.508 34.1215 753.308 63.0215C753.008 107.622 775.008 153.622 814.508 174.522C857.208 197.122 908.708 188.022 958.408 196.522C1026.31 208.122 1089.91 258.022 1114.61 322.522C1127.51 356.222 1129.41 393.822 1147.71 425.222C1168.51 460.922 1209.81 484.522 1251.61 484.222C1301.91 483.922 1348.51 452.222 1398.41 456.622C1445.71 460.722 1483.31 495.422 1515.21 528.722C1547.31 562.222 1580.61 597.822 1625.21 607.922C1660.61 615.922 1698.71 605.522 1729.81 585.322C1760.61 565.422 1785.21 536.822 1806.51 506.222C1839.41 459.022 1866.11 405.022 1870.61 346.322C1873.11 314.422 1882.61 276.722 1893.41 236.722C1919.51 140.222 1954.91 31.1215 1915.01 -35.0785C1884.11 -86.2785 1788.51 -260.378 1638.91 -292.478C1178.81 -391.978 1093.91 -131.078 1039.11 -115.178" stroke="#5B6BB2" stroke-width="1.4507" stroke-miterlimit="10"/>
<path opacity="0.5221" d="M1053.31 -113.679C1004.61 -97.9786 956.108 -92.4786 903.308 -84.5786C890.808 -82.6786 876.008 -80.9786 861.708 -78.0786C849.908 -75.6786 838.708 -72.0786 829.508 -66.8786C814.208 -58.1786 803.908 -34.7786 796.108 -20.4786C782.408 4.42142 774.108 32.1214 773.808 60.3214C773.308 103.921 794.708 148.921 833.208 169.521C874.808 191.721 925.108 183.121 973.808 191.521C1040.21 203.021 1102.51 251.721 1126.91 314.721C1139.61 347.621 1141.51 384.221 1159.51 414.921C1179.91 449.721 1220.31 472.821 1261.21 472.521C1310.41 472.221 1355.91 441.421 1404.81 445.621C1451.01 449.721 1487.81 483.521 1519.11 515.921C1550.51 548.521 1583.11 583.221 1626.71 592.921C1661.31 600.621 1698.41 590.321 1728.81 570.621C1758.81 551.121 1782.81 523.121 1803.51 493.121C1835.51 446.921 1861.51 394.121 1865.91 336.721C1868.31 305.521 1877.51 268.621 1888.01 229.621C1913.31 135.321 1947.81 28.6214 1908.71 -36.0786C1878.51 -86.0786 1785.21 -255.779 1639.21 -287.079C1190.41 -384.079 1107.31 -129.679 1053.91 -114.079" stroke="#5B6BB2" stroke-width="1.4894" stroke-miterlimit="10"/>
<path opacity="0.5344" d="M1067.81 -112.379C1020.31 -96.8786 973.008 -91.2786 921.308 -83.5786C909.108 -81.7786 894.608 -80.0786 880.608 -77.1786C869.108 -74.7786 858.108 -71.3786 849.008 -66.2786C834.008 -57.8786 824.008 -35.0786 816.208 -21.0786C802.808 3.22139 794.508 30.2214 794.108 57.7214C793.508 100.321 814.208 144.421 851.708 164.621C892.208 186.421 941.408 178.221 989.008 186.521C1053.91 197.921 1114.91 245.521 1138.91 306.921C1151.41 339.021 1153.31 374.721 1171.01 404.721C1191.01 438.721 1230.51 461.221 1270.41 460.921C1318.51 460.721 1363.01 430.621 1410.71 434.821C1455.91 438.821 1491.91 471.821 1522.41 503.321C1553.21 535.121 1585.01 568.821 1627.61 578.221C1661.41 585.621 1697.61 575.521 1727.21 556.221C1756.41 537.121 1779.81 509.721 1800.01 480.421C1831.11 435.221 1856.51 383.721 1860.61 327.521C1862.91 297.021 1871.81 261.021 1882.01 222.821C1906.61 130.621 1940.21 26.4214 1901.91 -36.7786C1872.41 -85.4786 1781.41 -250.879 1638.91 -281.379C1201.41 -375.879 1120.21 -127.979 1068.01 -112.679" stroke="#5B6BB2" stroke-width="1.5282" stroke-miterlimit="10"/>
<path opacity="0.5466" d="M1082.41 -111.078C1036.01 -95.7785 990.008 -89.9785 939.408 -82.5785C927.508 -80.7785 913.308 -79.1785 899.608 -76.3785C888.308 -74.0785 877.608 -70.7785 868.708 -65.7785C854.008 -57.5785 844.108 -35.3785 836.508 -21.7785C823.308 1.9215 815.208 28.2215 814.608 55.0215C813.808 96.6215 833.908 139.722 870.408 159.522C909.908 181.022 957.808 173.121 1004.41 181.421C1067.71 192.721 1127.51 239.122 1151.21 299.022C1163.51 330.222 1165.51 365.122 1182.71 394.322C1202.21 427.422 1240.91 449.322 1279.81 449.122C1326.81 448.922 1370.31 419.722 1416.91 423.822C1461.11 427.722 1496.21 459.822 1526.11 490.522C1556.21 521.422 1587.31 554.222 1628.91 563.222C1661.81 570.322 1697.11 560.422 1725.91 541.422C1754.41 522.722 1777.11 495.922 1796.81 467.322C1827.11 423.222 1851.71 372.822 1855.71 317.922C1857.91 288.222 1866.61 252.922 1876.51 215.722C1900.31 125.722 1933.01 23.9215 1895.51 -37.7785C1866.71 -85.1785 1778.01 -246.278 1639.11 -275.978C1212.91 -367.978 1133.61 -126.478 1082.71 -111.578" stroke="#5B6BB2" stroke-width="1.5669" stroke-miterlimit="10"/>
<path opacity="0.5589" d="M1097.01 -109.878C1051.81 -94.7784 1007.11 -88.8784 957.508 -81.5784C945.808 -79.8784 932.008 -78.2784 918.608 -75.5784C907.608 -73.3784 897.108 -70.0784 888.408 -65.2784C874.008 -57.2784 864.308 -35.6784 856.808 -22.4784C843.808 0.521576 835.808 26.2215 835.208 52.4215C834.308 93.0215 853.708 135.122 889.208 154.622C927.608 175.722 974.408 168.322 1019.81 176.522C1081.61 187.622 1140.01 232.922 1163.41 291.422C1175.51 321.822 1177.51 355.822 1194.41 384.222C1213.51 416.422 1251.21 437.822 1289.31 437.722C1335.11 437.522 1377.61 409.222 1423.11 413.222C1466.21 417.022 1500.61 448.322 1529.81 478.122C1559.21 508.222 1589.71 540.022 1630.21 548.622C1662.31 555.522 1696.71 545.722 1724.71 527.122C1752.41 508.822 1774.51 482.622 1793.61 454.622C1823.01 411.522 1847.01 362.422 1850.81 308.822C1852.91 279.822 1861.31 245.422 1870.91 209.022C1894.01 121.122 1925.71 21.8216 1889.11 -38.3784C1861.01 -84.4784 1774.61 -241.278 1639.31 -270.178C1224.41 -359.678 1146.91 -124.678 1097.41 -110.078" stroke="#5B6BB2" stroke-width="1.6056" stroke-miterlimit="10"/>
<path opacity="0.5711" d="M1111.51 -108.579C1067.41 -93.7786 1024.01 -87.6786 975.508 -80.5786C964.108 -78.8786 950.608 -77.3786 937.508 -74.7786C926.808 -72.6786 916.508 -69.4786 908.008 -64.7786C893.908 -57.0786 884.408 -36.0786 877.008 -23.1786C864.208 -0.778589 856.308 24.2214 855.608 49.7214C854.508 89.3214 873.308 130.421 907.908 149.621C945.308 170.321 990.808 163.321 1035.21 171.421C1095.51 182.421 1152.61 226.521 1175.61 283.521C1187.51 313.121 1189.51 346.121 1206.11 373.821C1224.81 405.221 1261.61 426.021 1298.71 425.921C1343.41 425.821 1384.91 398.221 1429.21 402.221C1471.31 405.921 1504.81 436.421 1533.41 465.421C1562.21 494.621 1591.91 525.521 1631.41 533.821C1662.71 540.421 1696.11 530.821 1723.41 512.621C1750.31 494.721 1771.81 469.121 1790.41 441.821C1819.01 399.721 1842.21 351.821 1845.91 299.521C1847.91 271.221 1856.11 237.621 1865.31 202.121C1887.61 116.421 1918.51 19.5214 1882.61 -39.0786C1855.21 -83.8786 1771.11 -236.379 1639.41 -264.379C1235.81 -351.379 1160.21 -122.879 1112.01 -108.579" stroke="#5B6BB2" stroke-width="1.6444" stroke-miterlimit="10"/>
<path opacity="0.5834" d="M1126.11 -107.279C1083.21 -92.6786 1041.01 -86.4786 993.608 -79.4786C982.508 -77.7786 969.308 -76.3786 956.508 -73.8786C946.008 -71.7786 936.008 -68.7786 927.708 -64.1786C914.008 -56.6786 904.608 -36.2786 897.408 -23.7786C884.808 -1.97858 877.008 22.3214 876.208 47.1214C874.908 85.6214 893.008 125.821 926.708 144.621C963.008 164.921 1007.41 158.321 1050.71 166.421C1109.41 177.321 1165.31 220.221 1188.01 275.721C1199.71 304.421 1201.81 336.621 1217.91 363.521C1236.21 394.021 1272.11 414.321 1308.31 414.221C1351.91 414.121 1392.31 387.421 1435.61 391.221C1476.61 394.921 1509.41 424.421 1537.21 452.621C1565.31 481.021 1594.31 510.921 1632.71 518.821C1663.11 525.121 1695.61 515.621 1722.21 497.921C1748.41 480.421 1769.21 455.521 1787.31 428.821C1815.01 387.821 1837.61 341.021 1841.11 290.021C1843.01 262.421 1850.91 229.721 1859.81 195.121C1881.41 111.521 1911.31 17.1214 1876.21 -39.9786C1849.41 -83.4786 1767.61 -231.679 1639.61 -258.879C1247.21 -343.379 1173.51 -121.379 1126.71 -107.379" stroke="#5B6BB2" stroke-width="1.6831" stroke-miterlimit="10"/>
<path opacity="0.5956" d="M1140.61 -106.079C1098.81 -91.6786 1057.91 -85.2786 1011.51 -78.5786C1000.61 -76.9786 987.808 -75.5786 975.308 -73.1786C965.108 -71.1786 955.308 -68.1786 947.208 -63.7786C933.808 -56.4786 924.608 -36.6786 917.508 -24.5786C905.208 -3.47858 897.408 20.2214 896.508 44.3214C895.108 81.8214 912.508 121.021 945.208 139.521C980.408 159.421 1023.61 153.221 1065.91 161.221C1123.11 172.021 1177.71 213.721 1200.01 267.721C1211.51 295.621 1213.61 326.921 1229.41 353.021C1247.31 382.721 1282.21 402.421 1317.51 402.321C1360.01 402.321 1399.41 376.421 1441.51 380.121C1481.51 383.721 1513.41 412.421 1540.61 439.721C1568.01 467.221 1596.41 496.121 1633.71 503.821C1663.31 509.821 1694.91 500.521 1720.71 483.121C1746.11 466.021 1766.31 441.721 1783.81 415.621C1810.71 375.621 1832.61 330.121 1835.91 280.321C1837.71 253.421 1845.31 221.521 1854.01 187.821C1874.81 106.421 1903.91 14.4214 1869.61 -41.1786C1843.51 -83.4786 1764.01 -227.279 1639.61 -253.679C1258.51 -335.679 1186.71 -120.179 1141.11 -106.479" stroke="#5B6BB2" stroke-width="1.7218" stroke-miterlimit="10"/>
<path opacity="0.6079" d="M1155.21 -104.778C1114.61 -90.5784 1074.91 -84.0784 1029.61 -77.4784C1019.01 -75.8784 1006.51 -74.5784 994.308 -72.1784C984.308 -70.2784 974.808 -67.3784 966.808 -63.1784C953.708 -56.1784 944.708 -36.9784 937.708 -25.1784C925.608 -4.67841 918.008 18.3216 917.008 41.8216C915.408 78.3216 932.208 116.522 963.908 134.722C998.108 154.222 1040.11 148.522 1081.31 156.422C1137.01 167.122 1190.31 207.722 1212.31 260.122C1223.61 287.222 1225.71 317.522 1241.21 342.922C1258.71 371.722 1292.71 390.822 1327.01 390.822C1368.41 390.822 1406.71 365.722 1447.71 369.422C1486.71 372.922 1517.81 400.822 1544.31 427.222C1571.11 453.922 1598.71 481.822 1635.01 489.122C1663.81 494.922 1694.41 485.722 1719.41 468.722C1744.01 452.022 1763.61 428.322 1780.61 402.922C1806.61 363.922 1827.81 319.622 1830.91 271.222C1832.71 245.022 1840.01 214.022 1848.31 181.222C1868.41 102.022 1896.51 12.4216 1863.01 -41.6784C1837.61 -82.6784 1760.41 -222.178 1639.61 -247.778C1269.81 -327.278 1199.91 -118.278 1155.61 -104.878" stroke="#5B6BB2" stroke-width="1.7606" stroke-miterlimit="10"/>
<path opacity="0.6201" d="M1169.81 -103.578C1130.31 -89.6785 1091.91 -82.9785 1047.71 -76.5785C1037.41 -75.0785 1025.21 -73.7785 1013.31 -71.4785C1003.61 -69.6785 994.308 -66.8785 986.508 -62.7785C973.708 -55.9785 964.808 -37.3785 958.008 -25.9785C946.108 -6.07845 938.608 16.2215 937.508 39.0215C935.808 74.5215 951.908 111.722 982.608 129.522C1015.71 148.622 1056.51 143.322 1096.71 151.122C1150.81 161.722 1202.91 201.122 1224.51 252.122C1235.61 278.322 1237.71 307.822 1252.81 332.522C1269.91 360.422 1303.01 379.022 1336.41 379.022C1376.71 379.122 1414.01 354.822 1453.91 358.422C1491.81 361.822 1522.11 388.822 1547.91 414.422C1574.01 440.222 1600.91 467.222 1636.21 474.122C1664.11 479.622 1693.91 470.622 1718.11 454.022C1741.91 437.722 1761.01 414.622 1777.41 389.922C1802.61 352.022 1823.11 308.822 1826.01 261.722C1827.71 236.222 1834.71 206.022 1842.71 174.122C1862.01 97.0215 1889.31 9.92153 1856.51 -42.6785C1831.81 -82.3785 1756.91 -217.578 1639.61 -242.378C1281.11 -319.378 1213.01 -116.878 1170.11 -103.778" stroke="#5B6BB2" stroke-width="1.7993" stroke-miterlimit="10"/>
<path opacity="0.6324" d="M1184.31 -102.278C1146.01 -88.5784 1108.91 -81.7784 1065.71 -75.5784C1055.71 -74.0784 1043.81 -72.8784 1032.21 -70.6784C1022.71 -68.8784 1013.61 -66.1784 1006.11 -62.2784C993.608 -55.6784 984.908 -37.6784 978.208 -26.6784C966.508 -7.37842 959.108 14.2216 957.908 36.3216C956.008 70.8216 971.508 107.122 1001.31 124.522C1033.31 143.222 1073.01 138.322 1112.11 146.122C1164.71 156.622 1215.41 194.822 1236.71 244.322C1247.61 269.722 1249.81 298.322 1264.51 322.222C1281.21 349.322 1313.41 367.322 1345.81 367.422C1385.01 367.522 1421.31 344.122 1460.01 347.522C1496.91 350.822 1526.41 377.022 1551.51 401.722C1577.01 426.722 1603.11 452.722 1637.41 459.322C1664.51 464.522 1693.31 455.722 1716.81 439.422C1739.91 423.522 1758.31 401.022 1774.11 376.922C1798.41 340.022 1818.21 298.122 1821.01 252.222C1822.61 227.422 1829.31 198.122 1837.11 167.122C1855.71 92.2215 1882.01 7.52158 1850.11 -43.5784C1826.11 -81.9784 1753.51 -212.878 1639.81 -236.878C1292.61 -311.378 1226.41 -115.378 1184.81 -102.578" stroke="#5B6BB2" stroke-width="1.838" stroke-miterlimit="10"/>
<path opacity="0.6446" d="M1198.91 -100.979C1161.71 -87.4785 1125.91 -80.4785 1083.81 -74.4785C1074.01 -73.0785 1062.51 -71.8785 1051.11 -69.7785C1041.91 -68.0785 1033.01 -65.4785 1025.71 -61.6785C1013.51 -55.2785 1005.01 -37.9785 998.408 -27.2785C986.908 -8.67855 979.608 12.3215 978.308 33.7215C976.308 67.2215 991.108 102.521 1019.91 119.621C1050.91 138.021 1089.31 133.421 1127.41 141.221C1178.51 151.521 1227.91 188.621 1248.91 236.621C1259.61 261.221 1261.81 288.921 1276.21 312.021C1292.51 338.221 1323.71 355.721 1355.21 355.821C1393.21 356.021 1428.51 333.321 1466.21 336.721C1502.01 339.921 1530.71 365.321 1555.21 389.121C1580.01 413.321 1605.51 438.321 1638.71 444.521C1665.01 449.421 1692.81 440.821 1715.61 424.921C1737.91 409.421 1755.71 387.521 1771.01 364.121C1794.41 328.321 1813.61 287.521 1816.21 242.921C1817.71 218.821 1824.21 190.321 1831.61 160.221C1849.51 87.4215 1874.91 5.22144 1843.71 -44.3786C1820.41 -81.4786 1750.11 -208.079 1640.01 -231.279C1304.11 -303.279 1239.71 -113.679 1199.41 -101.279" stroke="#5B6BB2" stroke-width="1.8768" stroke-miterlimit="10"/>
<path opacity="0.6569" d="M1213.41 -99.7785C1177.41 -86.4785 1142.81 -79.3785 1101.81 -73.5785C1092.31 -72.1785 1081.11 -71.0785 1070.01 -69.0785C1061.01 -67.4785 1052.41 -64.9785 1045.31 -61.2785C1033.41 -55.1785 1025.11 -38.3785 1018.61 -28.0785C1007.31 -10.0785 1000.11 10.2215 998.708 30.9215C996.508 63.4215 1010.61 97.7215 1038.51 114.422C1068.41 132.422 1105.71 128.322 1142.71 135.922C1192.21 146.122 1240.41 182.022 1261.01 228.522C1271.51 252.322 1273.71 279.022 1287.71 301.422C1303.61 326.822 1333.91 343.722 1364.51 343.822C1401.41 344.022 1435.71 322.222 1472.21 325.522C1507.01 328.722 1534.91 353.122 1558.71 376.122C1582.81 399.422 1607.61 423.522 1639.81 429.422C1665.21 434.022 1692.21 425.522 1714.21 410.122C1735.71 395.022 1752.91 373.722 1767.71 351.022C1790.31 316.222 1808.71 276.622 1811.21 233.322C1812.61 209.922 1818.81 182.322 1825.91 153.022C1843.01 82.4215 1867.51 2.62154 1837.21 -45.4785C1814.61 -81.2785 1746.61 -203.578 1640.11 -225.978C1315.51 -295.478 1253.01 -112.378 1214.01 -100.278" stroke="#5B6BB2" stroke-width="1.9155" stroke-miterlimit="10"/>
<path opacity="0.6692" d="M1228.01 -98.4785C1193.11 -85.4785 1159.81 -78.1785 1119.91 -72.4785C1110.71 -71.1785 1099.81 -70.0785 1089.01 -68.1785C1080.31 -66.5785 1071.91 -64.1785 1065.01 -60.6785C1053.41 -54.7785 1045.31 -38.5785 1038.91 -28.6785C1027.81 -11.2785 1020.71 8.32148 1019.31 28.4215C1017.01 59.9215 1030.41 93.2215 1057.31 109.621C1086.21 127.221 1122.21 123.521 1158.21 131.121C1206.21 141.221 1253.11 175.922 1273.41 221.022C1283.71 243.922 1285.91 269.821 1299.61 291.421C1315.11 315.921 1344.51 332.221 1374.11 332.421C1409.91 332.621 1443.11 311.721 1478.51 314.921C1512.31 318.021 1539.31 341.621 1562.41 363.721C1585.91 386.221 1609.91 409.321 1641.11 414.821C1665.71 419.221 1691.71 410.821 1712.91 395.721C1733.71 381.021 1750.21 360.421 1764.41 338.221C1786.11 304.421 1803.91 266.121 1806.21 224.121C1807.51 201.421 1813.51 174.622 1820.21 146.322C1836.61 77.8215 1860.11 0.521507 1830.61 -46.0785C1808.71 -80.6785 1742.91 -198.379 1640.11 -220.179C1326.61 -286.579 1266.21 -110.579 1228.51 -98.7785" stroke="#5B6BB2" stroke-width="1.9542" stroke-miterlimit="10"/>
<path opacity="0.6814" d="M1242.61 -97.1786C1208.91 -84.3786 1176.81 -76.9786 1138.01 -71.4786C1129.01 -70.1786 1118.41 -69.1786 1108.01 -67.2786C1099.51 -65.7786 1091.41 -63.4786 1084.71 -60.0786C1073.41 -54.3786 1065.41 -38.8786 1059.21 -29.2786C1048.31 -12.5786 1041.41 6.4214 1039.81 25.8214C1037.31 56.2214 1050.11 88.6214 1076.01 104.621C1103.81 121.821 1138.61 118.521 1173.61 126.021C1220.11 136.021 1265.61 169.521 1285.61 213.121C1295.71 235.221 1298.01 260.221 1311.31 281.021C1326.41 304.621 1354.91 320.421 1383.61 320.621C1418.31 320.921 1450.51 300.721 1484.81 303.821C1517.51 306.821 1543.71 329.621 1566.21 350.821C1589.01 372.421 1612.41 394.621 1642.41 399.821C1666.21 403.921 1691.21 395.721 1711.71 381.021C1731.71 366.721 1747.61 346.721 1761.31 325.221C1782.21 292.521 1799.21 255.321 1801.31 214.621C1802.51 192.621 1808.21 166.721 1814.71 139.221C1830.31 72.9214 1853.01 -1.97859 1824.21 -46.9786C1802.91 -80.2786 1739.51 -193.679 1640.31 -214.679C1338.11 -278.579 1279.51 -109.079 1243.21 -97.5786" stroke="#5B6BB2" stroke-width="1.993" stroke-miterlimit="10"/>
<path opacity="0.6937" d="M1257.11 -95.9785C1224.51 -83.3785 1193.71 -75.8785 1155.91 -70.4785C1147.21 -69.2785 1136.91 -68.2785 1126.81 -66.4785C1118.61 -65.0785 1110.71 -62.8785 1104.11 -59.5785C1093.11 -54.1785 1085.31 -39.1785 1079.21 -29.9785C1068.51 -13.8785 1061.71 4.42147 1060.01 23.1215C1057.41 52.5215 1069.51 83.9215 1094.51 99.6215C1121.21 116.421 1154.91 113.621 1188.81 121.021C1233.71 130.921 1278.01 163.321 1297.71 205.321C1307.61 226.621 1309.91 250.721 1322.91 270.721C1337.61 293.521 1365.11 308.721 1392.91 308.921C1426.51 309.221 1457.71 289.921 1490.81 292.921C1522.51 295.821 1547.91 317.721 1569.71 338.221C1591.81 359.021 1614.51 380.221 1643.51 385.021C1666.41 388.821 1690.61 380.821 1710.31 366.521C1729.51 352.621 1744.81 333.221 1758.01 312.421C1778.01 280.721 1794.41 244.721 1796.31 205.321C1797.41 184.021 1802.81 158.921 1809.01 132.421C1823.91 68.2215 1845.61 -4.17851 1817.71 -47.6785C1797.11 -79.6785 1736.01 -188.779 1640.41 -208.979C1349.51 -270.379 1292.81 -107.379 1257.81 -96.1785" stroke="#5B6BB2" stroke-width="2.0317" stroke-miterlimit="10"/>
<path opacity="0.7059" d="M1271.71 -94.6786C1240.21 -82.2786 1210.81 -74.6786 1174.01 -69.4786C1165.61 -68.2786 1155.61 -67.2786 1145.81 -65.6786C1137.81 -64.3786 1130.21 -62.2786 1123.81 -59.1786C1113.11 -53.9786 1105.51 -39.6786 1099.51 -30.7786C1089.11 -15.2786 1082.31 2.32141 1080.51 20.3214C1077.71 48.7214 1089.21 79.1214 1113.21 94.5214C1138.91 110.921 1171.31 108.521 1204.21 115.821C1247.61 125.521 1290.61 156.821 1309.91 197.321C1319.61 217.721 1321.91 240.921 1334.51 260.321C1348.81 282.221 1375.41 296.921 1402.21 297.221C1434.71 297.621 1464.81 279.121 1496.91 282.021C1527.61 284.821 1552.11 305.921 1573.21 325.521C1594.71 345.421 1616.61 365.721 1644.61 370.121C1666.71 373.621 1689.91 365.821 1708.91 351.921C1727.31 338.421 1742.01 319.621 1754.61 299.421C1773.81 268.721 1789.41 234.021 1791.21 195.821C1792.21 175.221 1797.41 151.021 1803.21 125.321C1817.31 63.3214 1838.21 -6.67859 1811.01 -48.6786C1791.11 -79.3786 1732.31 -184.179 1640.21 -203.479C1360.61 -262.379 1305.81 -105.879 1272.01 -94.9786" stroke="#5B6BB2" stroke-width="2.0704" stroke-miterlimit="10"/>
<path opacity="0.7182" d="M1286.21 -93.3785C1255.91 -81.2785 1227.71 -73.4785 1192.01 -68.4785C1183.91 -67.3785 1174.21 -66.3785 1164.71 -64.8785C1157.01 -63.5785 1149.61 -61.5785 1143.41 -58.6785C1133.01 -53.6785 1125.61 -39.9785 1119.71 -31.3785C1109.51 -16.4785 1102.81 0.421473 1100.91 17.8215C1098.01 45.2215 1108.71 74.6215 1131.81 89.6215C1156.41 105.621 1187.71 103.621 1219.41 110.921C1261.21 120.521 1303.01 150.621 1321.91 189.621C1331.41 209.221 1333.81 231.521 1346.01 250.121C1359.91 271.221 1385.61 285.321 1411.51 285.621C1442.81 286.021 1472.01 268.321 1502.91 271.221C1532.51 273.921 1556.31 294.221 1576.71 312.921C1597.51 332.021 1618.71 351.321 1645.71 355.421C1667.01 358.721 1689.31 351.021 1707.51 337.421C1725.21 324.321 1739.21 306.121 1751.31 286.621C1769.61 257.021 1784.61 223.421 1786.21 186.521C1787.11 166.621 1792.01 143.221 1797.61 118.421C1811.01 58.6214 1830.91 -8.97852 1804.61 -49.4785C1785.41 -78.8785 1728.81 -179.379 1640.41 -197.879C1372.01 -254.279 1319.11 -104.279 1286.71 -93.6785" stroke="#5B6BB2" stroke-width="2.1092" stroke-miterlimit="10"/>
<path opacity="0.7304" d="M1300.81 -92.1784C1271.61 -80.2784 1244.71 -72.3784 1210.11 -67.4784C1202.21 -66.3784 1192.91 -65.4784 1183.71 -64.0784C1176.21 -62.8784 1169.11 -60.9784 1163.11 -58.1784C1153.01 -53.3784 1145.81 -40.2784 1140.01 -32.0784C1130.01 -17.8784 1123.41 -1.57845 1121.51 15.1216C1118.41 41.5216 1128.51 69.9216 1150.61 84.6216C1174.11 100.222 1204.21 98.6215 1234.91 105.922C1275.21 115.422 1315.61 144.322 1334.31 181.922C1343.61 200.722 1346.01 222.122 1357.91 239.922C1371.31 260.122 1396.11 273.622 1421.11 274.022C1451.31 274.522 1479.41 257.622 1509.21 260.422C1537.81 263.122 1560.71 282.422 1580.51 300.322C1600.61 318.522 1621.21 336.822 1647.11 340.622C1667.51 343.622 1688.91 336.022 1706.41 322.922C1723.31 310.222 1736.71 292.722 1748.31 273.822C1765.81 245.222 1780.01 212.822 1781.51 177.322C1782.31 158.122 1786.91 135.622 1792.21 111.722C1804.81 54.0216 1823.91 -11.0784 1798.31 -50.0784C1779.81 -78.2784 1725.51 -174.378 1640.71 -192.078C1383.61 -245.978 1332.61 -102.378 1301.51 -92.1784" stroke="#5B6BB2" stroke-width="2.1479" stroke-miterlimit="10"/>
<path opacity="0.7427" d="M1315.41 -90.8784C1287.41 -79.1784 1261.71 -71.0784 1228.21 -66.4784C1220.61 -65.3784 1211.61 -64.5784 1202.71 -63.2784C1195.51 -62.1784 1188.61 -60.3784 1182.81 -57.6784C1173.01 -53.1784 1166.01 -40.6784 1160.31 -32.7784C1150.51 -19.1784 1144.01 -3.67842 1142.01 12.4216C1138.81 37.8216 1148.21 65.3216 1169.31 79.6216C1191.81 94.8216 1220.71 93.6216 1250.31 100.822C1289.11 110.222 1328.21 137.922 1346.51 174.022C1355.61 191.922 1358.01 212.422 1369.51 229.522C1382.51 248.822 1406.41 261.822 1430.51 262.222C1459.61 262.722 1486.71 246.722 1515.41 249.322C1542.91 251.922 1565.11 270.422 1584.21 287.422C1603.71 304.822 1623.51 322.122 1648.41 325.622C1668.01 328.322 1688.41 320.922 1705.11 308.222C1721.21 295.922 1734.01 279.022 1745.01 260.722C1761.61 233.222 1775.21 202.022 1776.51 167.722C1777.31 149.222 1781.61 127.522 1786.51 104.522C1798.41 49.0216 1816.51 -13.6784 1791.71 -51.1784C1773.91 -78.0784 1721.91 -169.778 1640.71 -186.778C1394.91 -238.178 1345.71 -101.078 1316.01 -91.1784" stroke="#5B6BB2" stroke-width="2.1866" stroke-miterlimit="10"/>
<path opacity="0.7549" d="M1329.91 -89.5785C1303.01 -78.0785 1278.61 -69.8785 1246.21 -65.3785C1238.91 -64.3785 1230.21 -63.5785 1221.61 -62.2785C1214.61 -61.2785 1208.01 -59.4785 1202.41 -56.9785C1192.91 -52.6785 1186.01 -40.7785 1180.51 -33.2785C1170.91 -20.2785 1164.51 -5.47854 1162.41 9.92146C1159.01 34.3215 1167.81 60.8215 1188.01 74.7215C1209.41 89.5215 1237.11 88.8214 1265.71 95.9214C1302.91 105.221 1340.81 131.721 1358.81 166.321C1367.71 183.421 1370.11 203.021 1381.31 219.321C1393.91 237.821 1416.91 250.221 1440.01 250.621C1468.01 251.221 1494.01 235.921 1521.61 238.521C1548.11 241.021 1569.41 258.621 1587.81 274.821C1606.61 291.321 1625.71 307.721 1649.61 310.821C1668.41 313.221 1687.91 306.021 1703.81 293.621C1719.21 281.721 1731.41 265.421 1741.81 247.821C1757.61 221.321 1770.41 191.321 1771.51 158.321C1772.21 140.521 1776.21 119.721 1780.81 97.6215C1791.91 44.2215 1809.21 -15.9785 1785.21 -51.9785C1768.11 -77.5785 1718.41 -164.979 1640.81 -181.179C1406.31 -230.079 1359.01 -99.4785 1330.61 -89.8785" stroke="#5B6BB2" stroke-width="2.2254" stroke-miterlimit="10"/>
<path opacity="0.7672" d="M1344.51 -88.3786C1318.81 -77.1786 1295.61 -68.7786 1264.31 -64.4786C1257.21 -63.4786 1248.91 -62.7786 1240.61 -61.5786C1233.91 -60.5786 1227.51 -58.9786 1222.11 -56.5786C1212.91 -52.4786 1206.21 -41.1786 1200.81 -34.0786C1191.41 -21.6786 1185.21 -7.57855 1182.91 7.22145C1179.41 30.6215 1187.51 56.1215 1206.71 69.7215C1227.11 84.2215 1253.61 83.8214 1281.11 90.8214C1316.81 99.9214 1353.31 125.321 1371.01 158.421C1379.71 174.721 1382.21 193.421 1393.01 208.921C1405.21 226.521 1427.31 238.421 1449.41 238.821C1476.31 239.421 1501.31 225.021 1527.81 227.521C1553.31 229.921 1573.81 246.721 1591.51 262.021C1609.61 277.721 1628.01 293.121 1650.91 295.921C1668.81 298.021 1687.41 291.021 1702.61 279.021C1717.21 267.521 1728.81 251.821 1738.71 234.921C1753.61 209.421 1765.81 180.721 1766.71 148.921C1767.31 131.821 1771.11 111.821 1775.41 90.6214C1785.81 39.4214 1802.11 -18.3786 1778.91 -52.8786C1762.31 -77.1786 1714.91 -160.279 1640.91 -175.579C1417.71 -221.879 1372.31 -97.8786 1345.11 -88.5786" stroke="#5B6BB2" stroke-width="2.2641" stroke-miterlimit="10"/>
<path opacity="0.7794" d="M1359.01 -87.0784C1334.41 -76.0784 1312.61 -67.5784 1282.21 -63.3784C1275.41 -62.4784 1267.41 -61.7784 1259.31 -60.6784C1252.81 -59.7784 1246.71 -58.2784 1241.41 -55.9784C1232.51 -52.1784 1226.01 -41.4784 1220.81 -34.6784C1211.61 -22.9784 1205.51 -9.47842 1203.11 4.62158C1199.41 27.0216 1206.91 51.5216 1225.11 64.8216C1244.41 78.9216 1269.71 78.9216 1296.21 85.9216C1330.41 94.9216 1365.61 119.122 1382.91 150.822C1391.41 166.222 1393.91 184.122 1404.31 198.822C1416.11 215.622 1437.21 226.922 1458.51 227.422C1484.31 228.022 1508.31 214.522 1533.61 216.922C1558.01 219.222 1577.71 235.222 1594.81 249.622C1612.31 264.422 1630.01 278.922 1651.71 281.322C1668.81 283.222 1686.51 276.322 1700.91 264.722C1714.71 253.622 1725.71 238.522 1735.11 222.222C1749.11 197.822 1760.61 170.222 1761.41 139.822C1761.91 123.422 1765.41 104.322 1769.41 84.0216C1779.01 34.9216 1794.51 -20.3784 1772.01 -53.3784C1756.31 -76.3784 1711.21 -155.178 1640.81 -169.778C1428.91 -213.578 1385.31 -96.0784 1359.51 -87.0784" stroke="#5B6BB2" stroke-width="2.3028" stroke-miterlimit="10"/>
<path opacity="0.7917" d="M1373.61 -85.7785C1350.21 -74.9785 1329.61 -66.2785 1300.31 -62.3785C1293.81 -61.4785 1286.11 -60.8785 1278.31 -59.8785C1272.11 -59.0785 1266.21 -57.5784 1261.11 -55.4784C1252.51 -51.8784 1246.21 -41.7785 1241.11 -35.3785C1232.11 -24.2785 1226.11 -11.4784 1223.71 1.92155C1219.81 23.3216 1226.61 46.8216 1243.91 59.7216C1262.11 73.4216 1286.31 73.8215 1311.71 80.8215C1344.31 89.7215 1378.21 112.722 1395.31 142.922C1403.61 157.522 1406.11 174.422 1416.21 188.522C1427.61 204.422 1447.81 215.222 1468.11 215.722C1492.71 216.422 1515.71 203.622 1539.91 205.922C1563.31 208.122 1582.21 223.222 1598.51 236.822C1615.31 250.822 1632.31 264.322 1653.01 266.322C1669.31 267.922 1686.01 261.222 1699.71 249.922C1712.81 239.222 1723.11 224.722 1731.91 209.122C1745.11 185.722 1755.81 159.322 1756.51 130.222C1756.91 114.522 1760.11 96.2215 1763.81 76.8215C1772.71 29.9215 1787.21 -22.9784 1765.61 -54.4784C1750.61 -76.2784 1707.71 -150.678 1641.01 -164.478C1440.31 -205.778 1398.71 -94.7785 1374.21 -86.0785" stroke="#5B6BB2" stroke-width="2.3415" stroke-miterlimit="10"/>
<path opacity="0.8039" d="M1388.21 -84.5786C1365.91 -73.9786 1346.61 -65.1786 1318.41 -61.4786C1312.21 -60.6786 1304.81 -60.0786 1297.31 -59.1786C1291.31 -58.4786 1285.71 -57.0786 1280.81 -55.0786C1272.51 -51.6786 1266.41 -42.1786 1261.41 -36.1786C1252.61 -25.6786 1246.71 -13.5786 1244.21 -0.878616C1240.21 19.4214 1246.31 42.0214 1262.61 54.6214C1279.81 67.9214 1302.71 68.7214 1327.11 75.6214C1358.21 84.3214 1390.81 106.221 1407.51 134.921C1415.51 148.721 1418.11 164.721 1427.91 178.021C1438.91 193.021 1458.21 203.221 1477.61 203.821C1501.11 204.521 1523.11 192.621 1546.21 194.821C1568.51 197.021 1586.61 211.221 1602.31 224.021C1618.51 237.121 1634.71 249.721 1654.41 251.421C1669.81 252.721 1685.61 246.221 1698.51 235.321C1710.81 225.021 1720.51 211.221 1728.81 196.221C1741.11 173.921 1751.21 148.721 1751.71 120.821C1752.01 105.821 1755.01 88.3214 1758.31 69.8214C1766.41 25.0214 1780.11 -25.3786 1759.21 -55.2786C1744.91 -75.7786 1704.31 -145.879 1641.11 -158.879C1451.71 -197.679 1411.91 -93.1786 1388.81 -84.7786" stroke="#5B6BB2" stroke-width="2.3803" stroke-miterlimit="10"/>
<path opacity="0.8162" d="M1402.71 -83.2785C1381.61 -72.9785 1363.51 -63.9785 1336.41 -60.3785C1330.41 -59.5785 1323.41 -59.0785 1316.21 -58.2785C1310.51 -57.5785 1305.11 -56.3785 1300.41 -54.5785C1292.41 -51.4785 1286.51 -42.5785 1281.61 -36.8785C1273.11 -27.0785 1267.21 -15.5785 1264.61 -3.47847C1260.41 15.8215 1265.91 37.4215 1281.31 49.7215C1297.41 62.6215 1319.11 63.9215 1342.51 70.7215C1372.11 79.3215 1403.31 100.022 1419.81 127.222C1427.61 140.222 1430.31 155.322 1439.61 167.822C1450.21 182.022 1468.51 191.622 1487.01 192.222C1509.41 193.022 1530.31 181.922 1552.31 184.022C1573.61 186.122 1590.91 199.521 1605.91 211.421C1621.41 223.721 1636.91 235.321 1655.61 236.621C1670.21 237.621 1685.11 231.222 1697.21 220.822C1708.71 210.922 1717.81 197.722 1725.61 183.322C1737.11 162.022 1746.41 138.021 1746.81 111.421C1747.01 97.1215 1749.71 80.5215 1752.81 62.9215C1760.21 20.3215 1773.01 -27.6785 1752.91 -56.0785C1739.31 -75.2785 1701.01 -141.078 1641.41 -153.278C1463.31 -189.578 1425.41 -91.5785 1403.61 -83.4785" stroke="#5B6BB2" stroke-width="2.419" stroke-miterlimit="10"/>
<path opacity="0.8285" d="M1417.31 -82.0784C1397.31 -71.9784 1380.51 -62.8784 1354.51 -59.4784C1348.81 -58.7784 1342.11 -58.2784 1335.21 -57.4784C1329.81 -56.8784 1324.51 -55.7784 1320.11 -54.0784C1312.41 -51.1784 1306.61 -42.8784 1301.91 -37.5784C1293.61 -28.3784 1287.81 -17.5784 1285.11 -6.17844C1280.81 12.1216 1285.61 32.7216 1300.01 44.6216C1315.01 57.1216 1335.61 58.8216 1357.91 65.5216C1385.91 74.0216 1415.91 93.5216 1432.01 119.222C1439.61 131.322 1442.31 145.622 1451.31 157.322C1461.51 170.622 1478.91 179.722 1496.41 180.322C1517.71 181.122 1537.61 170.822 1558.51 172.922C1578.81 174.922 1595.21 187.422 1609.61 198.522C1624.41 209.922 1639.31 220.622 1656.91 221.622C1670.71 222.422 1684.61 216.122 1696.01 206.122C1706.71 196.622 1715.21 184.022 1722.41 170.322C1733.01 150.122 1741.71 127.222 1741.81 101.922C1741.91 88.3215 1744.41 72.5216 1747.11 55.8216C1753.71 15.4216 1765.61 -30.1784 1746.31 -57.0784C1733.41 -74.9784 1697.41 -136.478 1641.41 -147.878C1474.61 -181.678 1438.61 -90.0784 1418.01 -82.3784" stroke="#5B6BB2" stroke-width="2.4577" stroke-miterlimit="10"/>
<path opacity="0.8407" d="M1431.81 -80.7784C1413.01 -70.8784 1397.41 -61.5784 1372.51 -58.3784C1367.11 -57.6784 1360.71 -57.2784 1354.11 -56.5784C1348.91 -56.0784 1343.91 -54.9784 1339.71 -53.4784C1332.31 -50.7784 1326.71 -43.0784 1322.11 -38.1784C1314.01 -29.5784 1308.31 -19.4784 1305.61 -8.77841C1301.11 8.52159 1305.31 28.1216 1318.71 39.7216C1332.71 51.8216 1352.01 53.9216 1373.31 60.6216C1399.81 68.9216 1428.41 87.3216 1444.21 111.622C1451.61 122.922 1454.31 136.222 1463.01 147.222C1472.81 159.722 1489.31 168.222 1505.91 168.822C1526.11 169.722 1545.01 160.222 1564.71 162.122C1583.91 164.022 1599.61 175.722 1613.21 185.922C1627.41 196.522 1641.51 206.222 1658.11 206.822C1671.01 207.322 1684.11 201.222 1694.71 191.522C1704.71 182.422 1712.51 170.422 1719.21 157.422C1729.01 138.222 1736.91 116.622 1736.91 92.6216C1736.91 79.7216 1739.11 64.8216 1741.51 49.0216C1747.41 10.7216 1758.41 -32.3784 1739.81 -57.7784C1727.61 -74.4784 1693.91 -131.578 1641.51 -142.078C1486.01 -173.378 1451.81 -88.2784 1432.61 -80.8784" stroke="#5B6BB2" stroke-width="2.4965" stroke-miterlimit="10"/>
<path opacity="0.853" d="M1446.41 -79.4784C1428.71 -69.7784 1414.51 -60.3784 1390.61 -57.3784C1385.41 -56.6784 1379.31 -56.3784 1373.11 -55.7784C1368.21 -55.3784 1363.41 -54.3784 1359.31 -52.9784C1352.21 -50.5784 1346.81 -43.4784 1342.31 -38.8784C1334.41 -30.8784 1328.81 -21.4784 1326.01 -11.4784C1321.31 4.82162 1324.81 23.4216 1337.31 34.7216C1350.21 46.4216 1368.41 48.9216 1388.61 55.5216C1413.61 63.7216 1440.91 80.9216 1456.41 103.722C1463.51 114.222 1466.41 126.622 1474.71 136.822C1484.11 148.422 1499.71 156.422 1515.31 157.122C1534.41 158.022 1552.21 149.422 1570.81 151.222C1589.01 153.022 1603.81 163.922 1616.81 173.222C1630.31 182.922 1643.71 191.722 1659.31 191.922C1671.41 192.122 1683.51 186.222 1693.41 176.922C1702.61 168.222 1709.81 156.922 1716.01 144.422C1724.91 126.222 1732.21 105.822 1732.01 83.1216C1731.91 70.9216 1733.81 56.8216 1736.01 41.9216C1741.11 5.82159 1751.21 -34.8784 1733.51 -58.7784C1722.11 -74.1784 1690.61 -126.978 1641.81 -136.678C1497.61 -165.478 1465.31 -86.8784 1447.41 -79.7784" stroke="#5B6BB2" stroke-width="2.5352" stroke-miterlimit="10"/>
<path opacity="0.8652" d="M1461.01 -78.2786C1444.51 -68.8786 1431.51 -59.2786 1408.61 -56.3786C1403.71 -55.7786 1397.91 -55.4786 1392.01 -54.9786C1387.31 -54.5786 1382.81 -53.7786 1378.91 -52.4786C1372.11 -50.2786 1366.91 -43.7786 1362.51 -39.5786C1354.81 -32.2786 1349.31 -23.4786 1346.41 -14.1786C1341.61 1.1214 1344.41 18.7214 1355.91 29.6214C1367.81 40.9214 1384.71 43.8214 1403.91 50.4214C1427.31 58.5214 1453.31 74.5214 1468.51 95.8214C1475.41 105.421 1478.31 117.021 1486.21 126.421C1495.21 137.121 1509.81 144.521 1524.61 145.321C1542.51 146.321 1559.41 138.421 1576.91 140.221C1594.01 142.021 1608.11 151.921 1620.41 160.421C1633.31 169.321 1645.91 176.621 1660.41 177.021C1671.71 177.321 1682.81 171.221 1691.91 162.321C1700.31 154.021 1707.01 143.321 1712.51 131.521C1720.61 114.421 1727.21 95.1214 1726.81 73.7214C1726.61 62.2214 1728.31 49.0214 1730.11 34.9214C1734.51 0.921371 1743.71 -37.2786 1726.71 -59.6786C1716.01 -73.7786 1686.81 -122.279 1641.61 -131.179C1508.71 -157.479 1478.31 -85.3786 1461.71 -78.5786" stroke="#5B6BB2" stroke-width="2.5739" stroke-miterlimit="10"/>
<path opacity="0.8775" d="M1475.51 -76.9784C1460.11 -67.7784 1448.41 -58.0784 1426.61 -55.3784C1422.01 -54.7784 1416.51 -54.5784 1410.91 -54.1784C1406.51 -53.8784 1402.21 -53.0784 1398.51 -51.9784C1392.01 -49.9784 1387.01 -44.0784 1382.71 -40.2784C1375.21 -33.5784 1369.81 -25.4784 1366.81 -16.7784C1361.81 -2.47843 1364.01 14.1216 1374.61 24.7216C1385.41 35.6216 1401.21 38.9216 1419.31 45.5216C1441.21 53.4216 1465.81 68.3216 1480.81 88.1216C1487.51 96.9216 1490.41 107.522 1498.01 116.322C1506.61 126.222 1520.31 133.022 1534.11 133.822C1550.91 134.822 1566.71 127.822 1583.11 129.522C1599.21 131.222 1612.51 140.322 1624.01 147.922C1636.21 155.922 1648.21 162.822 1661.61 162.322C1672.01 162.022 1682.31 156.422 1690.61 147.822C1698.31 139.922 1704.31 129.822 1709.31 118.722C1716.61 102.622 1722.41 84.6216 1721.91 64.4216C1721.61 53.7216 1723.01 41.2216 1724.51 28.1216C1728.21 -3.67843 1736.51 -39.4784 1720.21 -60.3784C1710.21 -73.2784 1683.21 -117.378 1641.71 -125.478C1520.01 -149.278 1491.51 -83.6784 1476.31 -77.1784" stroke="#5B6BB2" stroke-width="2.6127" stroke-miterlimit="10"/>
<path opacity="0.8897" d="M1490.11 -75.6784C1475.91 -66.6784 1465.41 -56.7784 1444.71 -54.3784C1440.41 -53.8784 1435.21 -53.5784 1429.91 -53.3784C1425.71 -53.1784 1421.71 -52.4784 1418.21 -51.4784C1412.01 -49.6784 1407.11 -44.4784 1403.01 -40.9784C1395.71 -34.8784 1390.41 -27.4784 1387.31 -19.4784C1382.11 -6.17839 1383.71 9.42163 1393.31 19.7216C1403.01 30.2216 1417.61 33.9216 1434.61 40.4216C1454.91 48.2216 1478.21 62.0216 1492.91 80.3216C1499.31 88.3216 1502.31 98.0216 1509.61 106.022C1517.81 115.022 1530.61 121.322 1543.41 122.122C1559.11 123.122 1573.91 117.022 1589.21 118.622C1604.31 120.222 1616.71 128.422 1627.61 135.222C1639.21 142.422 1650.41 148.322 1662.81 147.522C1672.41 146.922 1681.71 141.522 1689.31 133.322C1696.21 125.922 1701.61 116.322 1706.11 105.822C1712.51 90.8216 1717.71 73.9216 1717.01 55.0216C1716.61 45.0216 1717.71 33.4216 1718.91 21.1216C1721.81 -8.5784 1729.31 -41.8784 1713.81 -61.2784C1704.61 -72.8784 1679.81 -112.678 1641.81 -119.978C1531.41 -141.278 1504.81 -82.1784 1490.81 -75.9784" stroke="#5B6BB2" stroke-width="2.6514" stroke-miterlimit="10"/>
<path opacity="0.902" d="M1504.61 -74.4784C1491.51 -65.6784 1482.31 -55.6784 1462.71 -53.3784C1458.61 -52.8784 1453.81 -52.6783 1448.81 -52.4783C1444.91 -52.2783 1441.11 -51.7784 1437.81 -50.8784C1431.91 -49.3784 1427.21 -44.6784 1423.21 -41.5784C1416.11 -36.1784 1410.91 -29.3784 1407.81 -22.0784C1402.41 -9.77835 1403.41 4.82166 1412.01 14.7217C1420.71 24.7217 1434.11 28.9216 1450.01 35.4216C1468.81 43.0216 1490.71 55.7217 1505.11 72.5217C1511.31 79.7217 1514.41 88.5217 1521.21 95.7217C1529.01 103.822 1540.91 109.622 1552.81 110.422C1567.41 111.522 1581.11 106.122 1595.31 107.622C1609.31 109.122 1621.01 116.522 1631.21 122.422C1642.11 128.722 1652.61 133.722 1664.01 132.522C1672.71 131.622 1681.21 126.422 1688.01 118.622C1694.11 111.622 1698.91 102.722 1702.81 92.8216C1708.41 78.9216 1712.81 63.1216 1711.91 45.6216C1711.41 36.3216 1712.31 25.5217 1713.21 14.2217C1715.41 -13.2783 1722.01 -44.1784 1707.21 -62.0784C1698.71 -72.3784 1676.21 -107.878 1641.81 -114.378C1542.71 -133.178 1517.91 -80.5784 1505.31 -74.6784" stroke="#5B6BB2" stroke-width="2.6901" stroke-miterlimit="10"/>
<path opacity="0.9142" d="M1519.21 -73.1784C1507.31 -64.6784 1499.31 -54.4784 1480.81 -52.3784C1477.01 -51.9784 1472.51 -51.7784 1467.81 -51.6784C1464.11 -51.5784 1460.61 -51.1784 1457.51 -50.3784C1451.91 -49.0784 1447.41 -44.9784 1443.51 -42.2784C1436.61 -37.4784 1431.51 -31.3784 1428.31 -24.7784C1422.71 -13.4784 1423.11 0.121618 1430.71 9.72162C1438.31 19.3216 1450.51 23.9216 1465.41 30.3216C1482.71 37.7216 1503.11 49.3216 1517.41 64.6216C1523.31 70.9216 1526.51 78.9216 1533.01 85.3216C1540.31 92.6216 1551.31 97.8216 1562.31 98.6216C1575.81 99.7216 1588.51 95.2216 1601.51 96.6216C1614.51 98.0216 1625.31 104.622 1634.91 109.622C1645.21 115.122 1654.91 119.122 1665.31 117.622C1673.21 116.522 1680.71 111.422 1686.81 103.922C1692.21 97.3216 1696.31 89.0216 1699.71 79.8216C1704.41 66.9216 1708.21 52.4216 1707.11 36.1216C1706.51 27.5216 1707.11 17.6216 1707.71 7.12158C1709.11 -18.1784 1714.91 -46.6784 1700.91 -62.9784C1693.21 -72.0784 1672.91 -103.178 1642.11 -108.878C1554.31 -125.178 1531.41 -79.0784 1520.11 -73.4784" stroke="#5B6BB2" stroke-width="2.7289" stroke-miterlimit="10"/>
<path opacity="0.9265" d="M1533.81 -71.8786C1523.01 -63.5786 1516.41 -53.1786 1498.91 -51.2786C1495.41 -50.8786 1491.21 -50.7786 1486.71 -50.7786C1483.31 -50.7786 1480.01 -50.3786 1477.11 -49.8786C1471.81 -48.8786 1467.51 -45.3786 1463.71 -42.9786C1457.01 -38.7786 1452.01 -33.3786 1448.71 -27.3786C1442.91 -17.0786 1442.71 -4.57858 1449.31 4.72142C1455.91 13.9214 1466.91 18.9214 1480.71 25.3214C1496.51 32.6214 1515.51 43.0214 1529.51 56.8214C1535.11 62.3214 1538.41 69.3214 1544.61 75.0214C1551.51 81.4214 1561.61 86.0214 1571.61 87.0214C1584.01 88.2214 1595.71 84.5214 1607.61 85.8214C1619.61 87.1214 1629.61 92.8214 1638.41 97.1214C1648.01 101.721 1657.01 104.821 1666.41 102.921C1673.51 101.521 1680.01 96.6214 1685.31 89.5214C1689.91 83.3214 1693.41 75.6214 1696.31 67.0214C1700.21 55.2214 1703.21 41.8214 1702.01 26.8214C1701.41 18.9214 1701.71 9.82142 1701.91 0.22142C1702.61 -22.9786 1707.51 -48.9786 1694.21 -63.7786C1687.21 -71.5786 1669.21 -98.3786 1642.01 -103.279C1565.51 -117.179 1544.51 -77.3786 1534.51 -72.1786" stroke="#5B6BB2" stroke-width="2.7676" stroke-miterlimit="10"/>
<path opacity="0.9387" d="M1548.31 -70.6785C1538.71 -62.5785 1533.31 -52.0786 1516.91 -50.3786C1513.61 -50.0786 1509.81 -49.9785 1505.61 -50.0785C1502.41 -50.1785 1499.41 -49.8785 1496.61 -49.4785C1491.61 -48.6785 1487.51 -45.7785 1483.81 -43.7785C1477.31 -40.2785 1472.41 -35.4785 1469.01 -30.1785C1463.01 -20.8785 1462.21 -9.37855 1467.91 -0.378548C1473.41 8.42145 1483.21 13.8215 1496.01 20.1215C1510.21 27.2215 1527.81 36.6215 1541.71 48.8215C1547.11 53.5215 1550.41 59.6215 1556.21 64.5215C1562.71 70.1215 1571.91 74.1214 1581.01 75.1214C1592.21 76.3214 1602.91 73.4215 1613.71 74.7215C1624.61 76.0215 1633.91 80.8215 1642.01 84.2215C1651.01 88.0215 1659.21 90.1215 1667.61 87.8215C1673.81 86.1215 1679.51 81.4215 1684.01 74.7215C1687.91 69.0215 1690.81 61.8214 1693.01 53.9214C1696.11 43.1214 1698.41 31.0215 1697.01 17.2215C1696.31 10.0215 1696.31 1.82145 1696.31 -6.87855C1696.21 -27.8785 1700.31 -51.4785 1687.71 -64.7785C1681.51 -71.3785 1665.71 -93.6786 1642.11 -97.8786C1576.91 -109.279 1557.71 -75.9785 1549.11 -71.0785" stroke="#5B6BB2" stroke-width="2.8063" stroke-miterlimit="10"/>
<path opacity="0.951" d="M1562.91 -69.3785C1554.41 -61.4785 1550.31 -50.8785 1534.91 -49.2785C1531.91 -48.9785 1528.41 -48.9785 1524.51 -49.1785C1521.61 -49.2785 1518.81 -49.1785 1516.21 -48.8785C1511.51 -48.2785 1507.51 -46.0785 1504.01 -44.3785C1497.71 -41.4785 1492.91 -37.3785 1489.41 -32.7785C1483.21 -24.4785 1481.81 -13.9785 1486.51 -5.27847C1491.01 3.02153 1499.61 8.82156 1511.31 15.2216C1524.01 22.1216 1540.11 30.5216 1553.81 41.2216C1558.91 45.2216 1562.41 50.3215 1567.81 54.4215C1573.91 59.1215 1582.11 62.6215 1590.31 63.6215C1600.41 64.9215 1610.11 62.8215 1619.81 63.9215C1629.71 65.1215 1638.21 69.0215 1645.61 71.6215C1653.91 74.5215 1661.51 75.7215 1668.81 73.1215C1674.21 71.2215 1679.01 66.7215 1682.71 60.3215C1685.81 55.0215 1688.11 48.5216 1689.81 41.2216C1692.11 31.5216 1693.61 20.5215 1692.11 8.12152C1691.31 1.62152 1691.01 -5.77846 1690.71 -13.5785C1689.91 -32.4785 1693.21 -53.5785 1681.31 -65.3785C1675.91 -70.7785 1662.31 -88.6785 1642.31 -92.0785C1588.41 -100.978 1571.11 -74.1785 1563.71 -69.5785" stroke="#5B6BB2" stroke-width="2.8451" stroke-miterlimit="10"/>
<path opacity="0.9632" d="M1577.41 -68.0784C1570.11 -60.4784 1567.21 -49.6784 1552.91 -48.2784C1550.21 -47.9784 1547.01 -48.0784 1543.41 -48.3784C1540.71 -48.5784 1538.21 -48.5784 1535.81 -48.3784C1531.41 -48.0784 1527.61 -46.3784 1524.21 -45.0784C1518.11 -42.7784 1513.41 -39.3784 1509.91 -35.4784C1503.51 -28.2784 1501.51 -18.7784 1505.21 -10.3784C1508.71 -2.47841 1516.01 3.72159 1526.71 10.1216C1537.91 16.8216 1552.51 24.2216 1566.01 33.3216C1570.81 36.5216 1574.41 40.7216 1579.51 44.1216C1585.21 47.9216 1592.51 50.9216 1599.81 51.9216C1608.81 53.2216 1617.41 52.0216 1626.01 53.0216C1634.81 54.1216 1642.51 57.1216 1649.21 58.9216C1656.91 60.9216 1663.71 61.2216 1669.91 58.2216C1674.41 56.0216 1678.31 51.7216 1681.31 45.6216C1683.71 40.7216 1685.31 34.8216 1686.51 28.1216C1688.01 19.5216 1688.81 9.62161 1687.11 -1.47839C1686.21 -7.27839 1685.71 -13.7784 1685.01 -20.6784C1683.41 -37.3784 1686.01 -56.0784 1674.71 -66.3784C1670.11 -70.5784 1658.71 -84.1784 1642.31 -86.5784C1599.71 -93.0784 1584.31 -72.6784 1578.21 -68.3784" stroke="#5B6BB2" stroke-width="2.8838" stroke-miterlimit="10"/>
<path opacity="0.9755" d="M1592.01 -66.8785C1585.81 -59.4785 1584.21 -48.4785 1571.01 -47.3785C1568.61 -47.1785 1565.71 -47.2785 1562.41 -47.5785C1560.01 -47.8785 1557.71 -47.8785 1555.51 -47.8785C1551.41 -47.7785 1547.81 -46.6785 1544.51 -45.7785C1538.61 -44.1785 1533.91 -41.3785 1530.41 -38.0785C1523.81 -31.8785 1521.21 -23.3785 1523.91 -15.2785C1526.41 -7.77847 1532.51 -1.27848 1542.11 5.12152C1551.81 11.6215 1564.81 18.2215 1578.31 25.5215C1582.81 27.9215 1586.51 31.1215 1591.21 33.8215C1596.51 36.8215 1602.91 39.2216 1609.21 40.2216C1617.11 41.6216 1624.71 41.1215 1632.11 42.1215C1639.91 43.1215 1646.81 45.3216 1652.81 46.2216C1659.91 47.3216 1665.91 46.8215 1671.11 43.4215C1674.81 41.0215 1677.81 36.8215 1680.01 31.1215C1681.71 26.7215 1682.71 21.4215 1683.21 15.3215C1683.91 7.72153 1684.01 -0.878473 1682.01 -10.7785C1681.01 -15.8785 1680.21 -21.5785 1679.21 -27.5785C1676.91 -42.1785 1678.81 -58.5785 1668.11 -67.1785C1664.41 -70.1785 1655.11 -79.3785 1642.21 -80.9785C1610.91 -85.0785 1597.31 -71.0785 1592.61 -67.0785" stroke="#5B6BB2" stroke-width="2.9225" stroke-miterlimit="10"/>
<path opacity="0.9877" d="M1606.61 -65.5786C1601.61 -58.3786 1601.31 -47.2786 1589.11 -46.2786C1586.91 -46.0786 1584.41 -46.2786 1581.41 -46.6786C1579.21 -46.9786 1577.11 -47.1786 1575.21 -47.2786C1571.41 -47.4786 1568.01 -46.9786 1564.91 -46.3786C1559.21 -45.3786 1554.61 -43.3786 1551.01 -40.6786C1544.11 -35.5786 1541.11 -27.9786 1542.71 -20.1786C1544.21 -13.1786 1549.11 -6.1786 1557.61 0.221405C1565.81 6.4214 1577.31 12.3214 1590.61 17.8214C1594.81 19.5214 1598.61 21.7214 1603.01 23.6214C1607.91 25.7214 1613.41 27.5214 1618.71 28.6214C1625.51 30.0214 1632.11 30.4214 1638.41 31.3214C1645.21 32.2214 1651.31 33.5214 1656.61 33.6214C1663.01 33.8214 1668.41 32.4214 1672.51 28.6214C1675.41 25.9214 1677.61 21.9214 1678.81 16.6214C1679.81 12.6214 1680.21 7.92142 1680.11 2.42142C1680.01 -4.07858 1679.31 -11.5786 1677.21 -20.1786C1676.11 -24.5786 1675.01 -29.3786 1673.81 -34.4786C1670.71 -46.8786 1672.11 -61.1786 1661.81 -67.9786C1659.01 -69.8786 1651.81 -74.5786 1642.51 -75.3786C1622.51 -77.1786 1610.81 -69.4786 1607.41 -65.7786" stroke="#5B6BB2" stroke-width="2.9613" stroke-miterlimit="10"/>
<path d="M1621.11 -64.2784C1616.61 -56.0784 1618.61 -42.0784 1600.31 -45.8784C1551.21 -56.0784 1544.41 -5.77842 1602.71 9.92158C1645.51 21.4216 1699.71 43.1216 1668.21 -41.4784C1664.41 -51.7784 1665.41 -64.4784 1655.31 -68.8784C1650.31 -70.9784 1625.41 -70.1784 1622.01 -64.6784" stroke="#5B6BB2" stroke-width="3" stroke-miterlimit="10"/>
</g>
</svg>
