<svg width="41" height="31" viewBox="0 0 41 31" fill="none" xmlns="http://www.w3.org/2000/svg">
<path d="M20.5 30.5438C15.1108 30.5438 10.7339 26.1967 10.7339 20.8372V19.9439H30.2811V20.8372C30.2662 26.1818 25.8744 30.5438 20.5 30.5438ZM12.565 21.7304C13.0117 25.6756 16.406 28.7573 20.5 28.7573C24.5941 28.7573 27.9884 25.6756 28.435 21.7304H12.565Z" fill="#7A8FFF"/>
<path d="M12.4608 21.7304H0V0.456299H12.4608V21.7304ZM1.78649 19.944H10.6743V2.24279H1.78649V19.944Z" fill="#7A8FFF"/>
<path d="M41 21.7304H28.4797V20.8372C28.4797 16.4752 24.9067 12.9171 20.5 12.9171C16.0933 12.9171 12.5203 16.4752 12.5203 20.8372V21.7304H0V20.8372C0 9.59718 9.20044 0.456299 20.5 0.456299C31.7996 0.456299 41 9.59718 41 20.8372V21.7304ZM30.2215 19.944H39.1986C38.7222 10.1034 30.5192 2.24279 20.5 2.24279C10.4808 2.24279 2.27778 10.1034 1.80138 19.944H10.7785C11.24 15.0162 15.4234 11.1306 20.5 11.1306C25.5766 11.1306 29.7749 15.0013 30.2215 19.944Z" fill="#7A8FFF"/>
</svg>
