<svg width="21" height="11" viewBox="0 0 21 11" fill="none" xmlns="http://www.w3.org/2000/svg">
<path d="M9.62999 0.928006V10H7.82999V8.45201C7.56599 8.99201 7.16999 9.40601 6.64199 9.69401C6.12599 9.98201 5.51999 10.126 4.82399 10.126C4.01999 10.126 3.31199 9.93401 2.69999 9.55001C2.09999 9.16601 1.63199 8.62601 1.29599 7.93001C0.959992 7.22201 0.791992 6.40001 0.791992 5.46401C0.791992 4.52801 0.959992 3.70001 1.29599 2.98001C1.64399 2.26001 2.12399 1.70201 2.73599 1.30601C3.34799 0.910006 4.04399 0.712006 4.82399 0.712006C5.51999 0.712006 6.12599 0.862006 6.64199 1.16201C7.15799 1.45001 7.55399 1.86401 7.82999 2.40401V0.928006H9.62999ZM5.25599 8.68601C6.07199 8.68601 6.70199 8.40401 7.14599 7.84001C7.60199 7.26401 7.82999 6.46001 7.82999 5.42801C7.82999 4.38401 7.60199 3.58001 7.14599 3.01601C6.70199 2.45201 6.06599 2.17001 5.23799 2.17001C4.42199 2.17001 3.77999 2.46401 3.31199 3.05201C2.85599 3.62801 2.62799 4.43201 2.62799 5.46401C2.62799 6.48401 2.85599 7.27601 3.31199 7.84001C3.77999 8.40401 4.42799 8.68601 5.25599 8.68601Z" fill="white"/>
<path d="M20.5987 0.928006V10H18.7987V8.45201C18.5347 8.99201 18.1387 9.40601 17.6107 9.69401C17.0947 9.98201 16.4887 10.126 15.7927 10.126C14.9887 10.126 14.2807 9.93401 13.6687 9.55001C13.0687 9.16601 12.6007 8.62601 12.2647 7.93001C11.9287 7.22201 11.7607 6.40001 11.7607 5.46401C11.7607 4.52801 11.9287 3.70001 12.2647 2.98001C12.6127 2.26001 13.0927 1.70201 13.7047 1.30601C14.3167 0.910006 15.0127 0.712006 15.7927 0.712006C16.4887 0.712006 17.0947 0.862006 17.6107 1.16201C18.1267 1.45001 18.5227 1.86401 18.7987 2.40401V0.928006H20.5987ZM16.2247 8.68601C17.0407 8.68601 17.6707 8.40401 18.1147 7.84001C18.5707 7.26401 18.7987 6.46001 18.7987 5.42801C18.7987 4.38401 18.5707 3.58001 18.1147 3.01601C17.6707 2.45201 17.0347 2.17001 16.2067 2.17001C15.3907 2.17001 14.7487 2.46401 14.2807 3.05201C13.8247 3.62801 13.5967 4.43201 13.5967 5.46401C13.5967 6.48401 13.8247 7.27601 14.2807 7.84001C14.7487 8.40401 15.3967 8.68601 16.2247 8.68601Z" fill="white"/>
</svg>
