<?xml version="1.0" encoding="utf-8"?>
<!-- Generator: Adobe Illustrator 18.1.0, SVG Export Plug-In . SVG Version: 6.00 Build 0)  -->
<svg version="1.1" id="Capa_1" xmlns="http://www.w3.org/2000/svg" xmlns:xlink="http://www.w3.org/1999/xlink" x="0px" y="0px"
	 viewBox="0 437.1 792 786.9" enable-background="new 0 437.1 792 786.9" xml:space="preserve">
<g>
	<path fill="#FFFFFF" d="M516.3,513.8c20.1,7.4,39.6,16.9,58.1,28.5c4.3,2.6,9.5,4.2,14.3,4.2c9,0,18-4.2,23.8-13.1
		c7.9-12.7,3.7-29.6-9-37.5c-21.7-13.2-44.4-24.3-67.6-33.3c-14.3-5.3-30.1,1.5-35.4,15.8C495.2,492.6,502,508.4,516.3,513.8z"/>
	<polygon fill="#FFFFFF" points="468.4,762.5 481.6,718.1 474.7,716 461,716 460.5,724.4 468.9,724.9 458.9,759.9 	"/>
	<path fill="#FFFFFF" d="M733.4,628.2c-7.9-13.2-24.3-17.4-37.5-9.5c-13.2,7.9-17.4,24.8-9.5,37.5C718.1,709,735,769.2,735,831
		c0,168-122.9,307.9-283.5,334.4l138.7-468.5c4.2-14.3-4.2-29.6-18.5-33.8l-237.6-70.2c-14.3-4.2-29.6,4.2-33.8,18.5l-137.9,465.1
		C97.5,1014.8,57,927.5,57,831c0-186.9,152.1-339,339-338.9c15.4,0,27.5-12.2,27.5-27.5c0-15.4-12.2-27.5-27.5-27.5
		C179,437.1,2.1,614,2.1,831S179,1224.9,396,1224.9S789.9,1048,789.4,831C789.4,759.1,770.4,689.4,733.4,628.2z M210.2,1103.4
		l92.4,27.5c5.8,1.6,11.6-1.6,13.7-7.4c1.6-5.8-1.6-11.6-7.4-13.7l-92.4-26.9l13.2-44.9l50.2,14.8c5.8,1.6,11.6-1.6,13.7-7.4
		c1.6-5.8-1.6-11.6-7.4-13.7l-49.6-14.8l13.2-44.9l92.4,27.5c5.8,1.6,11.6-1.6,13.7-7.4c1.6-5.8-1.6-11.6-7.4-13.7l-92.4-27.5
		l13.2-44.9l49.6,14.8c5.8,1.6,11.6-1.6,13.7-7.4c1.6-5.8-1.6-11.6-7.4-13.7l-49.6-14.8l13.2-44.9l92.4,27.5
		c5.8,1.6,11.6-1.6,13.7-7.4c1.6-5.8-1.6-11.6-7.4-13.7l-92.4-27.5l13.2-44.9l49.6,14.8c5.8,1.6,11.6-1.6,13.7-7.4
		c1.6-5.8-1.6-11.6-7.4-13.7l-49.6-14.8l13.2-44.9l92.4,28c5.8,1.6,11.6-1.6,13.7-7.4c1.6-5.8-1.6-11.6-7.4-13.7l-92.4-27.5
		l10.6-34.8L530,707.5L392.9,1170c-68.5-0.6-132.3-21.7-185.4-57.4L210.2,1103.4z"/>
	<path fill="#FFFFFF" d="M411.7,1011.5c2.2-8.4-2.6-13.2-8.4-15.8l14.3-7.4l2.1-7.4l-29.6-9l-2.6,8.4l17.4,5.3l-13.7,7.4l-0.5,6.9
		l4.2,1.1c5.3,1.6,8,4.2,6.9,7.9c-1,3.7-4.2,4.8-7.9,3.7c-4.2-1.5-6.9-4.2-9-8.4l-8.4,4.2c2.1,5.3,6.8,10,15.1,12.6
		C401.7,1024.2,409.1,1019.9,411.7,1011.5z"/>
	<path fill="#FFFFFF" d="M448.3,882.9l-19-5.8l9-3.2c9.5-3.7,14.3-6.3,16.4-13.7c2.6-8-2.1-15.4-11.1-18c-7.9-2.7-12.7-0.6-19,4.2
		l5.3,7.4c4.3-3.2,7.4-4.3,10.6-3.2c3.7,1.1,5.3,3.7,4.2,7.4c-1.1,3.6-3.7,5.2-10.6,8.4l-18,7.9l-3.1,7.5l32.7,9.5L448.3,882.9z"/>
</g>
</svg>
