<svg width="21" height="21" viewBox="0 0 21 21" fill="none" xmlns="http://www.w3.org/2000/svg">
<path fill-rule="evenodd" clip-rule="evenodd" d="M5.9326 16.2486C9.54226 19.2615 14.92 19.0734 18.309 15.6845C21.897 12.0964 21.897 6.27908 18.309 2.69103C14.7209 -0.897011 8.90355 -0.897011 5.31551 2.69103C1.92655 6.07999 1.73851 11.4577 4.75138 15.0674L0 19.8188L1.18122 21L5.9326 16.2486ZM17.1277 14.5033C14.1921 17.4389 9.4324 17.4389 6.49673 14.5033C3.56106 11.5676 3.56106 6.80793 6.49673 3.87226C9.4324 0.936584 14.1921 0.936584 17.1277 3.87226C20.0634 6.80793 20.0634 11.5676 17.1277 14.5033Z" fill="#7A8FFF"/>
</svg>
