<?xml version="1.0" encoding="utf-8"?>
<!-- Generator: Adobe Illustrator 18.1.0, SVG Export Plug-In . SVG Version: 6.00 Build 0)  -->
<svg version="1.1" id="Capa_1" xmlns="http://www.w3.org/2000/svg" xmlns:xlink="http://www.w3.org/1999/xlink" x="0px" y="0px"
	 viewBox="0 217 794.7 793.1" enable-background="new 0 217 794.7 793.1" xml:space="preserve">
<g>
	<path fill="#FFFFFF" d="M507.9,499.5H548c3.2,0,5.3-2.6,5.3-5.3s-2.1-5.3-5.3-5.3h-40.1c-2.6,0-5.3,2.6-5.3,5.3
		S504.8,499.5,507.9,499.5z"/>
	<path fill="#FFFFFF" d="M738.1,409.2c-7.9-13.2-24.8-17.4-38-9.5s-17.4,24.8-9.5,38c31.7,52.8,48.6,113.5,48.6,175.8
		c0,188.5-153.1,341.6-341.6,341.6S56,802.1,56,613.6S209.1,272,397.6,272c15.3,0,27.5-12.1,27.5-27.5S413,217,397.6,217
		C179,217.1,1.1,395,1.1,613.6s177.9,396.5,396.5,396.5s396.5-177.9,397.1-396.5C794.6,541.2,775.1,470.5,738.1,409.2z"/>
	<path fill="#FFFFFF" d="M519,293.6c20.6,7.9,40.1,17.4,58.6,29c4.2,2.6,9.5,4.2,14.3,4.2l0,0c9,0,18-4.2,23.8-12.7
		c7.9-13.2,3.7-30.1-9-38c-21.6-13.7-44.4-24.8-68.1-33.8c-14.3-5.3-30.1,1.6-35.4,15.8C497.9,272.5,504.8,288.3,519,293.6z"/>
	<path fill="#FFFFFF" d="M445.6,499.5h40.1c3.2,0,5.3-2.6,5.3-5.3s-2.1-5.3-5.3-5.3h-40.1c-2.6,0-5.3,2.6-5.3,5.3
		S442.5,499.5,445.6,499.5z"/>
	<path fill="#FFFFFF" d="M354.8,645.8h85.5c3.7,0,6.3-2.6,6.3-6.3v-10.6c0-3.7-2.6-6.3-6.3-6.3h-85.5c-3.7,0-6.3,2.6-6.3,6.3v10.6
		C348.5,643.2,351.1,645.8,354.8,645.8z"/>
	<path fill="#FFFFFF" d="M595.6,735.6c9,0,16.4-7.4,15.8-16.4V459.4c0-9-7.4-16.4-16.4-16.4H199.6c-9,0-16.4,7.4-16.4,16.4v259.8
		c0,9,7.4,16.4,16.4,16.4h133.1v18h-32.2c-9,0-16.4,7.4-16.4,16.4v50.7c0,9,7.4,16.4,16.4,16.4h194.3c9,0,16.4-7.4,16.4-16.4V770
		c0-9-7.4-16.4-16.4-16.4H462v-18H595.6z M478.4,804.2H316.8v-18H349h96.6h32.7L478.4,804.2L478.4,804.2z M365.9,753.5v-17.4h63.9
		v17.4H365.9z M578.7,476.3v39.6H216v-39.6L578.7,476.3L578.7,476.3z M216,538.1h362.7v164.7H445.6H349H216V538.1z"/>
	<path fill="#FFFFFF" d="M481,565.5c0-2.6-2.1-5.3-5.3-5.3H318.9c-2.6,0-5.3,2.1-5.3,5.3c0,2.6,2.1,5.3,5.3,5.3h157.3
		C478.9,570.8,481.5,568.7,481,565.5z"/>
	<path fill="#FFFFFF" d="M439.3,586.1h-84c-2.6,0-5.3,2.1-5.3,5.3c0,2.6,2.1,5.3,5.3,5.3h84.5c2.6,0,5.3-2.1,4.8-5.3
		C444.6,588.8,442.5,586.1,439.3,586.1z"/>
	<path fill="#FFFFFF" d="M397.6,687L397.6,687L397.6,687z"/>
	<path fill="#FFFFFF" d="M401.3,668.5l-3.7,4.2l-3.7-4.2c-2.1-2.1-5.8-2.6-7.9-0.5s-2.6,5.8-0.5,7.9l7.9,9c1.1,1.6,2.6,2.1,4.2,2.1
		s3.2-1.1,4.2-2.1l7.9-9c2.1-2.6,1.6-5.8-0.5-7.9C406.6,665.9,403.4,666.4,401.3,668.5z"/>
</g>
</svg>
