<?xml version="1.0" encoding="utf-8"?>
<!-- Generator: Adobe Illustrator 18.1.0, SVG Export Plug-In . SVG Version: 6.00 Build 0)  -->
<svg version="1.1" id="Capa_1" xmlns="http://www.w3.org/2000/svg" xmlns:xlink="http://www.w3.org/1999/xlink" x="0px" y="0px"
	 viewBox="0 0 1162.3 503.5" enable-background="new 0 0 1162.3 503.5" xml:space="preserve">
<g>
	<path fill="#929292" d="M503.1,339.7c18.3,0.7,34.3-7.7,46.5-23.9c0.5,1.5,1,3,1.6,4.5c2.7,8.5,12.6,21.8,34.5,22.4c0,0,0,0,0.1,0
		c10.6,0.3,17-4.3,20.5-8.2c6.7-7.5,6.8-17,6.5-21.2c0.2-6.7,0.5-13.4,0.7-20.2c0.2-7,0.4-14.3,0.7-21.6c0.9-6.7,3.1-19.4,8.6-31.8
		c9.6-21.5,24-31.7,44.2-31.2c0.2,0,0.5,0,0.7,0c6.3,0.2,8.2,2.2,8.9,3c6.3,6.9,5.3,28.7,4.4,46.2c-0.7,14.4-1.4,29.3,0.6,42.9
		c3.1,21.2,20,37.2,41.2,39.1c1.7,0.1,3.5,0.2,5.3,0.3c7.5,0.2,15.8-0.5,24.7-2.1c1.4-0.2,2.7-0.7,3.8-1.2
		c8.6,4.2,18.1,6.5,27.7,6.7c4.2,0.1,8.5-0.2,12.7-0.9c8-1.3,16.8-4.1,25.1-9.5c4.9,11.9,16.5,23.3,37.7,23.9c0.5,0,0.9,0,1.4,0
		c8.6,0,16.3-3.1,22.2-9c11.1-11.3,11.8-28.7,11.8-33.1c0.6-16.5,0.9-27.8,0.9-38.9c0.4-1.3,0.6-2.7,0.6-4.1
		c0-0.4,1.1-38.4,21.2-55.4c8.6-7.3,19.8-9.8,34.1-7.6c7.9,1.2,15.3-4.2,16.5-12.1c1.2-7.9-4.2-15.3-12.1-16.5
		c-22.8-3.5-42,1.3-57.2,14.1c-1,0.8-1.9,1.7-2.8,2.5c0-2.9,0.1-6,0.1-9.1c0.1-7.9-6.2-14.5-14.1-14.7c-0.1,0-0.1,0-0.2,0
		c-8-0.1-14.6,6.3-14.7,14.3c-0.4,31.3-0.4,50.3-0.4,65.7c0,21.3,0,34.2-1,61.1c0,0.2,0,0.5,0,0.7c0,3.2-1.1,10.4-3.5,12.8
		c-0.2,0.2-0.4,0.4-1.5,0.4c-8.2,0-12.6-3-13-9c0.2-9.5,1.2-20.2,2.2-31.4c0.7-8.1,1.5-16.7,2.1-25.9c0,0,0,0,0,0
		c0-0.4,0.2-2.2,0.3-4.9c1.3-22.9,1.2-49-3.7-77.9c-8.5-49.9-29.6-98.5-64.4-148.8c-0.2-0.2-0.4-0.5-0.5-0.7
		c-0.9-1.1-9.2-11.4-21.9-19.4c-19.1-12-39-12.7-55.8-2.1c-15.2,9.6-21.8,24.2-17.8,39.1c5.6,20.9,31.8,37.5,60.8,38.5
		c23.5,0.9,46.1,26.3,53.4,36.8c8.4,20.5,14.3,40.9,17.8,61.4c0.3,1.9,0.6,3.7,0.9,5.5c-12-6.4-26.9-8.2-44.3-5.2
		c-39.6,6.8-62.1,56.2-58.4,98.1c0.9,10.3,4.2,20.2,9.5,29c-1.1,0-2.1-0.1-3.1-0.2c-7.7-0.7-13.9-6.5-15-14.3
		c-1.6-10.8-0.9-24.3-0.3-37.4c1.3-26.4,2.5-51.4-12-67.2c-7.1-7.8-16.9-11.9-29.1-12.4c-16.3-0.6-30.9,3.5-43.3,11.9
		c-0.2-4.8-2.7-9.4-7.2-12c-6.9-4-15.8-1.6-19.8,5.3c-9.4,16.3-11.8,47.3-13.2,84.6c-0.4,3.1-0.5,5.1-0.5,5.3
		c-0.1,1.1,0,2.2,0.2,3.2c-0.2,4.7-0.3,9.5-0.5,14.4c-0.2,7.1-0.4,14.1-0.7,21c0,0.1,0,0.2,0,0.3c-3.6-0.6-4.7-2-5-2.4
		c-0.1-0.2-0.1-0.4-0.2-0.5c-5.9-15.5-7.6-31.9-7.5-48.9c0.1-0.9,0.2-1.4,0.2-1.5c0.2-1.6,0.2-3.2-0.1-4.7
		c0.2-7.2,0.6-14.5,1.2-21.8c1.5-20.8-7.2-40.6-23.2-53.1c-11.5-8.9-24.7-12.9-38.4-11.4c-14.1,1.5-28.2,8.7-41.8,21.4
		c-26.2,24.3-37.6,73.8-24.9,108C453.5,324,474.5,338.6,503.1,339.7z M750.5,56.2c-19.7-0.7-32.3-11.4-33.9-17.1
		c-0.6-2.1,1.2-4.4,5.3-7c2.5-1.6,5.8-3.1,10.3-3c3.8,0.1,8.4,1.4,14.1,4.8c7.9,4.8,13.7,11.5,14.9,12.9c3.1,4.4,6,8.8,8.8,13.2
		C763.9,57.8,757.3,56.4,750.5,56.2z M782,212.3c4.3-0.7,8.2-1.1,11.8-1c8,0.2,14.3,2.4,18.8,6.6c9.9,9.2,11.6,27.3,11.3,36.8
		c-0.5,9.1-1.3,17.7-2,26.1c-0.1,0.3-0.2,0.6-0.2,0.8c-3.8,19.1-13.2,29.3-29.5,32c-10.7,1.8-21.2-0.9-29.8-7.5
		c-8.6-6.6-13.8-16.2-14.8-27C745.2,251.4,759.6,216.1,782,212.3z M488.6,211.8c10.2-9.5,19.6-14.1,28.3-13.9
		c5.1,0.1,9.9,1.9,14.4,5.5c8.4,6.5,12.9,17.1,12.1,28.2c-0.6,8-1.2,17.3-1.4,27.5c-1,5.1-3.5,16.3-8.4,27.1
		c-2.8,6.2-11.5,24.9-29.1,24.5c-0.1,0-0.2,0-0.3,0c-16.9-0.6-27.7-7.9-33-22.3C461.8,263.1,472.9,226.5,488.6,211.8z"/>
	<path fill="#929292" d="M1154.8,85c-7-3.9-15.8-1.3-19.7,5.7c-9.7,17.7-24.6,28.8-44.3,33c-7.4-14.8-16.3-30-27.1-45.6
		c-12.6-18.1-29.1-33.3-44.3-40.7c-17.5-8.5-31.9-10.2-44.1-5.1c-10.9,4.5-18.9,14-23.7,28.2c-5.2,15.1-0.6,32.1,12.8,47.8
		c10.9,12.7,27.3,24.3,46.3,32.7c20.5,9,42,13.7,62.3,13.6c7.6,18.6,12.9,37,15.4,54.9c4.4,30.3,1.1,58.6-9.2,79.6
		c-8.1,16.5-19.9,26.8-31.6,27.7c-9.8-0.2-18-2.1-24.7-5.8c16.4-31.3,23.1-77.5,6.8-98.7c-7.8-10.1-19.8-13.8-33-10.1
		c-21.8,6.1-28.4,47.3-24.8,74.6c1.9,14.3,6.4,27,13.3,37.5c-6.1,5.7-11.9,7.5-16.5,6.8c-6-0.9-10.5-3.6-13.9-8.5
		c-12.1-17.1-8.7-53.1-6.4-65.6c1.5-7.9-3.7-15.4-11.5-16.9c-7.9-1.5-15.5,3.7-17,11.5c-0.1,0.6-2.7,14.1-2.8,31.2
		c-0.2,24.2,4.5,43.2,14,56.5c8,11.3,19.5,18.4,33.2,20.5c1.9,0.3,3.8,0.5,5.7,0.5c12.9,0.3,25.1-5,35.8-15.6
		c11.5,7.2,25.5,11,41.6,11.2c0,0,0,0,0,0c0,0,0,0,0.1,0c0.1,0,0.1,0,0.2,0c0.1,0,0.2,0,0.3,0c0.2,0,0.4,0,0.7,0c0.2,0,0.3,0,0.5,0
		c0,0,0.1,0,0.1,0c22.7-1.5,43-17.4,56-43.9c16.7-34.1,21.7-87.9-2.5-151.2c25.2-6.9,45.1-22.6,57.9-46
		C1164.4,97.7,1161.8,88.9,1154.8,85z M1022.3,114.5c-30.5-13.4-47-33.9-43.4-44.6c1.4-4.1,3.8-9.3,7.4-10.8
		c0.8-0.3,2.1-0.7,4.1-0.6c3.3,0.1,8.4,1.2,16.2,5c12.9,6.3,25.6,20.2,33.2,31.2c6.9,9.9,13.1,19.9,18.6,29.9
		C1046.5,123.1,1034.1,119.7,1022.3,114.5z M1009.9,249.5c-0.3,11-2.9,23.4-7,34.9c-6.8-22.5-1.1-47.6,3.4-54.5c0.1,0,0.1,0,0.1,0
		C1007.4,230.9,1010.3,236.3,1009.9,249.5z"/>
	<path fill="#929292" d="M1012,444.6c-178.6-51.7-245.3-56.7-253.3-57.1c-112.2-14.7-209.3-21.2-288.5-19.4
		c-15.7,0.4-30.7,1-45.1,2.1c12.5-51.3,12.7-113.5,0.5-180.3c-1.4-7.9-9-13.1-16.9-11.7c-7.9,1.4-13.1,9-11.7,16.9
		c2.9,16,5.1,31.7,6.5,47.1c-0.6,3-4.1,20.5-12.2,37.3c-10.2,21.2-22.6,31.2-36.7,29.7c-9.7-1-16-5.2-19.9-13.2
		c-3.8-7.8-5-18.7-3.8-30.5c0.6-2.5,0.8-4.2,0.9-4.7c0.1-0.9,0.2-1.8,0.1-2.6c2.3-12.9,7.2-26.4,14.3-37.6c4.3-6.8,2.3-15.7-4.5-20
		c-6.8-4.3-15.7-2.3-20,4.5c-9.3,14.6-16.6,34.4-19.2,54.3c-1.1,4.5-4,14-10.4,23c-11.1,15.5-28.1,23-50.4,22.1
		c-8.3-0.3-15.1-2.2-20.5-5.8c21.9-18.2,46.4-42.2,59.7-66.8c11.1-20.5,7.2-43.9-9.4-56.8c-13.9-10.8-39.3-14.8-65.1,9.2
		c-26.2,24.3-37.6,73.8-24.9,108c0.1,0.2,0.1,0.4,0.2,0.5c-5,3.7-9.2,6.7-12.1,8.7c-1.9,1.3-3.8,1.3-4.5,1c0-0.2,0-0.4,0-0.6
		c0.2-5.5,0.8-12.4,1.4-19.7c2.9-34.1,6.5-76.5-14-99.7c-8.2-9.3-19.8-14.5-33.3-15c-23.7-0.9-43.2,6-57.9,20.3
		c4.3-21.1,11.7-43.2,23.3-66c20.3,1.6,42.2-1.4,63.4-8.9c19.6-7,36.8-17.3,48.6-29.2c14.5-14.7,20.3-31.3,16.3-46.7
		c-3.8-14.5-11-24.5-21.6-29.9c-11.8-6-26.3-5.4-44.4,1.8c-15.7,6.2-33.4,20.2-47.2,37.3C88.3,60.6,78.2,75.1,69.4,89.8
		C50.1,84.2,36.1,72,27.7,53.7c-3.3-7.3-11.9-10.5-19.2-7.2C1.2,49.8-2,58.4,1.3,65.7c11,24.2,29.6,41.4,54.2,50.1
		C37.3,153.7,28,192.9,27.8,233.1c-0.3,63.5,22,114.3,40.8,145.6c0.2,0.3,0.3,0.6,0.5,0.8c8.5,12.2,29.3,41.3,39.3,48.6
		c7.3,5.3,15.7,8,23.9,8.2c10.1,0.2,20-3.3,27.4-10.6c12.4-12.3,13.2-30.6,1.9-46.7c-8.7-12.4-27.1-23.4-46.5-35.1
		c-18.4-11.1-41.4-24.9-46.1-35.4c-0.3-0.8-0.7-1.5-1.2-2.2c-2.5-8.1-4.7-16.7-6.5-25.8c0.7-1.9,1-3.9,0.9-6.1
		c0-0.1-0.7-11,1.3-24.6c1.8-12.1,6.3-29,17.1-40.2c9.1-9.5,21.4-13.8,37.7-13.2c7.3,0.3,10.6,2.9,12.6,5.3c12.3,13.8,9,52.4,6.8,78
		c-0.6,7.6-1.3,14.9-1.5,21.1c0,0.6,0,1.1,0,1.7c0,11,5.7,20.6,15.2,25.6c10.6,5.6,24.3,4.5,34.7-2.7c3.2-2.2,7.2-5,11.6-8.3
		c10.9,10.1,25.5,15.7,43,16.4c0.5,0,1,0,1.6,0c32.5,0.8,53.2-11.7,66.2-25.4c0.1,0.2,0.2,0.4,0.2,0.5c8.2,16.9,23.5,27.4,43.1,29.3
		c1.4,0.1,2.9,0.2,4.4,0.3c14.5,0.4,32.4-4.7,48.4-25.1c-1.4,19.4-4.4,37.6-8.8,54.5c-0.5,1.7-0.9,3.5-1.4,5.2
		c-31.1,3.5-58.4,8.8-81.4,15.8c-30,9.2-52.7,21.1-67.4,35.6c-12,11.9-14.7,21.6-15.3,24.2c-0.1,0.5-0.2,1-0.2,1.6
		c-1.6,18,5.1,33.1,18.8,42.6c10.8,7.4,24.6,10.5,38.4,10.9c18.5,0.4,37.1-4,48.6-9.7c36-17.5,63.4-49.7,80.1-93.9
		c72.9-6.2,180.8-4.5,339.5,16.3c0.4,0.1,0.9,0.1,1.3,0.1c0.6,0,63.3,2.9,247.1,56.1c7.7,2.2,15.7-2.2,18-9.9
		C1024.2,454.9,1019.7,446.8,1012,444.6z M122.4,64.7c8.4-10.4,22.1-23.4,35.4-28.6c7.7-3.1,12.8-3.9,16.1-3.8
		c2.2,0.1,3.6,0.5,4.4,0.9c3.5,1.8,5.5,7.1,6.6,11.3c2.9,10.9-15.2,30.1-46.5,41.2c-12.2,4.3-24.8,6.8-36.9,7.5
		C107.7,83.7,114.7,74.2,122.4,64.7z M100.3,368.8c15.2,9.2,32.5,19.5,37.7,26.9c2.1,2.9,4,6.9,1.5,9.4c-2.2,2.1-7.9,3.9-13.9-0.4
		c-4.3-3.3-19-22.4-30.9-39.3C96.5,366.5,98.4,367.6,100.3,368.8z M226.4,205.6c7.1-6.6,14.5-10.1,20.5-9.9c2.7,0.1,5.1,0.9,7.1,2.4
		c6.1,4.7,5.2,13.5,1.6,20.1c-10.6,19.5-30.6,39.4-49.2,55.2C202,249,212.3,218.6,226.4,205.6z M323.3,467.8
		c-19.6,9.5-47.2,8.3-57.8,1c-3.3-2.3-6.9-6-6.4-14.8c0.5-1,2.6-4.6,7-9c7.8-7.7,23.7-18.8,55.5-28.5c15.7-4.8,35.8-9.3,61.5-12.8
		C369,433.5,348.7,455.4,323.3,467.8z"/>
</g>
</svg>
