<?xml version="1.0" encoding="utf-8"?>
<!-- Generator: Adobe Illustrator 18.1.0, SVG Export Plug-In . SVG Version: 6.00 Build 0)  -->
<svg version="1.1" id="Capa_1" xmlns="http://www.w3.org/2000/svg" xmlns:xlink="http://www.w3.org/1999/xlink" x="0px" y="0px"
	 viewBox="0 0 998 582.1" enable-background="new 0 0 998 582.1" xml:space="preserve">
<g>
	<path fill="#E55E3F" d="M966.8,169.5c-17.4-21.3-49.7-48.3-106.3-58.2c-0.1-2.7-0.2-5.3-0.3-7.9c-2.4-66.5-3.5-94-27.3-101.7
		c-11.2-3.6-22-1.2-29.6,6.7c-15.8,16.4-14,57.1-5.8,99.4c-32.9,1.6-71.3,8-116,21.5c-7.9,2.4-12.4,10.7-10,18.7
		c2.4,7.9,10.7,12.4,18.7,10c44.9-13.5,82.5-19.5,114-20.5c6.1,24.3,13.4,47.4,19.8,64.7c3.7,10.3,8.3,22,13.6,34.2
		c3.3,66.9-13.7,119.1-49.3,151.5c-38.2,34.7-98.7,46.8-170.5,34.1c-63.5-11.2-108.6-65.2-123.6-141.8c14.1-9.4,30.7-19.3,48.4-27.5
		c-2,7.3-3.2,15.6-3.6,24.9c-1.8,38.3,8.4,67.8,28.5,82.9c7.1,5.4,17.8,10.5,32.1,10.5c7,0,14.9-1.2,23.7-4.2
		c17.3-5.9,30.7-19.1,38.8-38.1c10-23.8,10.5-53.6,7.2-77c5.2-4.9,10.2-10.3,14.6-16c4,28.9,6.4,69.1-1.8,94.6
		c-2.5,7.9,1.8,16.3,9.7,18.9c7.9,2.5,16.3-1.8,18.9-9.7c9-28.2,7.6-65.8,4.8-92.4c-0.1-0.7-0.2-1.7-0.3-2.8
		c0.7-1.2,1.4-2.4,1.8-3.8c0.1-0.4,12.8-42.2,39.1-36.5c19.2,4.2,15.5,62.7,13.3,97.7c-0.7,11.8-1.5,23-1.6,33
		c-0.1,8.3,6.4,15.1,14.7,15.3c0.1,0,0.2,0,0.3,0c8.2,0,14.8-6.5,15-14.7c0.2-9.4,0.9-20.2,1.6-31.7c3.4-53.2,7.5-119.3-36.9-128.9
		c-24.7-5.4-43.2,6.5-55.9,22.1c-1.7-5.7-3.7-10.2-5.9-12.6c-3.9-4.2-9.4-6-14.9-4.7c-5.5,1.3-9.7,5.3-11.4,10.9
		c-3,10.1-8.3,19.4-14.6,27.5c-10.2-18.5-36.4-29-57.6-22.6c-7.4,2.2-14.6,7-19.7,14.4c-2.1-0.5-4.4-0.6-6.7-0.1
		c-30.9,6.9-61.4,22.4-86.3,37.8c-1.2-14.7-1.4-30.1-0.4-46c1-16.7,3.3-31.9,6.9-45.6c65,2,136.3-23.8,163.3-61.1
		c12.2-16.9,14.6-35.5,6.5-52.2c-9.8-20.3-39.7-29.4-74.5-22.5c-31.9,6.3-62,24.3-84.9,50.7c-13.3,15.4-23.9,33.1-31.7,53.1
		c-17.7-2.4-37.7-5.8-58.8-9.4C292.3,93.3,122.6,64.6,35.8,161C8.4,191.4-5,235.4,1.7,273.2c5,28,20.7,50.4,44.4,63.1
		c3.4,2,15.5,8.4,36.5,10c12.1,29,38.5,53,79.3,53.1c3.8,0.1,30.8-0.3,51.7-20.6c6.2-6,11.3-13.2,15.1-21.3
		c14.7,14,35.7,19.6,58.8,15.4c2.4-0.4,4.7-1,7-1.7c3.1,12.6,6.1,25.2,8.5,37.3c-52.3,30.2-77.3,71.9-83.1,105.2
		c-4.3,25.1,1.9,47.3,16.8,59.2c5,4.1,14,9.2,27,9.2c6.6,0,14.2-1.3,22.9-4.8c34-13.8,53.2-45,55.6-90.4c1.5-28.6-4.3-54.1-5.7-59.7
		c-0.1-0.7-0.2-1.4-0.3-2.1c6.6-3,13.6-5.8,21-8.4c7.8-2.7,11.9-11.3,9.2-19.1c-2.7-7.8-11.3-12-19.1-9.2c-5.7,2-11.2,4.1-16.4,6.3
		c-2.8-13-6.1-26.2-9.3-39.3c11-10.2,19.8-24.3,25.8-41.5c9.2-26.5,11.5-63.7-5.2-82.4c-7.7-8.6-18.6-12.1-30-9.6
		c-11.9,2.6-21.3,9.1-27.4,18.8c-14.2,22.9-7.7,59,2.6,101.3c-1.6,0.6-3.3,1-5.1,1.3c-15.4,2.8-28.1-1.1-35.8-10.8
		c-13.3-16.8-11.5-49.1,4.8-86.3c3.3-7.6-0.2-16.4-7.7-19.7c-7.6-3.3-16.4,0.1-19.7,7.7c-12,27.5-17.2,53.1-15.8,74.8
		c-0.2,1.1-0.4,2.1-0.4,3.3c0.1,20-4.8,35.1-14.6,44.7c-12.7,12.5-30.3,12.3-30.4,12.3c-0.2,0-0.3,0-0.5,0c0,0,0,0,0,0
		c-22.6,0-37.6-10.8-46.5-24.7c8.9-1.4,18.6-3.7,29.1-7c42.7-13.6,57.2-50.4,49.2-78.1c-7.6-26.2-32.3-39.5-60.2-32.3
		c-0.5,0.1-1,0.3-1.5,0.4C94.7,238,72.1,273.4,75.2,315c-8.7-1.7-13.2-4.2-13.5-4.4c-0.4-0.2-0.7-0.5-1.1-0.7
		c-19.9-10.5-26.9-28.7-29.3-42c-5.1-28.5,5.7-63.4,26.8-86.9c75.8-84.2,236.1-57,353.2-37.1c19.4,3.3,38,6.4,54.8,8.8
		c-3.5,14.7-5.7,30.3-6.6,46.8c-1.3,23.3-0.5,45.6,2.2,66.7C444.8,278.5,434,288,432.9,289c-6.2,5.5-6.7,15-1.2,21.2
		c3,3.3,7.1,5,11.2,5c3.5,0,7.1-1.3,10-3.8c0.2-0.2,5.7-5,14.9-12.2c20,81.9,72.4,139.4,144.9,152.2c20.2,3.6,39.8,5.4,58.4,5.4
		c55.9,0,103.6-16,137.5-46.8c31.7-28.8,51-69.6,57.3-120.1c17.1,26.3,37.6,47.1,60.4,49.5c25.3,2.7,47.4-9.7,60.5-33.9
		C1004.6,272.1,1003.6,214.7,966.8,169.5z M828,107.7c-7.9-39.1-8.4-67.4-4.3-76.5c4.2,8.8,5.3,40.2,6.6,73.3c0,1.1,0.1,2.2,0.1,3.3
		C829.6,107.7,828.8,107.7,828,107.7z M611.2,223.8c1.4-0.4,2.9-0.6,4.4-0.6c7.2,0,15.8,4.1,18.3,9.3c0.8,1.7,1.7,4.1,2.5,6.9
		c-8.6,5.5-17,8.5-23.1,8.1c-2.6-0.2-5.7-0.4-7-8.8C604.4,225.9,609.3,224.4,611.2,223.8z M611.1,277.4c9.5,0.7,19.8-1.7,30-6.4
		c0.7,15.3-0.8,32.2-6.6,46c-4.7,11.2-11.6,18.2-20.8,21.4c-11.7,4-21.1,3.4-28.1-1.9c-11.6-8.7-17.8-30.2-16.5-57.5
		c0.8-17.6,4.8-26.7,8.6-30.8C581.9,265.4,594.1,276.2,611.1,277.4z M597.4,49.3c6-1.2,11.6-1.7,16.6-1.7c13.8,0,23.1,3.9,25,7.8
		c2,4.2,3.8,11-3.8,21.6c-18.1,25.1-73.1,48.1-128.6,48.8C527.6,79.6,563.7,56,597.4,49.3z M275.2,549.5c-6,2.4-14.3,4.4-19.7,0
		c-6.1-4.9-8.5-17-6.1-30.8c4.2-24.3,22.1-54.5,59.1-78.6C312.8,461.4,322.5,530.3,275.2,549.5z M310.1,256.5c1.2-2,3.2-4.2,8.3-5.3
		c0.5-0.1,0.8-0.1,0.8-0.1c2.7,1.7,7.7,15.4,3.6,37.9c-1.7,9.6-5.1,20.1-10.3,29.4C306.7,291.6,303.4,267.2,310.1,256.5z
		 M140.1,256.4l0.9-0.3c2.8-0.7,5.3-1,7.4-1c11.4,0,15.2,8.4,16.4,12.6c3.4,11.7-1.7,32.4-29.5,41.3c-11.3,3.6-21.3,5.7-30,6.7
		C102.6,291.5,112.2,264.2,140.1,256.4z M960.2,291.2c-5,9.3-14.5,20.1-31,18.3c-14.3-1.5-38-27.1-62-80.5c-0.1-2-0.3-4.1-0.4-6.2
		c-2.5-30.9-4-57.6-5-80.9c43.3,9.1,68.2,29.8,81.8,46.5C964.6,214.3,977.6,259.1,960.2,291.2z"/>
	<path fill="#E55E3F" d="M401.1,334.8C401.1,334.8,401.2,334.8,401.1,334.8c3.2-0.4,5.7-2.9,5.9-6.1c0.3-3.3,6.9-81.2,5.7-102.5
		c-0.4-8-3.4-14.7-8.3-18.9c-3.9-3.3-8.9-4.9-13.9-4.3c-8.8,1-16.1,7.8-19.5,18.3c-6.7,20.3,18,94.4,23,109
		C395.1,333.3,398,335.1,401.1,334.8z"/>
	<circle fill="#E55E3F" cx="406.1" cy="382.4" r="14.7"/>
	<circle fill="#E55E3F" cx="643.1" cy="156.3" r="14.7"/>
</g>
</svg>
