<?xml version="1.0" encoding="UTF-8"?>
<svg width="26px" height="21px" viewBox="0 0 26 21" version="1.1" xmlns="http://www.w3.org/2000/svg" xmlns:xlink="http://www.w3.org/1999/xlink">
    <!-- Generator: Sketch 45 (43475) - http://www.bohemiancoding.com/sketch -->
    <title>twitter</title>
    <desc>Created with Sketch.</desc>
    <defs></defs>
    <g id="Previews-page" stroke="none" stroke-width="1" fill="none" fill-rule="evenodd">
        <g id="Landing-page-Heyfont" transform="translate(-1204.000000, -73.000000)" fill-rule="nonzero" fill="#00FBFF">
            <g id="body" transform="translate(0.000000, -2.000000)">
                <g id="Group" transform="translate(1204.000000, 73.000000)">
                    <path d="M24.2149254,6.63012048 C23.6975124,6.97168675 23.5164179,7.40180723 23.5164179,7.99638554 C23.5164179,14.5620482 18.9890547,20.5204819 12.7154229,22.3042169 C8.6278607,23.4174699 4.69552239,23.1518072 0.95721393,21.1909639 C0.698507463,21.026506 0.439800995,20.9379518 0.168159204,20.7608434 C0.0776119403,20.7608434 0.0776119403,20.6722892 0,20.5963855 C2.78109453,20.7608434 5.31641791,20.0903614 7.67064677,18.3825301 C6.9721393,18.2180723 6.27363184,18.1295181 5.75621891,17.876506 C4.44975124,17.2819277 3.58308458,16.4343373 2.97512438,15.1566265 C2.80696517,14.9036145 2.80696517,14.726506 3.23383085,14.726506 C3.75124378,14.8150602 4.28159204,14.8150602 4.88955224,14.5620482 C2.27661692,13.7144578 0.970149254,12.0066265 0.80199005,9.3626506 C1.40995025,9.52710843 1.94029851,9.8686747 2.54825871,9.8686747 C2.71641791,9.8686747 2.89751244,9.95722892 2.9880597,9.8686747 C1.84975124,8.8439759 1.07363184,7.56626506 0.892537313,6.03554217 C0.80199005,5.18795181 0.983084577,4.32771084 1.33233831,3.48012048 C1.50049751,2.97409639 1.68159204,2.88554217 2.12139303,3.31566265 C4.12636816,5.61807229 6.64875622,7.14879518 9.61094527,7.99638554 C10.4776119,8.24939759 11.2666667,8.33795181 12.1333333,8.42650602 C12.6507463,8.51506024 12.7412935,8.33795181 12.6507463,7.92048193 C12.2109453,4.85903614 14.5651741,2.46807229 16.919403,2.12650602 C18.6656716,1.87349398 20.2308458,2.21506024 21.5373134,3.31566265 C21.8865672,3.5686747 22.1452736,3.65722892 22.4945274,3.5686747 C23.4517413,3.31566265 24.318408,2.97409639 25.2756219,2.45542169 C24.9263682,3.73313253 24.1373134,4.50481928 23.1024876,5.26385542 C24.1502488,5.1753012 24.9263682,4.83373494 25.8835821,4.58072289 C25.521393,5.44096386 24.9134328,6.03554217 24.2149254,6.63012048 Z" id="twitter"></path>
                </g>
            </g>
        </g>
    </g>
</svg>