<svg width="33" height="26" viewBox="0 0 33 26" fill="none" xmlns="http://www.w3.org/2000/svg">
<path fill-rule="evenodd" clip-rule="evenodd" d="M0 0.935364V17.3395V18.0585H8.67231C9.03789 22.0354 12.406 25.1521 16.5 25.1521C20.582 25.1521 23.9598 22.0256 24.3375 18.0585H33V17.3395C33 8.29266 25.5948 0.935364 16.5 0.935364C14.2049 0.935364 12.0174 1.40388 10.0294 2.24984V0.935364H0ZM8.5915 2.94585V2.37327H1.43791V10.6436C2.91626 7.36998 5.44367 4.66238 8.5915 2.94585ZM1.44989 16.6206C1.69551 11.5471 4.4928 7.12749 8.5915 4.60578V16.6206H1.44989ZM10.0294 12.9185V3.82523C11.9908 2.89457 14.1852 2.37327 16.5 2.37327C24.5643 2.37327 31.1667 8.70007 31.5501 16.6206L24.3725 16.6205L24.3246 16.6206C23.9651 12.6423 20.5861 9.52687 16.5 9.52687C13.8195 9.52687 11.4484 10.8728 10.0294 12.9185ZM10.1179 16.6205H22.8821C22.5214 13.4459 19.8014 10.9648 16.5 10.9648C13.1986 10.9648 10.4786 13.4459 10.1179 16.6205ZM10.1133 18.0584C10.4728 21.2338 13.2048 23.7142 16.5 23.7142C19.7952 23.7142 22.5272 21.2338 22.8867 18.0584H10.1133Z" fill="#5A5A5A"/>
</svg>
