<svg width="122" height="78" viewBox="0 0 122 78" fill="none" xmlns="http://www.w3.org/2000/svg">
<path d="M121.953 54.3673C121.859 54.4615 121.719 54.5085 121.578 54.5085C121.25 54.5085 120.312 55.3088 119.467 54.4615C119.374 54.3673 118.858 54.1319 118.811 53.9907C118.67 53.4728 118.67 52.4371 119.139 52.4371C119.655 52.4371 120.171 52.2959 120.734 52.2959C121.062 52.2959 121.39 52.4842 121.578 52.8138C121.766 53.0962 121.859 53.7082 122 53.9907C121.906 54.0848 122 54.2731 121.953 54.3673ZM114.449 53.2375C114.449 53.3787 114.308 53.567 114.215 53.6141C113.699 53.8495 113.23 54.0848 112.62 54.1319C111.87 54.179 111.072 54.2731 110.322 54.3673C110.275 54.3673 110.275 54.3673 110.228 54.3673C109.524 54.7439 108.821 54.4144 108.117 54.5085C107.414 54.6027 106.71 54.6498 106.007 54.7439C105.866 54.7439 105.772 54.8852 105.632 54.9322C105.491 54.9793 105.303 55.0264 105.21 54.9793C104.834 54.791 104.506 54.8381 104.131 54.8381C103.193 54.8381 102.302 54.7439 101.364 54.7439C101.129 54.7439 100.895 54.7439 100.613 54.7439C98.5967 54.3673 96.533 54.0848 94.4694 54.1319C90.9988 54.2731 87.4343 54.3202 84.0106 54.8851C83.9168 54.8381 83.823 54.8381 83.7761 54.8381C83.3071 54.8851 82.8381 55.0264 82.3691 55.1205C82.3222 55.1205 82.2753 55.1676 82.2284 55.1676C81.9001 55.1205 81.5249 55.0735 81.1966 55.0735C80.6807 55.0264 80.1648 55.0264 79.6958 55.0264C79.3205 55.0264 78.9453 55.1676 78.5701 55.2618C78.4763 55.2618 78.3356 55.2618 78.2887 55.2147C78.0542 54.9322 77.7259 55.0264 77.4445 55.0735C77.3507 55.1205 77.2569 55.1205 77.1631 55.1205C76.8348 55.0264 76.5534 55.0735 76.272 55.1676C75.9437 55.1205 75.6623 55.1205 75.334 55.0735C73.927 54.8851 72.6607 54.7439 71.3006 55.1676C71.0661 55.2618 70.9254 55.403 70.7847 55.5442C70.5502 55.5913 70.2688 55.6384 70.0343 55.6855H69.9873C69.2838 56.1092 68.5803 55.6384 67.8768 55.5913C67.4078 55.5442 66.7512 55.3559 66.4698 55.0264C66.1884 54.6968 65.8601 54.6498 65.5787 54.4615C65.2035 54.2261 64.8752 54.179 64.5 54.4615C64.3593 54.5556 64.1717 54.6027 63.9841 54.6027C63.5151 54.6027 63.0461 54.6498 62.624 54.9322C62.0612 55.3088 61.4515 55.5442 60.748 55.6855C60.232 55.7796 59.7161 56.015 59.2002 56.1562C58.5436 56.3445 57.9339 56.2975 57.418 55.8267C57.3242 55.7325 57.1366 55.7796 56.9959 55.7325C56.2924 55.4972 56.0579 54.9793 56.1517 54.179C55.9172 54.2261 55.6827 54.3202 55.4951 54.3202C54.7916 54.4144 54.3226 54.9322 53.7598 55.3088C53.6191 55.403 53.4315 55.3559 53.2439 55.403C52.0714 55.8738 50.9457 56.4387 49.7732 56.8153C49.1166 57.0507 48.4131 57.2861 47.6627 57.0978C47.5689 57.0978 47.4751 57.0507 47.3813 57.0978C46.7247 57.3802 46.2088 57.1448 45.5991 56.8624C44.8956 56.5328 44.5673 55.8267 43.9576 55.403C43.8638 55.3559 43.9107 55.1205 43.9576 54.9793C43.9576 54.6968 44.0514 54.4615 43.8169 54.2261C43.6762 54.0848 43.6762 53.7553 43.7231 53.5199C43.77 53.2375 43.77 52.955 43.4417 52.955C43.2541 52.955 43.0665 53.1433 42.8789 53.2845C42.7382 53.4258 42.5975 53.6141 42.4568 53.7553C42.3161 53.8965 42.0347 53.8495 42.1754 54.179C42.1754 54.2261 42.0347 54.3202 41.9409 54.3673C41.6125 54.5556 41.2842 54.6968 41.1435 55.1205C41.0966 55.2618 40.8621 55.3559 40.6745 55.4501C39.9241 55.9679 39.2206 56.4387 38.4702 56.9565C38.0481 57.239 37.626 57.6156 37.157 57.851C36.9225 57.9922 36.5473 57.8981 36.2659 57.9452C36.0783 57.9922 35.8438 57.9922 35.7031 58.1335C35.3279 58.3688 34.9527 58.463 34.5306 58.3688C34.2023 58.2747 34.0147 58.0393 33.8271 57.7569C33.7802 57.6627 33.6864 57.5685 33.5926 57.4744C33.1705 57.1919 33.1236 57.1919 32.8891 57.6627C32.7015 57.9922 32.5607 58.3689 32.3262 58.6513C32.2793 58.6984 32.2324 58.7925 32.1855 58.8396C31.482 59.4045 31.2944 60.299 31.1068 61.2406C30.9192 61.5701 30.7785 61.8996 30.6378 62.2292C29.8405 64.0181 28.8556 65.6187 27.9645 67.3606C26.4168 70.4206 25.1505 73.6689 23.8842 76.9172C23.6497 77.2938 23.4621 77.6234 23.2744 78C23.2275 78 23.1806 78 23.1337 77.9529C23.0868 77.3409 22.993 76.7289 22.9461 76.1169C22.8992 75.2695 22.8523 74.4221 22.8992 73.5747C22.8992 73.4335 22.8992 73.2923 22.8523 73.1981C22.9461 71.5975 22.8992 69.9969 22.7585 68.4433C22.4302 65.0538 21.3984 61.7584 21.4922 58.3218C21.5391 57.3332 20.1321 57.1919 19.8038 57.9452C19.71 57.9922 19.6162 58.0393 19.5693 58.0864C19.1941 58.2747 18.8189 58.5101 18.4437 58.7455C17.9747 59.0279 17.5057 59.2633 17.0367 59.5458C16.9429 59.5929 16.8022 59.687 16.7084 59.7341C16.427 59.9224 16.0987 60.1578 15.8173 60.3461C15.3014 60.7227 14.8324 61.0993 14.2696 61.4289C13.9412 61.6642 13.566 61.8055 13.2377 61.9938C13.0032 62.135 12.8625 62.3233 12.628 62.4646C12.3935 62.6529 12.159 62.8882 11.8776 63.0766C11.5962 63.2649 11.2679 63.4532 10.9396 63.5003C10.6582 63.5473 10.3299 63.5003 10.0485 63.5003C9.7202 63.5003 9.3919 63.4061 9.0636 63.4061C8.82909 63.4061 8.64149 63.359 8.54769 63.1707C8.31319 62.7941 8.03179 62.5116 7.89108 62.0879C7.75038 61.7113 7.46898 61.3818 7.60968 60.911C7.65658 60.7227 7.42208 60.3932 7.32828 60.1578C7.28138 60.1578 7.23448 60.1578 7.14068 60.1578C7.04688 60.299 6.95307 60.4402 6.90617 60.5815C6.76547 60.8639 6.57787 61.0993 6.24957 61.0522C6.15577 61.0522 6.10887 61.0993 6.01506 61.1464C5.54606 61.4759 5.12396 61.7584 4.70185 62.135C4.46735 62.3233 4.32665 62.6058 4.09214 62.7941C3.76384 63.0766 3.34174 63.3119 2.96653 63.5473C2.59133 63.7827 2.21612 63.971 1.88782 64.2064C1.32501 64.583 0.715308 64.6772 0.058701 64.4418C-0.175802 63.7356 0.340104 63.3119 0.762209 62.8412C1.13741 62.4646 1.55952 62.1821 1.70022 61.6172C1.79402 61.2876 2.12232 61.0052 2.40373 60.7227C2.63823 60.4402 2.96653 60.2049 3.15413 59.9224C3.76384 59.0279 4.74875 58.6042 5.54606 57.9452C6.43717 57.1919 7.32828 56.3916 8.21939 55.5913C8.59459 55.2618 9.0167 54.8851 9.3919 54.5085C9.5326 54.3202 9.7202 54.179 9.86091 53.9907C11.221 52.8608 12.5342 51.6839 13.9881 50.6953C15.489 49.6596 17.2712 48.671 18.0685 46.9291C18.0685 46.882 18.0685 46.882 18.1154 46.835C18.303 46.6467 18.6313 46.5525 18.8658 46.4113C19.1003 46.27 19.3348 46.1288 19.1003 45.7993C19.0534 45.7051 19.1003 45.5639 19.1003 45.4227C19.1003 45.1873 19.0534 44.9519 18.9127 44.7636C19.0065 43.21 19.3348 40.762 18.3968 39.3026C18.2561 38.1728 18.303 36.9959 18.1623 35.866C18.0216 34.3125 17.8809 32.7118 17.6464 31.1112C17.6933 30.4521 17.6933 29.9814 17.6933 29.9343C17.6464 29.5577 17.5995 29.2281 17.2243 28.9928C17.1774 28.9457 17.1774 28.8044 17.1305 28.7103C17.0836 28.522 17.0836 28.3808 17.0367 28.1924C16.9898 27.8158 16.8022 27.3921 17.2712 27.1097C17.3181 27.0626 17.365 26.9684 17.365 26.9214C17.3181 26.4977 17.5995 26.4977 17.834 26.6389C18.7251 28.2866 19.7569 29.8401 21.1639 31.1112C22.1488 31.9586 22.9461 32.6648 23.7435 33.7005C23.8842 33.8888 24.0249 34.0771 24.2125 34.2654C23.8373 34.6891 23.2276 34.8303 22.7116 34.5479C22.3364 34.3125 21.9143 34.1712 21.5391 34.03C21.4922 33.9829 21.3984 33.9829 21.3515 33.9358C21.117 33.7005 20.9294 33.4651 20.7418 33.2297C20.5542 32.9943 20.3666 32.7118 20.179 32.3823C20.0383 32.5235 19.8976 32.6648 19.8038 32.806L19.8507 32.8531C19.71 32.9002 19.5693 33.0414 19.6162 33.2768C19.9914 34.4537 19.4286 35.9602 20.2259 37.0429C20.3197 38.5965 20.5542 40.15 21.117 41.5623C21.2108 41.7977 21.3515 41.939 21.4922 42.0331C21.4453 42.551 21.6798 43.1159 22.1019 43.5866C22.2895 43.4454 22.4302 43.3042 22.6178 43.163C23.1806 42.8334 23.6966 42.4097 24.0718 41.8448C24.2125 41.6094 24.4939 41.5153 24.6815 41.3269C25.2912 40.762 25.9478 40.2442 26.4637 39.6322C26.8389 39.1614 27.3079 38.8319 27.7769 38.4552C27.8707 38.4082 28.0114 38.314 28.0114 38.2669C28.0583 37.7962 28.4335 37.702 28.7618 37.4666C29.2308 37.09 29.6529 36.6663 30.1219 36.2426C30.2626 36.1485 30.3564 36.0543 30.4971 35.9131C30.8723 35.5835 31.3413 35.254 31.6696 34.8774C31.9979 34.5478 32.3262 34.2183 32.6545 33.9358C32.7015 33.8888 32.7484 33.8888 32.7484 33.8888C32.8422 33.0414 33.6864 32.9943 34.1554 32.5235C35.0934 31.4878 36.1721 30.4992 37.157 29.5106C37.4384 29.2281 37.7667 29.0398 38.0481 28.8044C38.4702 28.4278 38.9861 28.0512 39.2206 27.5804C39.4082 27.1567 39.7834 27.0155 40.0648 26.7801C40.3931 26.4977 40.6276 26.1211 40.909 25.7915C41.2373 25.462 41.6125 25.1795 41.9409 24.85C42.3161 24.5204 42.6444 24.1438 42.9727 23.8143C43.5824 23.2023 44.239 22.6373 44.8487 22.0253C45.4584 21.4133 46.0212 20.7543 46.6309 20.1423C47.1468 19.6244 47.7565 19.1066 48.2724 18.5887C48.7883 18.0709 49.2573 17.553 49.7732 17.0352C50.1015 16.7527 50.2422 16.2819 50.7112 16.1407C50.9926 16.0466 51.1802 15.7641 51.4148 15.5287C51.8369 15.105 52.2121 14.6813 52.6342 14.3047C52.8687 14.0693 53.1501 13.881 53.3846 13.6456C53.8067 13.269 54.2757 12.9395 54.6978 12.5629C54.9323 12.3275 55.1668 12.0921 55.4013 11.9038C55.6827 11.6213 56.011 11.3859 56.3393 11.1035C56.949 10.5856 57.5118 10.1148 58.1215 9.597C58.2153 9.50284 58.3091 9.45577 58.4029 9.36161C59.7161 8.51423 60.748 7.43145 61.7329 6.25453C62.2019 5.6896 62.7647 5.21883 63.2806 4.74806C63.3275 4.70098 63.3744 4.70098 63.4213 4.65391C63.5151 4.08898 64.031 3.94775 64.4062 3.66529C64.6876 3.47698 64.7814 3.05329 65.0159 2.8179C65.3911 2.44128 65.8601 2.15882 66.2822 1.7822C66.5167 1.5939 66.7043 1.35851 66.845 1.07605C67.0795 0.652354 67.4547 0.464045 67.8768 0.275737C67.9706 0.22866 68.0175 0.0874286 68.1113 -0.00672557C68.252 -0.147957 68.3927 -0.289188 68.5334 -0.430419C68.7679 -0.665805 69.0024 -0.854113 69.19 -1.0895C69.4245 -1.32488 69.5652 -1.60735 69.7997 -1.79565C70.175 -2.07812 70.5971 -2.26643 70.6909 -2.78427C70.6909 -2.87843 70.8785 -2.97258 70.9723 -3.06674C71.582 -3.53751 72.2386 -4.05535 72.8483 -4.52613C72.8952 -4.5732 72.9421 -4.5732 72.9421 -4.62028C73.1766 -5.37351 74.0208 -5.42059 74.4429 -5.93844C75.0526 -6.64459 75.803 -7.20952 76.5065 -7.8686C76.5065 -7.8686 76.5065 -7.91568 76.5534 -7.91568C77.3976 -8.29229 77.8666 -9.13968 78.617 -9.61045C78.7108 -9.65753 78.8046 -9.65753 78.8984 -9.75168C79.086 -9.89291 79.2737 -10.0341 79.4144 -10.1754C79.7896 -10.5049 80.1179 -10.8345 80.4931 -11.1169C81.0559 -11.5406 81.6187 -11.9172 82.1815 -12.3409C82.4629 -12.5292 82.6974 -12.8117 82.9788 -13C83.0257 -12.9529 83.0726 -12.9058 83.0726 -12.8588C82.7912 -12.6234 82.4629 -12.3409 82.1815 -12.1055C81.7125 -11.7289 81.4311 -11.2581 81.4311 -10.5991C81.4311 -10.3166 81.2435 -9.98707 81.0559 -9.7046C80.7276 -9.23383 80.3055 -8.85722 79.9772 -8.38645C79.9303 -8.33937 79.9303 -8.24521 79.9303 -8.19814C80.2586 -7.63321 79.7427 -7.39783 79.5082 -7.16244C78.7577 -6.31505 77.9604 -5.51474 77.1631 -4.76151C76.6941 -4.29074 76.1313 -3.86705 75.6623 -3.39627C75.334 -3.06674 75.0057 -2.69012 74.7243 -2.3135C74.2553 -1.79565 73.7863 -1.32488 73.3642 -0.807035C72.8014 -0.100879 72.2386 0.605277 71.6758 1.31143C71.2537 1.82928 70.7378 2.34713 70.3157 2.86498C70.128 3.10036 69.9874 3.33575 69.7997 3.61821C69.5652 3.99483 69.2838 4.32437 69.0493 4.65391C68.8148 4.98344 68.5803 5.40714 68.252 5.64252C67.5016 6.25453 67.0795 7.10191 66.4229 7.76099C66.3291 7.85515 66.3291 7.99638 66.2822 8.09053C66.2353 8.18469 66.2353 8.32592 66.1415 8.373C65.4849 8.79669 65.2035 9.54992 64.5938 10.0678C64.2186 10.3973 63.9841 10.8681 63.6558 11.2447C63.562 11.3859 63.4682 11.5272 63.3744 11.6213C63.093 11.9038 62.8116 12.1862 62.8116 12.6099C62.8116 12.9395 62.5771 13.0336 62.2957 13.1278C62.155 13.1749 62.0143 13.3632 61.8736 13.5044C61.7329 13.6927 61.686 13.9281 61.5453 14.1164C60.9825 14.7755 60.4196 15.4346 59.8568 16.0466C59.5285 16.4232 59.2002 16.7998 58.8719 17.2235C58.4967 17.7413 58.1215 18.2592 57.7463 18.8241C57.6994 18.8712 57.6525 18.9183 57.6056 19.0124C57.2304 19.4832 56.8552 19.9069 56.5269 20.3776C56.48 20.4247 56.4331 20.4718 56.4331 20.5189C56.3393 21.0367 56.011 21.3663 55.6358 21.6958C55.2606 22.0724 54.9792 22.5432 54.604 22.9669C54.4633 23.1552 54.2757 23.2964 54.135 23.4847C53.9943 23.673 53.9474 23.9084 53.8067 24.0967C53.5253 24.4734 53.2439 24.897 52.9625 25.2737C52.5873 25.7915 52.2121 26.3094 51.79 26.7801C51.2271 27.4863 50.6643 28.1924 50.1484 28.8986C49.8201 29.3223 49.5856 29.746 49.3042 30.1697C49.2573 30.2638 49.1635 30.3109 49.1166 30.4051C48.7414 30.8758 48.3662 31.3466 47.991 31.8174C47.6158 32.2882 47.2875 32.806 46.9123 33.2768C46.8185 33.4651 46.7716 33.7005 46.6778 33.8417C46.3964 34.2654 46.1619 34.7832 45.7867 35.1128C45.3177 35.4894 45.0832 36.0072 44.708 36.478C44.3797 36.9017 44.0983 37.3254 43.8169 37.7491C43.6762 37.9374 43.3948 38.0786 43.301 38.314C43.0196 38.7377 42.7851 39.1614 42.5975 39.6322C42.3161 40.4325 41.6594 40.9033 41.2842 41.5623C41.1435 41.7977 41.0497 42.0802 40.909 42.3156C40.5338 42.8805 40.1586 43.3983 39.8303 43.9633C39.7365 44.1045 39.7365 44.3399 39.7365 44.5753C39.3144 44.9519 39.033 45.4697 38.7516 46.0347C38.5171 46.5525 38.1419 46.9762 38.1888 47.5882C37.9543 47.7765 37.6729 48.0119 37.4384 48.2944C37.157 48.671 36.9225 49.0947 36.688 49.5184C36.5004 49.8479 36.3128 50.2245 36.0783 50.5541C35.7969 50.9778 35.8907 51.4485 36.0314 51.8722C36.1252 52.2959 36.4535 52.6255 36.5473 53.0491C36.6411 53.3316 36.6411 53.6611 36.6411 53.9907C36.6411 54.0848 36.5473 54.179 36.4535 54.2261C36.4066 54.2731 36.3597 54.2731 36.3128 54.2731C36.0314 54.3673 35.9845 54.6027 36.1252 54.791C36.1721 54.8381 36.5004 54.8381 36.5942 54.7439C36.8287 54.4144 37.157 54.3673 37.4853 54.3202C37.626 54.2731 37.7667 54.2261 37.8605 54.179C38.8923 53.567 39.8772 52.955 40.909 52.3901C41.2842 52.2018 41.7532 52.1076 42.1754 51.9664C42.3161 51.9193 42.4568 51.9193 42.5506 51.8251C43.0665 51.4485 43.7231 51.5427 44.2859 51.4485C44.9894 51.3073 45.4584 51.4485 45.6929 52.2018C45.8336 52.5784 46.2088 52.8608 45.9743 53.3316C45.9274 53.4258 46.115 53.567 46.1619 53.7082C46.2557 53.9907 46.3495 54.2731 46.4433 54.5556C46.4902 54.6498 46.6309 54.7439 46.7247 54.8381L46.8185 54.791C46.8185 54.9322 46.7716 55.0735 46.7716 55.2147C47.1937 55.403 47.5689 55.403 48.0379 55.2147C48.6945 54.9793 49.3511 54.8381 50.0077 54.6498C50.5705 54.4615 51.0864 54.2261 51.6493 54.0378C52.0245 53.8965 52.3997 53.8495 52.7749 53.7082C52.9625 53.6611 53.1501 53.5199 53.2908 53.3787C53.4315 53.2845 53.5722 53.1433 53.7129 53.0021C54.0412 53.3787 54.5102 53.2845 54.7916 53.0962C55.3544 52.7196 55.9172 52.955 56.48 52.955C56.7145 52.955 56.9959 52.9079 57.2304 53.0021C57.6056 53.1433 58.0277 53.1904 58.2622 53.6611C58.4967 54.0848 58.825 54.179 59.3409 53.9436C59.7161 53.7553 60.1851 53.7553 60.5604 53.6611C60.9356 53.567 61.2639 53.3787 61.7329 53.1904C62.0612 53.3787 62.5302 53.5199 63.0461 53.2375C63.1399 53.1904 63.3275 53.1904 63.4213 53.1433C63.9841 53.0962 64.5 53.0021 65.0628 53.0021C65.5787 53.0021 66.0946 53.0962 66.6105 53.1433C66.845 53.1904 67.0795 53.2845 67.314 53.2845C67.8768 53.2845 68.252 53.6141 68.4865 54.0378C68.6272 54.2731 68.7679 54.3202 69.0493 54.2261C69.5183 54.1319 69.9874 54.1319 70.5033 54.1319C70.8785 54.0848 71.3475 54.2261 71.6758 54.0378C72.1448 53.8024 72.52 53.8024 72.989 53.9436C73.2235 54.0378 73.5518 53.9436 73.7863 54.0378C74.2084 54.179 74.6305 54.0378 74.9588 53.8024C75.2871 53.567 75.5216 53.6611 75.7092 53.8495C75.9906 54.0848 76.2251 54.0378 76.5065 53.8965C76.6941 53.8024 76.7879 53.7553 77.0224 53.8965C77.3038 54.0378 77.7259 54.179 77.9604 54.0378C78.617 53.7082 79.1798 54.0378 79.8365 54.0378C79.9303 54.0378 80.0241 54.0848 80.071 54.0848C80.7745 53.9907 81.4311 53.8965 82.1346 53.7553C82.2284 53.7553 82.3222 53.7082 82.3691 53.6611C88.6538 53.4258 95.0322 53.8965 101.364 53.5199C103.803 53.8024 106.241 53.9907 108.68 53.8495C109.196 53.8024 109.478 53.4728 109.524 53.0491C109.853 53.0021 110.134 53.0021 110.462 53.0021C111.307 53.0491 112.104 52.9079 112.948 53.0962C113.089 53.1433 113.277 53.0021 113.464 52.955C113.886 52.6254 114.402 52.8608 114.449 53.2375ZM20.3197 54.8851C20.2728 54.791 20.2728 54.6498 20.3197 54.5085C20.3197 54.2261 20.3666 53.9436 20.3666 53.6611C20.2259 53.6141 20.0852 53.6141 19.9914 53.567C20.1321 52.9079 20.179 52.3901 19.9914 51.6368C19.9445 51.4956 19.8976 51.2602 19.8038 51.2131C19.5224 51.0248 19.5693 50.8836 19.6631 50.6482C19.71 50.5541 19.7569 50.4599 19.8038 50.3657C19.7569 50.3187 19.71 50.3187 19.71 50.2716C19.4286 50.4599 19.1941 50.6953 18.9127 50.8836C18.7251 51.0248 18.5375 51.1661 18.3499 51.3073H18.303C16.5677 52.0134 15.3952 53.2845 13.9881 54.4615C12.6749 55.6384 10.9865 56.5328 10.0485 58.0393C10.0485 58.0393 10.0485 58.0393 10.0485 58.0864C9.6264 58.5572 9.6264 59.0279 10.0016 59.8282C10.0485 59.8753 10.0485 59.9695 10.0485 60.0165C10.1423 60.3932 10.1892 60.7698 10.283 61.2406C10.5175 61.1464 10.6582 61.0993 10.7989 61.0052C11.5024 60.5344 12.159 59.9695 12.8625 59.4987C13.7536 58.9338 14.6917 58.3689 15.5828 57.8039C16.0518 57.5215 16.5677 57.239 17.0367 56.9095C17.6464 56.5328 18.2561 56.2033 18.8189 55.7796C19.1472 55.4971 19.3817 55.3088 19.8038 55.403C20.2728 55.5442 20.4135 55.2618 20.3197 54.8851ZM27.7769 57.851C27.6831 57.8981 27.4955 57.9452 27.4017 57.9922C27.0265 58.2276 26.7451 58.5101 26.5575 58.9338C26.4637 59.1692 26.323 59.5458 25.9947 59.0279C25.9478 58.9809 25.7602 58.9809 25.6664 59.0279C25.4788 59.075 25.3381 59.1692 25.1974 59.2633C24.8222 59.4516 24.5877 59.8753 24.8222 60.2049C25.1974 60.8639 24.9629 61.6642 25.2443 62.3704C25.4319 62.8412 25.5726 63.5003 25.2443 64.0652C25.1036 64.3006 25.3381 64.4418 25.6195 64.3476C26.1354 64.1593 26.1823 63.924 26.0416 63.1707C26.4168 62.9353 26.6513 62.6058 26.5575 62.135C26.5575 61.9938 26.6044 61.8526 26.6513 61.7584C26.792 61.3818 26.9796 61.0052 27.1203 60.6286C27.261 60.1107 27.261 59.4987 27.5893 59.0279C27.73 58.6984 27.6831 58.2747 27.7769 57.851ZM35.6562 42.6451C35.9376 42.0802 36.3128 41.5623 36.5942 41.0445C36.9225 40.4325 37.4853 39.9617 37.4853 39.3497C37.6729 39.1143 37.8136 38.926 37.9543 38.7848C38.4233 38.2669 38.4702 37.5137 39.033 37.09C39.1737 36.9959 39.2206 36.7605 39.3144 36.6192C39.5489 36.2426 39.7365 35.866 40.0179 35.5365C40.44 34.9715 40.909 34.4537 41.2842 33.8888C41.4718 33.6063 41.6594 33.2768 41.8001 32.9943C42.0816 32.3352 42.7851 32.0528 43.0665 31.3466C43.2541 30.7817 43.6762 30.358 44.0045 29.8401C44.4266 29.2281 44.8487 28.6161 45.2708 28.0041C45.5991 27.5334 45.9274 27.1097 46.2557 26.686C46.4433 26.4506 46.584 26.1681 46.7716 25.8857C47.1937 25.2266 47.6158 24.5675 48.0848 23.9555C48.3193 23.626 48.6476 23.3435 48.9759 23.014C48.929 22.9669 48.8821 22.8727 48.8352 22.8257C48.5538 23.061 48.2724 23.2494 47.991 23.5318C47.522 24.0026 47.0999 24.4734 46.6309 24.9441C46.3964 25.1795 46.115 25.3678 45.8805 25.6032C45.5991 25.8386 45.3646 26.074 45.0832 26.3094C44.9425 26.4506 44.8018 26.6389 44.6142 26.7801C44.5204 26.8743 44.3797 26.9684 44.239 27.1097C43.8638 27.4863 43.4417 27.91 43.0665 28.2866C42.363 28.9928 41.6594 29.6989 40.909 30.358C40.6745 30.5934 40.44 30.8288 40.2055 31.0171C39.6427 31.5349 38.8923 31.9115 38.5171 32.6648C38.4233 32.8531 38.1888 33.0414 38.0012 33.1826C37.5791 33.6063 37.157 34.03 36.688 34.4537C36.5004 34.642 36.3128 34.7362 36.0783 34.8774C35.8438 35.0657 35.5624 35.2069 35.3279 35.3952C35.0934 35.5835 34.8589 35.7719 34.7651 36.0072C34.7182 36.2426 34.5775 36.2897 34.4368 36.4309C34.1085 36.6663 33.8271 36.9488 33.4988 37.1842C33.3581 37.2783 33.2174 37.3254 33.0767 37.4196C32.8891 37.5137 32.7015 37.6079 32.5607 37.702C32.2324 37.9845 31.951 38.314 31.6696 38.5965C31.2475 39.0202 30.6847 39.3968 30.4971 40.0088C30.4033 40.1029 30.3564 40.1971 30.2626 40.3383C30.075 40.5266 29.8874 40.6679 29.6998 40.8562C29.2777 41.0916 28.9025 41.374 28.4804 41.6565C28.2459 41.7977 28.0583 42.0331 27.8707 42.2685C27.4486 42.6922 27.2141 43.3513 26.6044 43.5396C26.5575 43.5396 26.5575 43.6337 26.5106 43.6808C25.9947 44.1516 25.5257 44.5753 25.0098 45.046C24.916 45.1402 24.8222 45.1873 24.7753 45.2343C24.447 45.5639 24.1656 45.8934 23.8842 46.223C23.509 46.5996 23.1806 46.9762 22.8054 47.3528C22.7585 47.3999 22.7585 47.5882 22.7585 47.6353C23.0399 48.1061 22.8054 48.6239 22.8054 49.0947C22.8054 49.283 22.8054 49.4713 22.8523 49.6596C22.8992 49.8479 23.0868 50.0362 23.1337 50.2245C23.1806 50.6953 23.1806 51.119 23.3214 51.5898C23.4621 52.1076 23.3683 52.7196 23.8373 53.0021C23.7904 53.5199 23.6966 53.9436 23.7904 54.3673C23.8842 54.9793 24.3532 55.5442 24.2125 56.2033C24.2125 56.2033 24.2594 56.2504 24.3063 56.2975C24.8691 55.9679 25.4319 55.6855 25.9478 55.3559C26.6044 54.9322 27.261 54.4144 27.9645 53.9907C28.7149 53.5199 29.4653 53.1433 30.2157 52.6725C30.3095 52.6255 30.4033 52.4371 30.4502 52.343C30.6847 51.8722 30.8723 51.3544 31.1068 50.8836C31.2944 50.507 31.5758 50.1304 31.7634 49.7537C32.0448 49.2359 32.3262 48.718 32.5607 48.1531C32.936 47.3999 33.5457 46.7879 33.4519 45.8464C33.4519 45.7993 33.4988 45.7522 33.4988 45.7051C33.874 45.3756 34.0616 44.9048 34.3899 44.5282C35.0465 44.0103 35.281 43.3042 35.6562 42.6451Z" fill="white"/>
</svg>
