<svg width="349" height="57" viewBox="0 0 349 57" fill="none" xmlns="http://www.w3.org/2000/svg">
<path fill-rule="evenodd" clip-rule="evenodd" d="M0 0V38.6111V40.3033H20.4124C21.2729 49.6639 29.2006 57 38.8367 57C48.4447 57 56.3951 49.641 57.2841 40.3033H77.6734V38.6111C77.6734 17.3172 60.2434 0 38.8367 0C33.4347 0 28.286 1.10277 23.6066 3.09394V0H0ZM20.2222 4.73217V3.38446H3.38446V22.8507C6.86412 15.1454 12.813 8.77243 20.2222 4.73217ZM3.41267 36.9188C3.99078 24.9772 10.5749 14.5747 20.2222 8.63921V36.9188H3.41267ZM23.6066 28.2052V6.80199C28.2233 4.61147 33.3882 3.38446 38.8367 3.38446C57.8179 3.38446 73.3582 18.2761 74.2607 36.9188L57.3666 36.9188L57.2538 36.9188C56.4077 27.5552 48.4542 20.2222 38.8367 20.2222C32.5275 20.2222 26.9465 23.3901 23.6066 28.2052ZM23.815 36.9188H53.8584C53.0094 29.4465 46.6072 23.6066 38.8367 23.6066C31.0662 23.6066 24.664 29.4465 23.815 36.9188ZM23.804 40.3033C24.6502 47.7773 31.0806 53.6155 38.8367 53.6155C46.5928 53.6155 53.0232 47.7773 53.8693 40.3033H23.804Z" fill="#7A8FFF"/>
<path d="M161.242 37.2597H170.613V41.5655H156.674V20.387H170.378V24.6928H161.242V28.7983H169.059V32.7536H161.242V37.2597ZM225.523 41.5154H230.091V33.2043H237.438V29.2489H230.138V24.6928H239.039V20.387H225.57V41.5154H225.523ZM131.527 28.5981H123.568V20.387H119V41.5154H123.568V32.8538H131.48V41.5154H136.048V20.387H131.48V28.5981H131.527ZM197.55 30.1001L193.265 20.387H188.273L195.29 34.2557V41.5154H199.858V34.3057L206.922 20.387H201.883L197.55 30.1001ZM275.677 27.096C276.148 28.3978 276.383 29.6995 276.383 31.0013C276.383 32.4032 276.148 33.7049 275.63 35.0067C275.159 36.3084 274.452 37.4099 273.558 38.4113C272.663 39.4126 271.627 40.1636 270.403 40.7644C269.178 41.3652 267.86 41.6656 266.447 41.6656C264.987 41.6656 263.621 41.3652 262.397 40.7644C261.172 40.1636 260.136 39.3625 259.289 38.3612C258.441 37.3598 257.782 36.2083 257.311 34.9065C256.84 33.6048 256.604 32.303 256.604 30.9012C256.604 29.4993 256.84 28.1975 257.358 26.8958C257.829 25.594 258.535 24.4925 259.43 23.4912C260.325 22.4898 261.361 21.7388 262.585 21.138C263.81 20.5372 265.128 20.2368 266.541 20.2368C268.001 20.2368 269.366 20.5372 270.591 21.138C271.815 21.7388 272.851 22.5399 273.699 23.5913C274.547 24.6427 275.206 25.7943 275.677 27.096ZM271.721 30.9512C271.721 30.1501 271.627 29.3491 271.391 28.5981C271.156 27.8471 270.826 27.1461 270.403 26.5954C269.979 25.9946 269.414 25.544 268.754 25.1935C268.095 24.843 267.389 24.6928 266.541 24.6928C265.646 24.6928 264.893 24.8931 264.28 25.2435C263.621 25.594 263.103 26.0947 262.679 26.6955C262.256 27.2963 261.926 27.9472 261.69 28.7483C261.455 29.4993 261.361 30.3003 261.361 31.1014C261.361 31.9025 261.455 32.7036 261.69 33.4546C261.926 34.2056 262.256 34.9065 262.679 35.5074C263.103 36.1082 263.668 36.5588 264.328 36.9593C264.987 37.3098 265.74 37.51 266.588 37.51C267.483 37.51 268.236 37.3098 268.896 36.9593C269.555 36.5588 270.073 36.1082 270.497 35.5074C270.921 34.9065 271.25 34.2056 271.439 33.4546C271.627 32.5033 271.721 31.7022 271.721 30.9512ZM332.282 20.387V24.6928H338.357V41.5154H342.925V24.6928H348.953V20.387H332.282ZM308.689 32.8037L299.412 20.387H295.832V41.5154H300.4V29.4492L309.536 41.5154H313.21V20.387H308.642V32.8037H308.689Z" fill="white"/>
</svg>
