<svg width="23" height="14" viewBox="0 0 23 14" fill="none" xmlns="http://www.w3.org/2000/svg">
<path d="M11.286 13L9.91799 9.83199H3.43799L2.06999 13H0.179993L5.88599 0.18399H7.45199L13.176 13H11.286ZM4.06799 8.35599H9.28799L6.67799 2.25399L4.06799 8.35599Z" fill="black"/>
<path d="M22.9718 3.92799V13H21.1718V11.452C20.9078 11.992 20.5118 12.406 19.9838 12.694C19.4678 12.982 18.8618 13.126 18.1658 13.126C17.3618 13.126 16.6538 12.934 16.0418 12.55C15.4418 12.166 14.9738 11.626 14.6378 10.93C14.3018 10.222 14.1338 9.39999 14.1338 8.46399C14.1338 7.52799 14.3018 6.69999 14.6378 5.97999C14.9858 5.25999 15.4658 4.70199 16.0778 4.30599C16.6898 3.90999 17.3858 3.71199 18.1658 3.71199C18.8618 3.71199 19.4678 3.86199 19.9838 4.16199C20.4998 4.44999 20.8958 4.86399 21.1718 5.40399V3.92799H22.9718ZM18.5978 11.686C19.4138 11.686 20.0438 11.404 20.4878 10.84C20.9438 10.264 21.1718 9.45999 21.1718 8.42799C21.1718 7.38399 20.9438 6.57999 20.4878 6.01599C20.0438 5.45199 19.4078 5.16999 18.5798 5.16999C17.7638 5.16999 17.1218 5.46399 16.6538 6.05199C16.1978 6.62799 15.9698 7.43199 15.9698 8.46399C15.9698 9.48399 16.1978 10.276 16.6538 10.84C17.1218 11.404 17.7698 11.686 18.5978 11.686Z" fill="black"/>
</svg>
